<?xml version="1.0" encoding="UTF-8"?>
<!-- Created with Inkscape (http://www.inkscape.org/) -->
<svg width="151.83mm" height="151.83mm" version="1.1" viewBox="0 0 151.83 151.83" xmlns="http://www.w3.org/2000/svg">
 <g transform="translate(50.434 2.4895)">
  <circle cx="25.479" cy="73.424" r="67.182" style="fill:var(--chess-acceptable-color);stroke-linecap:round;stroke-linejoin:round;stroke-width:17.463;stroke:var(--chess-acceptable-color)"/>
  <path d="m-13.985 76.26c1.0732 2.576 2.2513 5.1095 3.3959 7.6549 1.9857 4.3918 4.0502 8.7472 6.0842 13.117 1.8353 3.9444 3.6612 7.8928 5.4513 11.858 0.61877 1.3544 1.1929 2.7318 1.855 4.0663 0.25549 0.51501 0.61987 1.2488 1.0202 1.696 0.15437 0.17243 0.35693 0.29471 0.5354 0.44206 1.2399 0.26769 1.2722 0.33747 3.1811-0.0959 0.30859-0.0701 0.53839-0.33579 0.78418-0.53513 1.1338-0.91949 1.9826-2.0873 2.8511-3.2443 2.8696-4.2155 5.3817-8.662 7.9615-13.058 3.7619-6.2789 7.8993-12.325 12.009-18.379 3.744-5.5289 7.6332-10.959 11.664-16.281 3.3121-4.3151 6.7975-8.4927 10.295-12.658 3.0417-3.6141 6.1973-7.1294 9.3773-10.622 1.2588-1.3963 2.555-2.758 3.8501-4.1206l-1.8375-0.13948v0c-1.2855 1.3653-2.571 2.7308-3.824 4.1263-3.1684 3.4992-6.3189 7.0158-9.3559 10.63-3.4888 4.168-6.9635 8.3504-10.266 12.669-4.0153 5.3287-7.8853 10.766-11.623 16.293-4.1092 6.0678-8.2463 12.125-12.055 18.388-2.5909 4.3949-5.1152 8.843-8.0342 13.032-0.87615 1.1343-1.7331 2.305-2.8925 3.176-0.24699 0.18554-0.95241 0.21827-0.79156 0.48201 0.21181 0.34727 0.81187 0.0892 1.2046 0.19517 0.1935 0.0523-0.40028-0.0214-0.60042-0.0321-0.18092-0.12876-0.38723-0.22778-0.54274-0.38629-0.41276-0.42071-0.79094-1.1625-1.0448-1.6604-0.67797-1.3298-1.2577-2.7086-1.8857-4.0618-1.8117-3.9613-3.6533-7.9086-5.4911-11.858-2.0319-4.3661-4.0944-8.7183-6.06-13.115-1.1223-2.5338-2.2829-5.0569-3.2851-7.6406z" style="fill:#ffffff;stroke-linecap:round;stroke-linejoin:round;stroke-miterlimit:2;stroke-width:16;stroke:#ffffff"/>
 </g>
</svg>
