<?xml version="1.0" encoding="UTF-8"?>
<!-- Created with Inkscape (http://www.inkscape.org/) -->
<svg width="161.83mm" height="161.83mm" version="1.1" viewBox="0 0 161.83 161.83" xmlns="http://www.w3.org/2000/svg">
 <g transform="translate(55.434 7.4895)">
  <circle cx="25.479" cy="73.424" r="67.182" style="fill:var(--chess-blunder-color);stroke-linecap:round;stroke-linejoin:round;stroke-width:17.463;stroke:var(--chess-blunder-color)"/>
  <path d="m-0.42257 115.45c0.03298 0.84212 0.02175 1.685 0.01778 2.5275-0.01232 0.72543-0.0043 1.4508-0.0043 2.1762-0.0014 0.4799-7.13e-4 0.2429-0.0026 0.71106h5.3923v0c-0.0025-0.46816-0.0012-0.23116-0.0025-0.71106 3.39e-4 -0.7254 0.0088-1.4508-0.0037-2.1762-0.0037-0.84245-0.01521-1.6853 0.01786-2.5275z" style="fill:#ffffff;stroke-linecap:round;stroke-linejoin:round;stroke-width:19.085;stroke:#ffffff"/>
  <path d="m-8.7365 33.47c0.92485-1.6038 2.2008-2.991 3.7012-4.0767 0.48038-0.34763 0.99292-0.6485 1.4894-0.97276 0.56332-0.31459 1.1059-0.66962 1.69-0.94379 2.7539-1.2927 5.8655-1.9482 8.8893-2.133 0.72879-0.0445 1.4601-0.0252 2.1901-0.0378-0.51521 0.0364-1.871-0.29191-1.5456 0.10923 0.39702 0.4895 1.252 0.15851 1.8686 0.28895 0.58163 0.12304 1.156 0.28344 1.7204 0.47025 0.95574 0.31636 2.2186 0.87391 3.0919 1.3814 0.50426 0.29301 0.97344 0.64261 1.4602 0.96391 2.1588 1.7005 4.1096 3.8341 5.4171 6.269 0.21797 0.40591 0.39371 0.83311 0.59057 1.2497 0.87838 2.1295 1.2239 4.3909 1.3913 6.6711 0.0315 1.3373 0.0274 2.6838-0.22991 4.0022-0.15373 0.78773-0.34979 1.3902-0.57523 2.1584-0.62197 1.918-1.4754 3.74-2.4966 5.4744-0.75655 1.0914-1.474 2.2237-2.3249 3.2467-0.55927 0.67241-1.0313 1.1174-1.6569 1.7486-2.1132 2.0952-4.5622 3.7841-7.0066 5.4603-1.8502 1.2863-3.8231 2.3878-5.6329 3.7317-1.2331 1.0905-1.6359 2.7042-1.9728 4.2511-0.44154 2.4689-0.51976 4.9833-0.61876 7.484-0.0925 2.0898-0.10691 4.181-0.1165 6.2723-0.0521 1.3508-0.16354 2.6982-0.24268 4.0476l3.9113 0.0181v0c0.0463-1.3556 0.14076-2.7091 0.16885-4.0654-6e-3 -2.0862-4e-3 -4.1729 0.0414-6.2586 0.0862-2.4811 0.20906-4.9696 0.68857-7.4118 0.35403-1.4771 0.77182-2.9814 2.0023-3.9785 1.764-1.3433 3.676-2.4752 5.5034-3.7282 2.4521-1.6988 4.8889-3.4326 7.0272-5.5262 0.75597-0.74273 1.0715-1.0095 1.7202-1.796 0.85535-1.037 1.5771-2.1836 2.3316-3.2929 1.0248-1.763 1.8672-3.6202 2.4763-5.5696 0.23058-0.8049 0.41309-1.383 0.58028-2.2063 0.27382-1.3483 0.28914-2.7202 0.2449-4.0906-0.18269-2.3294-0.5646-4.6328-1.4627-6.8069-0.20044-0.4299-0.3761-0.87224-0.60132-1.2897-0.99245-1.8395-2.6213-3.8382-4.1295-5.2738-0.42872-0.40811-0.90208-0.7666-1.3531-1.1499-0.48415-0.33666-0.94835-0.70399-1.4524-1.01-0.84621-0.51364-2.1908-1.1267-3.1202-1.4518-3.0204-1.0566-6.0618-1.0442-9.2733-0.94954-0.72364 0.0238-1.449 0.0165-2.1709 0.0715-3.062 0.23352-6.1891 0.94332-8.971 2.2694-0.59268 0.28251-1.1445 0.64381-1.7167 0.96571-0.51616 0.33589-1.0499 0.64626-1.5485 1.0077-1.5617 1.132-2.8427 2.5981-3.9086 4.1943z" style="fill:#ffffff;stroke-linecap:round;stroke-linejoin:round;stroke-width:18;stroke:#ffffff"/>
  <path d="m36.444 115.45c0.033 0.84212 0.0217 1.685 0.0178 2.5275-0.0123 0.72543-4e-3 1.4508-4e-3 2.1762-1e-3 0.4799-7.1e-4 0.2429-3e-3 0.71106h5.3923v0c-2e-3 -0.46816-1e-3 -0.23116-2e-3 -0.71106 3.3e-4 -0.7254 9e-3 -1.4508-4e-3 -2.1762-4e-3 -0.84245-0.0152-1.6853 0.0179-2.5275z" style="fill:#ffffff;stroke-linecap:round;stroke-linejoin:round;stroke-width:19.085;stroke:#ffffff"/>
  <path d="m28.054 33.47c0.92485-1.6038 2.2008-2.991 3.7012-4.0767 0.48038-0.34763 0.99292-0.6485 1.4894-0.97276 0.56332-0.31459 1.1059-0.66962 1.69-0.94379 2.7539-1.2927 5.8655-1.9482 8.8893-2.133 0.72879-0.0445 1.4601-0.0252 2.1901-0.0378-0.51521 0.0364-1.871-0.29191-1.5456 0.10923 0.39702 0.4895 1.252 0.15851 1.8686 0.28895 0.58163 0.12304 1.156 0.28344 1.7204 0.47025 0.95574 0.31636 2.2186 0.87391 3.0919 1.3814 0.50426 0.29301 0.97344 0.64261 1.4602 0.96391 2.1588 1.7005 4.1096 3.8341 5.4171 6.269 0.21797 0.40591 0.39371 0.83311 0.59057 1.2497 0.87838 2.1295 1.2239 4.3909 1.3913 6.6711 0.0315 1.3373 0.0274 2.6838-0.22991 4.0022-0.15373 0.78773-0.34979 1.3902-0.57523 2.1584-0.62197 1.918-1.4754 3.74-2.4966 5.4744-0.75655 1.0914-1.474 2.2237-2.3249 3.2467-0.55927 0.67241-1.0313 1.1174-1.6569 1.7486-2.1132 2.0952-4.5622 3.7841-7.0066 5.4603-1.8502 1.2863-3.8231 2.3878-5.6329 3.7317-1.2331 1.0905-1.6359 2.7042-1.9728 4.2511-0.44154 2.4689-0.51976 4.9833-0.61876 7.484-0.0925 2.0898-0.10691 4.181-0.1165 6.2723-0.0521 1.3508-0.16354 2.6982-0.24268 4.0476l3.9113 0.0181v0c0.0463-1.3556 0.14076-2.7091 0.16885-4.0654-6e-3 -2.0862-4e-3 -4.1729 0.0414-6.2586 0.0862-2.4811 0.20906-4.9696 0.68857-7.4118 0.35403-1.4771 0.77182-2.9814 2.0023-3.9785 1.764-1.3433 3.676-2.4752 5.5034-3.7282 2.4521-1.6988 4.8889-3.4326 7.0272-5.5262 0.75597-0.74273 1.0715-1.0095 1.7202-1.796 0.85535-1.037 1.5771-2.1836 2.3316-3.2929 1.0248-1.763 1.8672-3.6202 2.4763-5.5696 0.23058-0.8049 0.41309-1.383 0.58028-2.2063 0.27382-1.3483 0.28914-2.7202 0.2449-4.0906-0.18269-2.3294-0.5646-4.6328-1.4627-6.8069-0.20044-0.4299-0.3761-0.87224-0.60132-1.2897-0.99245-1.8395-2.6213-3.8382-4.1295-5.2738-0.42872-0.40811-0.90208-0.7666-1.3531-1.1499-0.48415-0.33666-0.94835-0.70399-1.4524-1.01-0.84621-0.51364-2.1908-1.1267-3.1202-1.4518-3.0204-1.0566-6.0618-1.0442-9.2733-0.94954-0.72364 0.0238-1.449 0.0165-2.1709 0.0715-3.062 0.23352-6.1891 0.94332-8.971 2.2694-0.59268 0.28251-1.1445 0.64381-1.7167 0.96571-0.51616 0.33589-1.0499 0.64626-1.5485 1.0077-1.5617 1.132-2.8427 2.5981-3.9086 4.1943z" style="fill:#ffffff;stroke-linecap:round;stroke-linejoin:round;stroke-width:18;stroke:#ffffff"/>
 </g>
</svg>
