<?xml version="1.0" encoding="UTF-8"?>
<!-- Created with Inkscape (http://www.inkscape.org/) -->
<svg width="151.83mm" height="151.83mm" version="1.1" viewBox="0 0 151.83 151.83" xmlns="http://www.w3.org/2000/svg">
 <g transform="translate(50.434 2.4895)">
  <circle cx="25.479" cy="73.424" r="67.182" style="fill:var(--chess-brilliant-color);stroke-linecap:round;stroke-linejoin:round;stroke-width:17.463;stroke:var(--chess-brilliant-color)"/>
  <path d="m42.034 116.09c0.0241 0.8097 0.0159 1.6201 0.013 2.4301-9e-3 0.69749-3e-3 1.395-3e-3 2.0924-1e-3 0.46143-5.19e-4 0.23355-2e-3 0.68368h3.9417v0c-2e-3 -0.45013-1e-3 -0.22225-2e-3 -0.68368 2.5e-4 -0.69747 6e-3 -1.3949-3e-3 -2.0924-3e-3 -0.81-0.0111-1.6204 0.013-2.4301z" style="fill:#ffffff;stroke-linecap:round;stroke-linejoin:round;stroke-width:16;stroke:#ffffff"/>
  <path d="m5.4696 116.1c0.0241 0.8097 0.0159 1.6201 0.013 2.4301-9e-3 0.69749-3e-3 1.395-3e-3 2.0924-1e-3 0.46143-5.2e-4 0.23355-2e-3 0.68368h3.9417v0c-2e-3 -0.45013-1e-3 -0.22225-2e-3 -0.68368 2.5e-4 -0.69747 6e-3 -1.3949-3e-3 -2.0924-3e-3 -0.81-0.0111-1.6204 0.013-2.4301z" style="fill:#ffffff;stroke-linecap:round;stroke-linejoin:round;stroke-width:16;stroke:#ffffff"/>
  <path d="m42.654 27.801c0.071 1.9722 0.0581 3.9464 0.0923 5.9195 0.0696 3.2741 1e-3 6.5463-0.0994 9.8186-0.0854 2.9169-0.12818 5.8351-0.1554 8.753-7e-3 2.6105-0.0896 5.2198-0.15514 7.8294-0.0588 2.3901-0.11519 4.7804-0.13762 7.1712 0.01 1.9595-0.0855 3.9167-0.15202 5.8746-0.0685 1.8857-0.10516 3.7726-0.11642 5.6594 6e-3 1.3686-0.12755 2.7327-0.21917 4.0971-0.053 0.80675-0.081 1.6152-0.0868 2.4237-5e-3 0.71113-0.0224 1.4208 0.0685 2.1271 0.13692 0.76704 0.14742 1.547 0.21559 2.3211 0.0918 0.80054 0.16633 1.6021 0.20636 2.4069 0.0261 0.65143 0.0193 1.3035 0.0237 1.9552 0.0217 0.3204 0.0711 0.63787 0.11545 0.95564l3.9464-0.0559v0c-0.0436-0.29941-0.0928-0.59843-0.11667-0.9003 2e-3 -0.65789-9e-3 -1.3158-0.0348-1.9732-0.0365-0.81132-0.12293-1.6174-0.22654-2.4227-0.0689-0.78017-0.0381-1.5694-0.18333-2.3421-0.10633-0.68694-0.0837-1.3747-0.0754-2.0684 7e-3 -0.80176 0.0115-1.6036 0.0517-2.4047 0.0644-1.3719 0.18626-2.7427 0.16361-4.1171 0.0105-1.8829 0.0156-3.766 0.0792-5.6481 0.0724-1.9617 0.21454-3.9219 0.16752-5.8862 2e-3 -2.3878-5e-3 -4.7759 0.0576-7.1632 0.0728-2.6122 0.22767-5.2226 0.17565-7.837 8e-3 -2.9154 0.0274-5.8308 0.10956-8.7452 0.0773-3.276 0.1366-6.5516 0.134-9.8287 0.0342-1.9731 0.0213-3.9472 0.0923-5.9195z" style="fill:#ffffff;stroke-linecap:round;stroke-linejoin:round;stroke-width:16;stroke:#ffffff"/>
  <path d="m6.0894 27.816c0.071 1.9722 0.0581 3.9464 0.0923 5.9195 0.0696 3.2741 1e-3 6.5463-0.0994 9.8186-0.0854 2.9169-0.12818 5.8351-0.1554 8.753-7e-3 2.6105-0.0896 5.2198-0.15514 7.8294-0.0588 2.3901-0.11519 4.7804-0.13762 7.1712 0.01 1.9595-0.0855 3.9167-0.15202 5.8746-0.0685 1.8857-0.10516 3.7726-0.11642 5.6594 6e-3 1.3686-0.12755 2.7327-0.21917 4.0971-0.053 0.80675-0.081 1.6152-0.0868 2.4237-5e-3 0.71113-0.0224 1.4208 0.0685 2.1271 0.13692 0.76704 0.14742 1.547 0.21559 2.3211 0.0918 0.80054 0.16633 1.6021 0.20636 2.4069 0.0261 0.65143 0.0193 1.3035 0.0237 1.9552 0.0217 0.3204 0.0711 0.63787 0.11545 0.95564l3.9464-0.0559v0c-0.0436-0.29941-0.0928-0.59843-0.11667-0.9003 2e-3 -0.65789-9e-3 -1.3158-0.0348-1.9732-0.0365-0.81132-0.12293-1.6174-0.22654-2.4227-0.0689-0.78017-0.0381-1.5694-0.18333-2.3421-0.10633-0.68694-0.0837-1.3747-0.0754-2.0684 7e-3 -0.80176 0.0115-1.6036 0.0517-2.4047 0.0644-1.3719 0.18626-2.7427 0.16361-4.1171 0.0105-1.8829 0.0156-3.766 0.0792-5.6481 0.0724-1.9617 0.21454-3.9219 0.16752-5.8862 2e-3 -2.3878-5e-3 -4.7759 0.0576-7.1632 0.0728-2.6122 0.22767-5.2226 0.17565-7.837 8e-3 -2.9154 0.0274-5.8308 0.10956-8.7452 0.0773-3.276 0.1366-6.5516 0.134-9.8287 0.0342-1.9731 0.0213-3.9472 0.092301-5.9195z" style="fill:#ffffff;stroke-linecap:round;stroke-linejoin:round;stroke-width:16;stroke:#ffffff"/>
 </g>
</svg>
