<?xml version="1.0" encoding="UTF-8"?>
<!-- Created with Inkscape (http://www.inkscape.org/) -->
<svg width="151.83mm" height="151.83mm" version="1.1" viewBox="0 0 151.83 151.83" xmlns="http://www.w3.org/2000/svg">
 <g transform="translate(50.434 2.4895)">
  <circle cx="25.479" cy="73.424" r="67.182" style="fill:var(--chess-dubious-color);stroke-linecap:round;stroke-linejoin:round;stroke-width:17.463;stroke:var(--chess-dubious-color)"/>
  <path d="m-22.153 84.459c0.5792-2.1992 1.3004-4.3574 2.0449-6.5051 1.2393-3.5831 2.7764-7.0378 4.6456-10.334 1.2332-2.0321 2.5874-4.0212 4.2862-5.6987 1.067-1.0536 1.444-1.2709 2.64-2.1635 2.291-1.4694 4.8301-2.6815 7.511-3.2447 0.50091-0.10522 1.0122-0.15249 1.5184-0.22873 1.8291-0.3016 4.4356 0.37943 7.2709 1.4926 3.7166 1.6082 6.747 4.2774 9.61 7.0743 2.8161 2.8756 5.4622 5.9119 8.0198 9.0178 2.5138 3.1767 5.1459 6.2492 7.9435 9.1784 1.5503 1.5214 3.0676 3.0993 4.8316 4.3802 1.0724 0.7787 1.3565 0.89183 2.5119 1.536 2.835 1.2481 5.9296 1.6605 8.9997 1.7733 3.1851 0.23726 6.1231-0.38814 9.0698-1.4885 2.0225-0.76143 3.7391-2.0371 5.3442-3.4533 1.7975-1.6805 3.1731-3.7184 4.4213-5.821 1.5608-2.7365 2.7361-5.6637 3.8685-8.596 0.73047-1.9488 1.4-3.9198 2.073-5.889l-1.9998-0.06545v0c-0.66299 1.9678-1.3234 3.9375-2.0548 5.8812-1.1372 2.9225-2.3153 5.8402-3.889 8.5615-1.2501 2.0845-2.6315 4.1017-4.4323 5.757-1.6048 1.3941-3.3212 2.6399-5.3354 3.3802-1.0921 0.40039-2.1745 0.76954-3.3134 1.0185-0.40148 0.08771-0.80473 0.16986-1.2114 0.22933-0.41197 0.06024-0.8456 0.0031-1.2423 0.1295-0.21724 0.06923 0.45482 0.03267 0.68223 0.04891-3.0626-0.0825-6.151-0.47671-8.9944-1.6787-1.1482-0.62674-1.4432-0.74308-2.5103-1.5044-1.7738-1.2656-3.2972-2.836-4.8532-4.3496-2.8041-2.9192-5.4478-5.9793-7.949-9.163-2.5563-3.1166-5.2109-6.1539-8.0285-9.0383-2.8625-2.8115-5.885-5.5081-9.5947-7.1541-1.4461-0.58539-1.693-0.74055-3.1807-1.1317-2.6181-0.68844-5.3497-0.64012-8.0306-0.40638-0.50705 0.08364-1.0195 0.13958-1.5212 0.25092-2.684 0.59564-5.2228 1.8229-7.5094 3.3201-1.2039 0.91362-1.5681 1.1254-2.6415 2.1999-1.6947 1.6966-3.0474 3.6988-4.2798 5.7441-1.8665 3.3109-3.4004 6.7795-4.6566 10.369-0.76092 2.1592-1.4938 4.329-2.1376 6.5264z" style="fill:#ffffff;stroke-linecap:round;stroke-linejoin:round;stroke-miterlimit:2;stroke-width:16;stroke:#ffffff"/>
 </g>
</svg>
