<?xml version="1.0" encoding="UTF-8"?>
<!-- Created with Inkscape (http://www.inkscape.org/) -->
<svg width="161.83mm" height="161.83mm" version="1.1" viewBox="0 0 161.83 161.83" xmlns="http://www.w3.org/2000/svg">
 <g transform="translate(55.434 7.4895)">
  <circle cx="25.479" cy="73.424" r="67.182" style="fill:var(--chess-dubious-color);stroke-linecap:round;stroke-linejoin:round;stroke-width:17.463;stroke:var(--chess-dubious-color)"/>
  <path d="m-21.039 73.318c0.95198-2.1536 2.271-4.1203 3.6004-6.0542 1.3548-1.9068 2.8941-3.6783 4.7536-5.1099 1.3261-1.021 1.8134-1.2499 3.2628-2.1104 2.7781-1.5162 5.7499-2.7629 8.9261-3.0879 0.57297-0.0586 1.1506-0.0557 1.7259-0.0837 2.2335 0.30466 4.4281 0.79012 6.4728 1.7739 0.45219 0.21756 0.88248 0.47797 1.3237 0.71697 2.5399 1.5101 4.6338 3.5892 6.6078 5.7586 2.367 2.748 4.5355 5.6579 6.7947 8.4934 2.7183 3.4826 5.9039 6.5242 9.3193 9.3082 2.3793 1.7134 4.7422 3.6136 7.4682 4.7671 0.49132 0.20793 1.0071 0.35259 1.5106 0.52888 2.8955 0.79047 5.9075 0.89549 8.8886 0.65784 0.49065-0.0391 0.97171-0.15773 1.4576-0.23658 3.1064-0.60502 5.837-2.149 8.4599-3.8462 2.3306-1.526 4.3015-3.4735 6.1288-5.5568 1.5094-1.765 2.7928-3.7026 4.0424-5.6552 0.8659-1.3538 1.7037-2.7258 2.5104-4.1158 0 0-1.3506-0.071-1.3506-0.071v0c-0.80308 1.3874-1.6349 2.7585-2.496 4.1107-1.2422 1.948-2.5206 3.8797-4.0287 5.6357-1.8234 2.0718-3.7915 4.0064-6.116 5.5212-2.62 1.6876-5.3517 3.2116-8.4555 3.7914-0.48534 0.0749-0.97415 0.13004-1.456 0.22469-0.0618 0.0121-0.10126 0.0905-0.16416 0.0935-2.0586 0.10011-4.126-0.22644-6.1172-0.71594-0.50262-0.17067-1.0175-0.30873-1.5078-0.51201-2.7344-1.1336-5.1018-3.0348-7.4881-4.7363-3.4175-2.7697-6.6055-5.7982-9.3133-9.2806-2.2553-2.8358-4.4184-5.7466-6.7712-8.5035-1.9754-2.1829-4.0746-4.2715-6.6139-5.8023-0.44195-0.24314-0.87267-0.50792-1.3258-0.72942-2.8379-1.3872-5.9301-1.8983-9.0731-1.8185-0.57526 0.0325-1.1531 0.0345-1.7258 0.0975-3.1767 0.34949-6.1458 1.6139-8.9232 3.1381-1.4542 0.86938-1.9419 1.1-3.2713 2.131-1.8625 1.4446-3.4038 3.2284-4.7635 5.1442-1.3417 1.9496-2.6676 3.9309-3.6654 6.0838z" style="fill:#ffffff;stroke-linecap:round;stroke-linejoin:round;stroke-miterlimit:2;stroke-width:24;stroke:#ffffff"/>
 </g>
</svg>
