<?xml version="1.0" encoding="UTF-8"?>
<!-- Created with Inkscape (http://www.inkscape.org/) -->
<svg width="151.83mm" height="151.83mm" version="1.1" viewBox="0 0 151.83 151.83" xmlns="http://www.w3.org/2000/svg">
 <g transform="translate(50.434 2.4895)">
  <circle cx="25.479" cy="73.424" r="67.182" style="fill:var(--chess-dubious-color);stroke-linecap:round;stroke-linejoin:round;stroke-width:17.463;stroke:var(--chess-dubious-color)"/>
  <path d="m42.594 115.47c0.0241 0.8097 0.0159 1.6201 0.013 2.4301-9e-3 0.69749-3e-3 1.395-3e-3 2.0924-1e-3 0.46143-5.19e-4 0.23355-2e-3 0.68368h3.9417v0c-2e-3 -0.45013-1e-3 -0.22225-2e-3 -0.68368 2.5e-4 -0.69747 6e-3 -1.3949-3e-3 -2.0924-3e-3 -0.81-0.0111-1.6204 0.013-2.4301z" style="fill:#ffffff;stroke-linecap:round;stroke-linejoin:round;stroke-width:16;stroke:#ffffff"/>
  <path d="m6.0301 115.49c0.0241 0.8097 0.0159 1.6201 0.013 2.4301-9e-3 0.69749-3e-3 1.395-3e-3 2.0924-1e-3 0.46143-5.2e-4 0.23355-2e-3 0.68368h3.9417v0c-2e-3 -0.45013-1e-3 -0.22225-2e-3 -0.68368 2.5e-4 -0.69747 6e-3 -1.3949-3e-3 -2.0924-3e-3 -0.81-0.0111-1.6204 0.013-2.4301z" style="fill:#ffffff;stroke-linecap:round;stroke-linejoin:round;stroke-width:16;stroke:#ffffff"/>
  <path d="m43.214 27.185c0.071 1.9722 0.0581 3.9464 0.0923 5.9195 0.0696 3.2741 1e-3 6.5463-0.0994 9.8186-0.0854 2.9169-0.12818 5.8351-0.1554 8.753-7e-3 2.6105-0.0896 5.2198-0.15514 7.8294-0.0588 2.3901-0.11519 4.7804-0.13762 7.1712 0.01 1.9595-0.0855 3.9167-0.15202 5.8746-0.0685 1.8857-0.10516 3.7726-0.11642 5.6594 6e-3 1.3686-0.12755 2.7327-0.21917 4.0971-0.053 0.80675-0.081 1.6152-0.0868 2.4237-5e-3 0.71113-0.0224 1.4208 0.0685 2.1271 0.13692 0.76704 0.14742 1.547 0.21559 2.3211 0.0918 0.80054 0.16633 1.6021 0.20636 2.4069 0.0261 0.65143 0.0193 1.3035 0.0237 1.9552 0.0217 0.3204 0.0711 0.63787 0.11545 0.95564l3.9464-0.0559v0c-0.0436-0.29941-0.0928-0.59843-0.11667-0.9003 2e-3 -0.65789-9e-3 -1.3158-0.0348-1.9732-0.0365-0.81132-0.12293-1.6174-0.22654-2.4227-0.0689-0.78017-0.0381-1.5694-0.18333-2.3421-0.10633-0.68694-0.0837-1.3747-0.0754-2.0684 7e-3 -0.80176 0.0115-1.6036 0.0517-2.4047 0.0644-1.3719 0.18626-2.7427 0.16361-4.1171 0.0105-1.8829 0.0156-3.766 0.0792-5.6481 0.0724-1.9617 0.21454-3.9219 0.16752-5.8862 2e-3 -2.3878-5e-3 -4.7759 0.0576-7.1632 0.0728-2.6122 0.22767-5.2226 0.17565-7.837 8e-3 -2.9154 0.0274-5.8308 0.10956-8.7452 0.0773-3.276 0.1366-6.5516 0.134-9.8287 0.0342-1.9731 0.0213-3.9472 0.0923-5.9195z" style="fill:#ffffff;stroke-linecap:round;stroke-linejoin:round;stroke-width:16;stroke:#ffffff"/>
  <path d="m-3.0437 37.352c0.92485-1.6038 2.2008-2.991 3.7012-4.0767 0.48038-0.34763 0.99292-0.6485 1.4894-0.97276 0.56332-0.31459 1.1059-0.66962 1.69-0.94379 2.7539-1.2927 5.8655-1.9482 8.8893-2.133 0.72879-0.0445 1.4601-0.0252 2.1901-0.0378-0.51521 0.0364-1.871-0.29191-1.5456 0.10923 0.39702 0.4895 1.252 0.15851 1.8686 0.28895 0.58163 0.12304 1.156 0.28344 1.7204 0.47025 0.95574 0.31636 2.2186 0.87391 3.0919 1.3814 0.50426 0.29301 0.97344 0.64261 1.4602 0.96391 2.1588 1.7005 4.1096 3.8341 5.4171 6.269 0.21797 0.40591 0.39371 0.83311 0.59057 1.2497 0.87838 2.1295 1.2239 4.3909 1.3913 6.6711 0.0315 1.3373 0.0274 2.6838-0.22991 4.0022-0.15373 0.78773-0.34979 1.3902-0.57523 2.1584-0.62197 1.918-1.4754 3.74-2.4966 5.4744-0.75655 1.0914-1.474 2.2237-2.3249 3.2467-0.55927 0.67241-1.0313 1.1174-1.6569 1.7486-2.1132 2.0952-4.5622 3.7841-7.0066 5.4603-1.8502 1.2863-3.8231 2.3878-5.6329 3.7317-1.2331 1.0905-1.6359 2.7042-1.9728 4.2511-0.44154 2.4689-0.51976 4.9833-0.61876 7.484-0.0925 2.0898-0.10691 4.181-0.1165 6.2723-0.0521 1.3508-0.16354 2.6982-0.24268 4.0476l3.9113 0.0181v0c0.0463-1.3556 0.14076-2.7091 0.16885-4.0654-6e-3 -2.0862-4e-3 -4.1729 0.0414-6.2586 0.0862-2.4811 0.20906-4.9696 0.68857-7.4118 0.35403-1.4771 0.77182-2.9814 2.0023-3.9785 1.764-1.3433 3.676-2.4752 5.5034-3.7282 2.4521-1.6988 4.8889-3.4326 7.0272-5.5262 0.75597-0.74273 1.0715-1.0095 1.7202-1.796 0.85535-1.037 1.5771-2.1836 2.3316-3.2929 1.0248-1.763 1.8672-3.6202 2.4763-5.5696 0.23058-0.8049 0.41309-1.383 0.58028-2.2063 0.27382-1.3483 0.28914-2.7202 0.2449-4.0906-0.18269-2.3294-0.5646-4.6328-1.4627-6.8069-0.20044-0.4299-0.3761-0.87224-0.60132-1.2897-0.99245-1.8395-2.6213-3.8382-4.1295-5.2738-0.42872-0.40811-0.90208-0.7666-1.3531-1.1499-0.48415-0.33666-0.94835-0.70399-1.4524-1.01-0.84621-0.51364-2.1908-1.1267-3.1202-1.4518-3.0204-1.0566-6.0618-1.0442-9.2733-0.94954-0.72364 0.0238-1.449 0.0165-2.1709 0.0715-3.062 0.23352-6.1891 0.94332-8.971 2.2694-0.59268 0.28251-1.1445 0.64381-1.7167 0.96571-0.51616 0.33589-1.0499 0.64626-1.5485 1.0077-1.5617 1.132-2.8427 2.5981-3.9086 4.1943z" style="fill:#ffffff;stroke-linecap:round;stroke-linejoin:round;stroke-width:16;stroke:#ffffff"/>
 </g>
</svg>
