<?xml version="1.0" encoding="UTF-8"?>
<!-- Created with Inkscape (http://www.inkscape.org/) -->
<svg width="47.469mm" height="47.451mm" version="1.1" viewBox="0 0 47.469 47.451" xmlns="http://www.w3.org/2000/svg">
 <g transform="translate(-88.105 -183.08)">
  <rect x="103.38" y="198.32" width="16.972" height="16.972" style="fill:#ffffff;stroke-linecap:round;stroke-linejoin:round;stroke-miterlimit:2;stroke-width:5.29;stroke:#ffffff"/>
  <path d="m109.95 228.75c-0.75007 0.0579-1.4673-0.11996-2.1825-0.32221-1.2423-0.36781-2.4402-0.85837-3.6065-1.4188-1.3035-0.62365-2.471-1.4641-3.5793-2.382-1.0792-0.88309-1.9191-1.9747-2.619-3.1705-0.74324-1.265-1.097-2.6747-1.343-4.1062-0.23398-1.6311-0.25182-3.2856-0.24822-4.9307 0.01212-1.4108 0.05402-2.821 0.09642-4.2311 0.02991-0.87977 0.04286-1.76 0.07829-2.6396 0.07019-2.165-1.2409-0.82195-5.0427-0.8268-0.08299-1e-4 -0.06019 0.1548-0.09527 0.23001-0.03109 0.0667-0.06867 0.13008-0.10301 0.19513-0.38858 0.58053-0.73565 1.1862-1.1172 1.7711-0.33767 0.52886-0.70478 1.0373-1.0876 1.534l4.8489 0.31202v0c0.37398-0.5143 0.74051-1.034 1.0926-1.5636 0.38722-0.58534 0.75566-1.1854 1.1968-1.7327 0.03899-0.0315 0.06696-0.0911 0.11697-0.0945 0.03657-2e-3 0.11022 0.083 0.07359 0.0817-1.6287-0.0565-3.2556-0.15832-4.8828-0.24856-0.01688-1e-3 0.0364-0.033 0.04675-0.0196 0.0429 0.0553 0.0529 0.33846 0.05432 0.35501 0.0114 0.87944 0.0016 1.7589 0.0016 2.6384-0.0037 1.4132-0.01487 2.8264-0.02127 4.2397 0.0082 1.6701 0.01349 3.3494 0.23534 5.0072 0.23166 1.4847 0.57818 2.9558 1.3187 4.2791 0.7072 1.2465 1.5362 2.4082 2.6439 3.3359 1.1099 0.94785 2.2693 1.8362 3.578 2.4969 1.1522 0.58911 2.3387 1.1021 3.571 1.5016 0.67131 0.22339 1.3527 0.49347 2.0711 0.4857z" style="fill:#ffffff;stroke-linecap:round;stroke-linejoin:round;stroke-miterlimit:2;stroke-width:2;stroke:#ffffff"/>
  <path d="m113.72 184.85c0.75007-0.0579 1.4673 0.11996 2.1825 0.32221 1.2423 0.36781 2.4402 0.85837 3.6065 1.4188 1.3035 0.62365 2.471 1.4641 3.5793 2.382 1.0792 0.88309 1.9191 1.9747 2.619 3.1705 0.74325 1.265 1.097 2.6747 1.343 4.1062 0.23398 1.6311 0.25183 3.2856 0.24823 4.9307-0.0121 1.4108-0.054 2.821-0.0964 4.2311-0.0299 0.87977-0.0429 1.76-0.0783 2.6396-0.0702 2.165 1.2409 0.82195 5.0427 0.8268 0.083 1e-4 0.0602-0.1548 0.0953-0.23001 0.0311-0.0667 0.0687-0.13008 0.10301-0.19513 0.38858-0.58053 0.73564-1.1862 1.1172-1.7711 0.33766-0.52886 0.70478-1.0373 1.0876-1.534l-4.8489-0.31202v0c-0.37398 0.5143-0.74051 1.034-1.0926 1.5636-0.38722 0.58534-0.75567 1.1854-1.1968 1.7327-0.039 0.0315-0.067 0.0911-0.11696 0.0945-0.0366 2e-3 -0.11022-0.083-0.0736-0.0817 1.6287 0.0565 3.2556 0.15832 4.8828 0.24856 0.0169 1e-3 -0.0364 0.033-0.0468 0.0196-0.0429-0.0553-0.0529-0.33846-0.0543-0.35501-0.0114-0.87944-2e-3 -1.7589-2e-3 -2.6384 4e-3 -1.4132 0.0149-2.8264 0.0213-4.2397-8e-3 -1.6701-0.0135-3.3494-0.23533-5.0072-0.23167-1.4847-0.57819-2.9558-1.3187-4.2791-0.7072-1.2465-1.5362-2.4082-2.6439-3.3359-1.1099-0.94785-2.2693-1.8362-3.578-2.4969-1.1522-0.58911-2.3387-1.1021-3.571-1.5016-0.67131-0.22339-1.3527-0.49347-2.0711-0.4857z" style="fill:#ffffff;stroke-linecap:round;stroke-linejoin:round;stroke-miterlimit:2;stroke-width:2;stroke:#ffffff"/>
 </g>
</svg>
