<?xml version="1.0" encoding="UTF-8"?>
<!-- Created with Inkscape (http://www.inkscape.org/) -->
<svg width="151.83mm" height="151.83mm" version="1.1" viewBox="0 0 151.83 151.83" xmlns="http://www.w3.org/2000/svg">
 <g transform="translate(50.434 2.4895)">
  <circle cx="25.479" cy="73.424" r="67.182" style="fill:var(--chess-great-color);stroke-linecap:round;stroke-linejoin:round;stroke-width:17.463;stroke:var(--chess-great-color)"/>
  <path d="m22.835 117.32c0.03298 0.84212 0.02175 1.685 0.01778 2.5275-0.01232 0.72543-0.0043 1.4508-0.0043 2.1762-0.0014 0.4799-7.13e-4 0.2429-0.0026 0.71106h5.3923v0c-0.0025-0.46816-0.0012-0.23116-0.0025-0.71106 3.39e-4 -0.7254 0.0088-1.4508-0.0037-2.1762-0.0037-0.84245-0.01521-1.6853 0.01786-2.5275z" style="fill:#ffffff;stroke-linecap:round;stroke-linejoin:round;stroke-width:19.085;stroke:#ffffff"/>
  <path d="m30.428 27.46c-0.12511 1.347-0.27619 2.691-0.41397 4.0365-0.46477 4.5035-0.75908 9.0247-1.1053 13.54-0.48181 6.0586-1.008 12.113-1.5615 18.164-0.41712 4.6435-0.83902 9.2866-1.2692 13.929-0.28002 3.0839-0.55864 6.1682-0.80963 9.2551-0.13837 1.662-0.28516 3.3231-0.43165 4.9842l1.4611 0.0148v0c0.1379-1.662 0.28507-3.323 0.41938-4.9853 0.24057-3.0858 0.4984-6.1701 0.75959-9.2539 0.40144-4.6431 0.80226-9.2862 1.2035-13.929 0.53151-6.0536 1.0356-12.11 1.5443-18.166 0.38347-4.5146 0.70175-9.0378 1.2518-13.534 0.15878-1.3471 0.32453-2.6932 0.49556-4.0386z" style="fill:#ffffff;stroke-linecap:round;stroke-linejoin:round;stroke-miterlimit:2;stroke-width:20.354;stroke:#ffffff"/>
  <path d="m20.623 27.458c0.12512 1.3469 0.2762 2.691 0.41397 4.0365 0.46478 4.5035 0.75909 9.0247 1.1054 13.54 0.48181 6.0585 1.008 12.113 1.5615 18.164 0.41712 4.6435 0.83901 9.2866 1.2692 13.929 0.28002 3.0839 0.55866 6.1682 0.80964 9.255 0.13837 1.662 0.28515 3.3231 0.43165 4.9842l-1.4611 0.0148v0c-0.1379-1.662-0.28507-3.323-0.41938-4.9853-0.24057-3.0858-0.4984-6.1701-0.7596-9.2539-0.40145-4.6431-0.80226-9.2862-1.2035-13.929-0.53151-6.0536-1.0356-12.11-1.5443-18.166-0.38348-4.5146-0.70175-9.0378-1.2518-13.534-0.15878-1.3472-0.32453-2.6933-0.49556-4.0386z" style="fill:#ffffff;stroke-linecap:round;stroke-linejoin:round;stroke-miterlimit:2;stroke-width:20.354;stroke:#ffffff"/>
  <rect x="19.77" y="24.397" width="11.331" height=".41955" style="fill:#ffffff;stroke-linecap:round;stroke-linejoin:round;stroke-miterlimit:2;stroke-width:14.33;stroke:#ffffff"/>
 </g>
</svg>
