<?xml version="1.0" encoding="UTF-8"?>
<!-- Created with Inkscape (http://www.inkscape.org/) -->
<svg width="151.83mm" height="151.83mm" version="1.1" viewBox="0 0 151.83 151.83" xmlns="http://www.w3.org/2000/svg">
 <g transform="translate(50.434 2.4895)">
  <circle cx="25.479" cy="73.424" r="67.182" style="fill:var(--chess-miss-color);stroke-linecap:round;stroke-linejoin:round;stroke-width:17.463;stroke:var(--chess-miss-color)"/>
  <path d="m-2.0266 33.62c3.2377 4.4467 6.1082 9.1469 9.0713 13.775 5.0898 7.9948 10.304 15.912 15.473 23.856 4.0903 6.4211 8.1104 12.886 12.111 19.361 3.2796 5.2006 6.4916 10.442 9.689 15.692 1.2986 2.1468 2.4425 4.3793 3.6022 6.6008 0.08377 0.165 0.16755 0.33 0.25132 0.49499l3.9318-0.18553v0c-0.08909-0.16704-0.17817-0.33408-0.26726-0.50113-1.2517-2.2142-2.4448-4.4639-3.8149-6.6114-3.2952-5.2184-6.5168-10.482-9.8431-15.682-3.9836-6.506-8.0593-12.957-12.198-19.367-5.2264-7.8972-10.452-15.796-15.427-23.853-2.8824-4.6044-5.7053-9.2448-8.6297-13.823z" style="fill:#ffffff;stroke-linecap:round;stroke-linejoin:round;stroke-width:16;stroke:#ffffff"/>
  <path d="m51.829 33.754c-3.2377 4.4467-6.1082 9.1469-9.0713 13.775-5.0898 7.9948-10.304 15.912-15.473 23.856-4.0903 6.4211-8.1104 12.886-12.111 19.361-3.2796 5.2006-6.4916 10.442-9.689 15.692-1.2986 2.1468-2.4425 4.3793-3.6022 6.6008-0.083791 0.165-0.16755 0.33-0.25133 0.49498l-3.9318-0.18553v0c0.089097-0.16704 0.17818-0.33408 0.26727-0.50112 1.2517-2.2142 2.4448-4.4639 3.8149-6.6114 3.2952-5.2184 6.5168-10.482 9.8431-15.682 3.9836-6.506 8.0593-12.957 12.198-19.367 5.2264-7.8972 10.452-15.796 15.427-23.853 2.8824-4.6044 5.7053-9.2448 8.6297-13.823z" style="fill:#ffffff;stroke-linecap:round;stroke-linejoin:round;stroke-width:16;stroke:#ffffff"/>
 </g>
</svg>
