<?xml version="1.0" encoding="UTF-8"?>
<!-- Created with Inkscape (http://www.inkscape.org/) -->
<svg width="151.83mm" height="151.83mm" version="1.1" viewBox="0 0 151.83 151.83" xmlns="http://www.w3.org/2000/svg">
 <g transform="translate(50.434 2.4895)">
  <circle cx="25.479" cy="73.424" r="67.182" style="fill:var(--chess-miss-color);stroke-linecap:round;stroke-linejoin:round;stroke-width:17.463;stroke:var(--chess-miss-color)"/>
  <path d="m-1.3498 35.308c3.2342 4.4847 6.1015 9.2252 9.0614 13.893 5.0843 8.0632 10.293 16.048 15.456 24.06 4.0858 6.476 8.1016 12.996 12.098 19.527 3.276 5.2451 6.4845 10.531 9.6784 15.826 1.2972 2.1652 2.4398 4.4168 3.5983 6.6573 0.08368 0.16641 0.16737 0.33282 0.25105 0.49922l3.9275-0.18712v0c-0.08899-0.16847-0.17798-0.33694-0.26697-0.50541-1.2503-2.2331-2.4421-4.5021-3.8107-6.668-3.2916-5.2631-6.5097-10.572-9.8324-15.816-3.9793-6.5617-8.0505-13.068-12.185-19.533-5.2207-7.9648-10.441-15.931-15.41-24.057-2.8793-4.6438-5.6991-9.3239-8.6203-13.941z" style="fill:#ffffff;stroke-linecap:round;stroke-linejoin:round;stroke-width:16;stroke:#ffffff"/>
  <path d="m52.448 35.443c-3.2342 4.4847-6.1015 9.2252-9.0614 13.893-5.0842 8.0632-10.293 16.048-15.456 24.06-4.0858 6.476-8.1016 12.996-12.098 19.527-3.276 5.2451-6.4845 10.531-9.6784 15.826-1.2972 2.1652-2.4398 4.4168-3.5983 6.6573-0.0837 0.16641-0.16737 0.33282-0.25106 0.49922l-3.9275-0.18712v0c0.089-0.16847 0.17799-0.33694 0.26698-0.50541 1.2503-2.2331 2.4421-4.5021 3.8107-6.668 3.2916-5.2631 6.5097-10.572 9.8324-15.816 3.9793-6.5617 8.0505-13.068 12.185-19.533 5.2207-7.9648 10.441-15.931 15.41-24.057 2.8793-4.6438 5.6991-9.3239 8.6203-13.941z" style="fill:#ffffff;stroke-linecap:round;stroke-linejoin:round;stroke-width:16;stroke:#ffffff"/>
 </g>
</svg>
