<?xml version="1.0" encoding="UTF-8"?>
<!-- Created with Inkscape (http://www.inkscape.org/) -->
<svg width="167.96mm" height="167.96mm" version="1.1" viewBox="0 0 167.96 167.96" xmlns="http://www.w3.org/2000/svg">
 <circle cx="83.56" cy="83.969" r="69.832" style="fill:#d15e5e;stroke-width:15.5;stroke:#d15e5e"/>
 <g transform="translate(-4.0258 -3.6613)">
  <circle cx="88.007" cy="87.642" r="75.981" style="fill:none;stroke-width:16;stroke:#ffffff"/>
  <path d="m114.2 46.922c-2.058 3.4579-4.3673 6.7544-6.6547 10.062-4.0622 5.8369-8.4357 11.446-12.691 17.14-4.3264 5.8783-8.5962 11.797-13.025 17.599-2.6648 3.546-5.4681 6.9861-8.1388 10.528-0.95766 1.2699-2.2795 3.1094-3.2241 4.4151-2.24 3.1676-4.2964 6.4586-6.4269 9.6995-1.3099 1.9726-2.6512 3.9241-3.9364 5.913-0.83066 1.247-1.6775 2.484-2.5606 3.6945-0.55784 0.79232-1.156 1.5547-1.7085 2.3506-0.23602 0.27183-0.12535 0.13387-0.33306 0.41304l3.9481 0.25422v0c0.20518-0.27186 0.09842-0.12882 0.3198-0.42947 0.53905-0.78753 1.0967-1.5612 1.6396-2.346 0.87398-1.2186 1.7319-2.4487 2.5293-3.7194 1.2459-1.9884 2.543-3.9437 3.8134-5.9164 2.0791-3.2354 4.0851-6.5187 6.256-9.6941 1.0395-1.4808 2.0608-2.9534 3.1366-4.409 2.6261-3.5533 5.4085-6.9885 8.045-10.534 4.418-5.8079 8.6944-11.719 13.01-17.603 4.2741-5.7104 8.6683-11.332 12.806-17.143 2.3825-3.3436 4.762-6.6894 7.1186-10.051z" style="fill:#ffffff;stroke-linecap:round;stroke-linejoin:round;stroke-width:16;stroke:#ffffff"/>
  <path d="m61.873 47.081c2.058 3.4579 4.3673 6.7544 6.6547 10.062 4.0622 5.8369 8.4357 11.446 12.691 17.14 4.3264 5.8783 8.5962 11.797 13.025 17.599 2.6648 3.546 5.4681 6.9861 8.1388 10.528 0.95766 1.2699 2.2795 3.1094 3.2241 4.4151 2.24 3.1676 4.2964 6.4586 6.427 9.6995 1.3099 1.9726 2.6512 3.9241 3.9364 5.913 0.83065 1.247 1.6774 2.484 2.5606 3.6945 0.55784 0.79232 1.156 1.5547 1.7085 2.3506 0.23602 0.27183 0.12535 0.13387 0.33307 0.41304l-3.9481 0.25422v0c-0.20517-0.27186-0.0984-0.12882-0.3198-0.42947-0.53905-0.78753-1.0967-1.5612-1.6396-2.346-0.87398-1.2186-1.7319-2.4487-2.5293-3.7194-1.2459-1.9884-2.543-3.9437-3.8134-5.9164-2.0791-3.2354-4.0851-6.5187-6.256-9.6941-1.0395-1.4808-2.0608-2.9534-3.1366-4.409-2.6261-3.5533-5.4085-6.9885-8.045-10.534-4.418-5.8079-8.6944-11.719-13.01-17.603-4.2741-5.7104-8.6683-11.332-12.806-17.143-2.3825-3.3436-4.762-6.6894-7.1186-10.051z" style="fill:#ffffff;stroke-linecap:round;stroke-linejoin:round;stroke-width:16;stroke:#ffffff"/>
 </g>
</svg>
