<?xml version="1.0" encoding="UTF-8"?>
<!-- Created with Inkscape (http://www.inkscape.org/) -->
<svg width="161.83mm" height="161.83mm" version="1.1" viewBox="0 0 161.83 161.83" xmlns="http://www.w3.org/2000/svg">
 <g transform="translate(55.434 7.4895)">
  <circle cx="25.479" cy="73.424" r="67.182" style="fill:var(--chess-acceptable-color);stroke-linecap:round;stroke-linejoin:round;stroke-width:17.463;stroke:var(--chess-acceptable-color)"/>
  <path d="m-13.783 77.482c1.0191 2.446 2.1377 4.8517 3.2246 7.2686 1.8855 4.1703 3.8458 8.3059 5.7772 12.455 1.7427 3.7454 3.4765 7.4946 5.1763 11.26 0.58755 1.2861 1.1327 2.5939 1.7614 3.8612 0.2426 0.48902 0.58859 1.1858 0.9687 1.6104 0.14658 0.16373 0.33892 0.27984 0.50838 0.41976 1.1774 0.25419 1.208 0.32044 3.0206-0.0911 0.29303-0.0665 0.51123-0.31885 0.74462-0.50813 1.0766-0.8731 1.8826-1.982 2.7072-3.0806 2.7248-4.0028 5.1102-8.225 7.5598-12.399 3.5721-5.9622 7.5008-11.703 11.403-17.452 3.5551-5.2499 7.2481-10.406 11.076-15.46 3.145-4.0974 6.4545-8.0642 9.7751-12.019 2.8882-3.4318 5.8846-6.7697 8.9042-10.086 1.1953-1.3259 2.4261-2.6189 3.6558-3.9127l-1.7448-0.13244v0c-1.2207 1.2964-2.4413 2.593-3.6311 3.9181-3.0086 3.3226-6.0001 6.6618-8.8839 10.094-3.3128 3.9577-6.6121 7.929-9.7477 12.03-3.8127 5.0599-7.4875 10.223-11.037 15.471-3.9019 5.7616-7.8302 11.514-11.447 17.46-2.4602 4.1732-4.8571 8.3968-7.6289 12.374-0.83195 1.0771-1.6457 2.1888-2.7466 3.0157-0.23453 0.17618-0.90435 0.20726-0.75162 0.45769 0.20112 0.32975 0.77091 0.0847 1.1438 0.18533 0.18374 0.0496-0.38009-0.0203-0.57013-0.0305-0.17179-0.12226-0.3677-0.21629-0.51536-0.3668-0.39193-0.39949-0.75104-1.1038-0.99205-1.5766-0.64376-1.2627-1.1942-2.572-1.7906-3.8569-1.7203-3.7615-3.469-7.5095-5.214-11.26-1.9294-4.1458-3.8878-8.2784-5.7543-12.453-1.0657-2.406-2.1677-4.8018-3.1194-7.2551z" style="fill:#ffffff;stroke-linecap:round;stroke-linejoin:round;stroke-miterlimit:2;stroke-width:24;stroke:#ffffff"/>
 </g>
</svg>
