<?xml version="1.0" encoding="UTF-8"?>
<!-- Created with Inkscape (http://www.inkscape.org/) -->
<svg width="103.93mm" height="60.859mm" version="1.1" viewBox="0 0 103.93 60.859" xmlns="http://www.w3.org/2000/svg">
 <g transform="translate(-47.354 -81.762)" style="display:none">
  <path d="m59.302 125.83c-0.08063 0.31559-0.19964 0.61987-0.30738 0.92684-0.18247 0.50669-0.40284 0.99883-0.63284 1.4854-0.2134 0.48001-0.43417 0.95668-0.67056 1.4258-0.1647 0.3356-0.33256 0.66947-0.50119 1.0031-0.0213 0.0445-0.04258 0.089-0.06386 0.13351 0 0 1.962 0.087 1.962 0.087v0c0.02045-0.0434 0.04088-0.0868 0.06132-0.13016 0.16279-0.33372 0.32131-0.66946 0.48154-1.0044 0.22862-0.47228 0.4425-0.95122 0.65722-1.4299 0.23211-0.49319 0.45816-0.98983 0.64765-1.5013 0.12142-0.30931 0.23701-0.62068 0.35315-0.932z" style="fill:#ffffff;stroke-linecap:round;stroke-linejoin:round;stroke-miterlimit:2;stroke-width:5;stroke:#ffffff"/>
  <path d="m81.349 135.92c-0.11072 0.30451-0.25949 0.59289-0.40692 0.88076-0.20106 0.38873-0.40507 0.77595-0.60338 1.1661-0.1593 0.30831-0.32311 0.61411-0.48412 0.92149-0.12974 0.249-0.25286 0.50117-0.36989 0.75638l1.9669 0.0846v0c0.11526-0.25157 0.23457-0.50114 0.36138-0.74713 0.15835-0.30792 0.32022-0.61397 0.47426-0.92409 0.19569-0.38967 0.39247-0.77886 0.59626-1.1644 0.15528-0.29576 0.30769-0.59303 0.45433-0.89315z" style="fill:#ffffff;stroke-linecap:round;stroke-linejoin:round;stroke-miterlimit:2;stroke-width:5;stroke:#ffffff"/>
  <path d="m139.26 126.22c0.0806 0.31559 0.19964 0.61987 0.30738 0.92684 0.18247 0.50669 0.40284 0.99883 0.63284 1.4854 0.2134 0.48001 0.43417 0.95668 0.67056 1.4258 0.1647 0.3356 0.33256 0.66947 0.5012 1.0031 0.0213 0.0445 0.0426 0.089 0.0639 0.13351 0 0-1.962 0.087-1.962 0.087v0c-0.0204-0.0434-0.0409-0.0868-0.0613-0.13016-0.16279-0.33372-0.32131-0.66946-0.48154-1.0044-0.22861-0.47228-0.44249-0.95122-0.65722-1.4299-0.23211-0.49319-0.45816-0.98983-0.64764-1.5013-0.12143-0.30931-0.23702-0.62068-0.35316-0.932z" style="fill:#ffffff;stroke-linecap:round;stroke-linejoin:round;stroke-miterlimit:2;stroke-width:5;stroke:#ffffff"/>
  <path d="m117.21 136.31c0.11072 0.30451 0.25949 0.59289 0.40692 0.88076 0.20107 0.38873 0.40507 0.77595 0.60338 1.1661 0.1593 0.30831 0.32311 0.61411 0.48412 0.92149 0.12974 0.249 0.25286 0.50117 0.36989 0.75638l-1.9669 0.0846v0c-0.11526-0.25157-0.23457-0.50114-0.36138-0.74713-0.15835-0.30792-0.32022-0.61397-0.47426-0.92409-0.19568-0.38967-0.39246-0.77886-0.59625-1.1644-0.15528-0.29576-0.30769-0.59303-0.45434-0.89315z" style="fill:#ffffff;stroke-linecap:round;stroke-linejoin:round;stroke-miterlimit:2;stroke-width:5;stroke:#ffffff"/>
 </g>
 <g transform="translate(-47.354 -81.762)">
  <path d="m50.248 116.74c0.5603 0.94232 1.2997 1.7582 2.0381 2.5617 2.1357 2.1206 4.6472 3.8002 7.1633 5.4287 2.7773 1.7622 5.6607 3.3458 8.5833 4.8514 2.7944 1.3909 5.7692 2.3456 8.7554 3.2242 2.7138 0.80087 5.4745 1.4193 8.255 1.9353 2.5697 0.45811 5.1737 0.68016 7.773 0.89084 2.5787 0.21748 5.1662 0.19856 7.7513 0.19492 1.3055-5e-3 2.6107-0.0464 3.9136-0.12791 0.9457-0.0676 1.8915-0.13342 2.838-0.18898 0.46113-0.0269 0.92254-0.0485 1.384-0.0687l-1.9384-0.29797v0c-0.4579 0.0217-0.91573 0.0449-1.3733 0.0732-0.93943 0.0584-1.8781 0.12711-2.8171 0.19211-1.2928 0.0748-2.5872 0.11766-3.8823 0.12219 0.35046 2e-3 0.70097-1e-3 1.0514 5e-3 0.29854 5e-3 -0.5972 1e-3 -0.89577-2e-3 -1.4012-0.0174-2.8013-0.082-4.1992-0.17702-2.6048-0.20382-5.2144-0.41859-7.7904-0.86925-2.7873-0.5082-5.5545-1.1209-8.2761-1.9137-2.9826-0.866-5.9522-1.8139-8.7453-3.191-2.9325-1.4942-5.8277-3.0648-8.6075-4.8306-2.4863-1.6086-4.9752-3.2655-7.0584-5.3902-0.70881-0.7854-1.4202-1.5837-1.936-2.5144z" style="fill:#ffffff;stroke-linecap:round;stroke-linejoin:round;stroke-miterlimit:2;stroke-width:5;stroke:#ffffff"/>
  <path d="m148.5 116.72c-0.56029 0.94232-1.2997 1.7582-2.0381 2.5617-2.1357 2.1206-4.6472 3.8002-7.1633 5.4287-2.7772 1.7622-5.6607 3.3458-8.5832 4.8514-2.7944 1.3909-5.7692 2.3456-8.7554 3.2242-2.7138 0.80087-5.4745 1.4193-8.255 1.9353-2.5697 0.45811-5.1737 0.68016-7.773 0.89084-2.5787 0.21748-5.1662 0.19856-7.7513 0.19492-1.3055-5e-3 -2.6107-0.0464-3.9136-0.12791-0.9457-0.0676-1.8915-0.13342-2.838-0.18898-0.46113-0.0269-0.92254-0.0485-1.384-0.0687l1.9384-0.29797v0c0.4579 0.0217 0.91573 0.0449 1.3733 0.0732 0.93943 0.0584 1.8781 0.12711 2.8171 0.19211 1.2928 0.0748 2.5872 0.11766 3.8823 0.12219-0.35046 2e-3 -0.70097-1e-3 -1.0514 5e-3 -0.29855 5e-3 0.59719 1e-3 0.89576-2e-3 1.4012-0.0174 2.8013-0.082 4.1992-0.17702 2.6048-0.20382 5.2144-0.41859 7.7904-0.86925 2.7873-0.5082 5.5545-1.1209 8.2761-1.9137 2.9826-0.866 5.9522-1.8139 8.7453-3.191 2.9325-1.4942 5.8278-3.0648 8.6075-4.8306 2.4863-1.6086 4.9752-3.2655 7.0584-5.3902 0.70881-0.7854 1.4202-1.5837 1.936-2.5144z" style="fill:#ffffff;stroke-linecap:round;stroke-linejoin:round;stroke-miterlimit:2;stroke-width:5;stroke:#ffffff"/>
 </g>
 <g transform="translate(-47.354 -81.762)">
  <ellipse cx="99.577" cy="111.47" rx="12.117" ry="11.707" style="fill:none;stroke-linecap:round;stroke-linejoin:round;stroke-miterlimit:2;stroke-width:5;stroke:#ffffff"/>
 </g>
 <g transform="translate(-47.354 -81.762)">
  <path d="m51.839 116.14c0.0172-0.84685 0.1401-1.6866 0.26598-2.5227 0.1775-1.6087 0.75734-2.8694 1.5226-4.2769 1.327-2.2515 3.1227-4.1726 4.9293-6.0424 2.3251-2.2981 5.2085-3.8785 8.0268-5.4801 2.8441-1.6449 5.8468-2.9662 8.912-4.1345 2.9156-1.0656 5.9153-1.8753 8.9295-2.6058 2.6864-0.64898 5.4009-1.1645 8.1292-1.6004 2.1501-0.32406 4.3201-0.47822 6.4929-0.5114-0.29572 0.0027-1.1714-0.07383-0.88717 8e-3 0.32311 0.09306 0.67232 0.01593 1.0084 0.02689 0.32551 0.01064 0.65099 0.02286 0.97633 0.03796 0.85892 0.03987 1.7167 0.10035 2.5745 0.15893 0.64859 0.03755 1.2954 0.09872 1.942 0.15991l1.9065-0.28359v0c-0.65536-0.06173-1.3107-0.12581-1.9682-0.16115-2.4671-0.1649-4.9373-0.30363-7.4118-0.23798-2.1628 0.04614-4.3224 0.2106-6.4613 0.54286-2.7179 0.44437-5.4219 0.96836-8.0987 1.6191-3.0124 0.73764-6.0103 1.5543-8.9221 2.6299-3.0604 1.1787-6.0579 2.508-8.8949 4.1638-2.8356 1.6193-5.7451 3.206-8.0818 5.5273-1.8099 1.8944-3.6221 3.8275-4.9709 6.0886-0.78155 1.4102-1.4028 2.7209-1.5846 4.3414-0.13265 0.8418-0.25279 1.6857-0.3193 2.5357z" style="fill:#ffffff;stroke-linecap:round;stroke-linejoin:round;stroke-miterlimit:2;stroke-width:5;stroke:#ffffff"/>
  <path d="m146.8 116.07c-0.0172-0.84685-0.1401-1.6866-0.26598-2.5227-0.1775-1.6087-0.75734-2.8694-1.5226-4.2769-1.327-2.2515-3.1227-4.1726-4.9294-6.0424-2.3251-2.2981-5.2085-3.8785-8.0268-5.4801-2.8441-1.6449-5.8468-2.9662-8.912-4.1345-2.9156-1.0656-5.9153-1.8753-8.9295-2.6058-2.6864-0.64898-5.4009-1.1645-8.1292-1.6004-2.1502-0.32406-4.3202-0.47822-6.4929-0.5114 0.29572 0.0027 1.1714-0.07383 0.88716 8e-3 -0.32311 0.09306-0.67231 0.01593-1.0084 0.02689-0.32552 0.01064-0.65099 0.02286-0.97633 0.03796-0.85892 0.03987-1.7167 0.10035-2.5745 0.15893-0.64859 0.03755-1.2954 0.09872-1.942 0.15991l-1.9065-0.28359v0c0.65536-0.06173 1.3107-0.12581 1.9682-0.16115 2.4671-0.1649 4.9373-0.30363 7.4118-0.23798 2.1628 0.04614 4.3224 0.2106 6.4613 0.54286 2.7179 0.44437 5.4219 0.96836 8.0987 1.6191 3.0124 0.73764 6.0103 1.5543 8.9221 2.6299 3.0604 1.1787 6.0579 2.508 8.8949 4.1638 2.8356 1.6193 5.745 3.206 8.0818 5.5273 1.8099 1.8944 3.6221 3.8275 4.9709 6.0886 0.78155 1.4102 1.4028 2.7209 1.5846 4.3414 0.13265 0.8418 0.25279 1.6857 0.3193 2.5357z" style="fill:#ffffff;stroke-linecap:round;stroke-linejoin:round;stroke-miterlimit:2;stroke-width:5;stroke:#ffffff"/>
 </g>
 <g transform="translate(-47.354 -81.762)" style="display:none">
  <path d="m52.444 115.04c0.54063-0.35719 1.1258-0.63624 1.7166-0.89895 1.1323-0.47458 2.2934-0.87319 3.4571-1.2625 1.1919-0.37483 2.3935-0.71926 3.5946-1.0638 1.2917-0.35827 2.5986-0.65931 3.9066-0.95136 1.2667-0.28575 2.5442-0.52112 3.8225-0.74832 1.3364-0.25709 2.6833-0.45032 4.033-0.62157 1.3336-0.16405 2.664-0.35072 3.9947-0.53597 1.3594-0.20286 2.7194-0.40107 4.0838-0.56746 1.2086-0.14024 2.4218-0.23523 3.6339-0.33984 1.2881-0.0963 2.5723-0.23647 3.8586-0.35323 1.065-0.0951 2.132-0.16541 3.1993-0.22855 0.75336-0.0434 1.5073-0.0755 2.2615-0.0997 0.66981-0.0151 1.3388-0.0297 2.0075-0.0716 0.59574-0.0409 1.1919-0.0742 1.7884-0.10106 0.54924-0.0222 1.0988-0.0361 1.6483-0.0474 0.48531-0.01 0.97068-0.0153 1.4561-0.0202l-1.9481-0.30638v0c-0.48398 6e-3 -0.96795 0.0124-1.4518 0.023-0.54929 0.0126-1.0986 0.0281-1.6475 0.0525-0.59427 0.0291-1.1881 0.0654-1.7818 0.1045-0.66769 0.0374-1.3361 0.0454-2.0045 0.0669-0.75065 0.0261-1.501 0.0609-2.2507 0.10678-1.0602 0.0666-2.1201 0.14034-3.1779 0.2378-1.2872 0.11991-2.5729 0.25631-3.8623 0.35164-1.2102 0.10506-2.4217 0.20048-3.6278 0.3479-1.362 0.17109-2.7199 0.37117-4.0779 0.57129-1.3326 0.1861-2.666 0.36482-4.001 0.53308-1.3504 0.17707-2.6979 0.37623-4.0362 0.63063-1.2783 0.23093-2.5561 0.46728-3.8227 0.75689-1.308 0.29739-2.6162 0.5984-3.9075 0.9624-1.2025 0.34472-2.4067 0.68552-3.5965 1.0721-1.1703 0.39354-2.3379 0.79743-3.4755 1.2791-0.60685 0.27292-1.2024 0.56694-1.7718 0.91231z" style="fill:#ffffff;stroke-linecap:round;stroke-linejoin:round;stroke-miterlimit:2;stroke-width:5;stroke:#ffffff"/>
  <path d="m145.48 115.03c-0.54063-0.35719-1.1258-0.63624-1.7166-0.89895-1.1323-0.47458-2.2934-0.87319-3.4571-1.2625-1.1919-0.37483-2.3935-0.71926-3.5946-1.0638-1.2917-0.35827-2.5986-0.65931-3.9066-0.95136-1.2667-0.28575-2.5442-0.52112-3.8225-0.74832-1.3364-0.25709-2.6833-0.45032-4.033-0.62157-1.3336-0.16405-2.664-0.35072-3.9947-0.53597-1.3594-0.20286-2.7194-0.40107-4.0838-0.56746-1.2086-0.14024-2.4218-0.23523-3.6339-0.33984-1.2881-0.0963-2.5723-0.23647-3.8586-0.35323-1.065-0.0951-2.132-0.16541-3.1993-0.22855-0.75336-0.0434-1.5073-0.0755-2.2615-0.0997-0.66981-0.0151-1.3388-0.0297-2.0075-0.0716-0.59574-0.0409-1.1919-0.0742-1.7884-0.10106-0.54925-0.0222-1.0988-0.0361-1.6483-0.0474-0.48531-0.01-0.97069-0.0153-1.4561-0.0202 0 0 1.9482-0.30638 1.9482-0.30638v0c0.48398 6e-3 0.96795 0.0124 1.4518 0.023 0.54929 0.0126 1.0986 0.0281 1.6475 0.0525 0.59427 0.0291 1.1881 0.0654 1.7818 0.1045 0.66769 0.0374 1.3361 0.0454 2.0045 0.0669 0.75065 0.0261 1.501 0.0609 2.2507 0.10678 1.0602 0.0666 2.1201 0.14034 3.1779 0.2378 1.2872 0.11991 2.5729 0.25631 3.8623 0.35164 1.2102 0.10506 2.4217 0.20048 3.6278 0.3479 1.362 0.17109 2.7199 0.37117 4.0779 0.57129 1.3326 0.1861 2.666 0.36482 4.001 0.53308 1.3504 0.17707 2.6979 0.37623 4.0362 0.63063 1.2783 0.23093 2.5561 0.46728 3.8227 0.75689 1.308 0.29739 2.6162 0.5984 3.9075 0.9624 1.2025 0.34472 2.4068 0.68552 3.5965 1.0721 1.1703 0.39354 2.3379 0.79743 3.4755 1.2791 0.60685 0.27292 1.2024 0.56694 1.7718 0.91231z" style="fill:#ffffff;stroke-linecap:round;stroke-linejoin:round;stroke-miterlimit:2;stroke-width:5;stroke:#ffffff"/>
  <path transform="scale(.26458)" d="m532.85 414.2c-14.781-4.504-34.56-8.6267-53.544-11.16-4.3558-0.58133-12.849-1.7489-18.874-2.5947-6.025-0.84575-16.252-2.013-22.726-2.594-9.4349-0.8466-11.84-1.1621-12.116-1.5897-5.0618-7.8419-7.7194-11.139-11.924-14.793-7.4417-6.4671-16.211-10.826-25.995-12.92-3.2779-0.70158-4.6917-0.8017-11.321-0.8017-6.6292 0-8.0431 0.10012-11.321 0.8017-12.021 2.5728-23.148 8.9645-30.752 17.664-1.9958 2.2834-6.9943 9.375-6.9943 9.9231 0 0.12086-3.0602 0.49265-6.8005 0.8262-3.7403 0.33355-10.199 0.91518-14.353 1.2925-4.1538 0.37734-12.986 1.4463-19.627 2.3755-6.641 0.92919-15.096 2.0903-18.789 2.5802-16.825 2.232-35.702 6.1128-50.092 10.298-2.268 0.65963-4.1698 1.1531-4.2263 1.0966-0.42233-0.42232 7.1733-9.4672 12.992-15.47 6.5002-6.7068 12.369-10.944 25.851-18.667 24.798-14.204 44.569-21.578 76.548-28.551 14.674-3.1995 24.66-4.7551 35.512-5.5314 8.0368-0.57498 16.026-0.40777 25.997 0.54413 1.7991 0.17175 4.4027 0.31627 5.7857 0.32115 4.8416 0.0171 23.391 3.5869 38.805 7.468 17.825 4.4881 30.247 8.8165 45.247 15.766 12.15 5.629 30.525 16.5 37.744 22.329 5.6685 4.5772 17.269 17.478 20.266 22.537 0.33941 0.57297 0.42266 0.59108-5.295-1.1512z" style="fill:#ffffff;stroke-linecap:round;stroke-linejoin:round;stroke-miterlimit:2;stroke-width:6.507;stroke:#ffffff"/>
  <path transform="scale(.26458)" d="m386.34 394.49c-9.8767-0.44455-13.343-0.46111-22.166-0.10592-5.7525 0.23156-10.529 0.35102-10.615 0.26547-0.27982-0.27982 3.9966-2.9882 6.8855-4.3607 11.737-5.5765 26.029-4.5092 36.706 2.7413 2.4013 1.6307 2.8003 2.1113 1.6925 2.0388-0.43729-0.0286-6.0633-0.28912-12.502-0.57895z" style="fill:#ffffff;stroke-linecap:round;stroke-linejoin:round;stroke-miterlimit:2;stroke-width:6.507;stroke:#ffffff"/>
 </g>
 <g transform="translate(-47.354 -81.762)">
  <path d="m59.628 98.554c-0.0806-0.31559-0.19964-0.61987-0.30738-0.92684-0.18247-0.50669-0.40284-0.99883-0.63284-1.4854-0.2134-0.48001-0.43417-0.95668-0.67056-1.4258-0.1647-0.3356-0.33256-0.66947-0.50119-1.0031-0.0213-0.0445-0.0426-0.089-0.0639-0.13351l1.962-0.087v0c0.0204 0.0434 0.0409 0.0868 0.0613 0.13016 0.16279 0.33372 0.32131 0.66946 0.48154 1.0044 0.22862 0.47228 0.44249 0.95122 0.65722 1.4299 0.23211 0.49319 0.45816 0.98983 0.64765 1.5013 0.12142 0.30931 0.23701 0.62068 0.35315 0.932z" style="fill:#ffffff;stroke-linecap:round;stroke-linejoin:round;stroke-miterlimit:2;stroke-width:5;stroke:#ffffff"/>
  <path d="m81.674 88.46c-0.11072-0.30451-0.25949-0.59289-0.40692-0.88076-0.20107-0.38873-0.40508-0.77595-0.60338-1.1661-0.1593-0.30831-0.32311-0.61411-0.48412-0.92149-0.12975-0.249-0.25287-0.50117-0.3699-0.75638 0 0 1.9669-0.0846 1.9669-0.0846v0c0.11526 0.25157 0.23457 0.50114 0.36138 0.74713 0.15834 0.30792 0.32022 0.61397 0.47425 0.92409 0.19569 0.38967 0.39247 0.77886 0.59626 1.1644 0.15528 0.29576 0.30769 0.59303 0.45433 0.89315z" style="fill:#ffffff;stroke-linecap:round;stroke-linejoin:round;stroke-miterlimit:2;stroke-width:5;stroke:#ffffff"/>
  <path d="m139.58 98.165c0.0806-0.31559 0.19964-0.61987 0.30738-0.92684 0.18247-0.50669 0.40284-0.99883 0.63284-1.4854 0.2134-0.48001 0.43417-0.95668 0.67056-1.4258 0.1647-0.3356 0.33256-0.66947 0.5012-1.0031 0.0213-0.0445 0.0426-0.089 0.0639-0.13351 0 0-1.962-0.087-1.962-0.087v0c-0.0204 0.0434-0.0409 0.0868-0.0613 0.13016-0.16279 0.33372-0.32131 0.66946-0.48154 1.0044-0.22861 0.47228-0.44249 0.95122-0.65722 1.4299-0.23211 0.49319-0.45816 0.98983-0.64764 1.5013-0.12143 0.30931-0.23702 0.62068-0.35316 0.932z" style="fill:#ffffff;stroke-linecap:round;stroke-linejoin:round;stroke-miterlimit:2;stroke-width:5;stroke:#ffffff"/>
  <path d="m117.54 88.071c0.11072-0.30451 0.25949-0.59289 0.40692-0.88076 0.20107-0.38873 0.40507-0.77595 0.60338-1.1661 0.1593-0.30831 0.32311-0.61411 0.48412-0.92149 0.12974-0.249 0.25286-0.50117 0.36989-0.75638l-1.9669-0.0846v0c-0.11526 0.25157-0.23457 0.50114-0.36138 0.74713-0.15835 0.30792-0.32022 0.61397-0.47426 0.92409-0.19568 0.38967-0.39246 0.77886-0.59625 1.1644-0.15528 0.29576-0.30769 0.59303-0.45434 0.89315z" style="fill:#ffffff;stroke-linecap:round;stroke-linejoin:round;stroke-miterlimit:2;stroke-width:5;stroke:#ffffff"/>
 </g>
</svg>
