<?xml version="1.0" encoding="UTF-8" standalone="no"?>
<!-- Created with Inkscape (http://www.inkscape.org/) -->

<svg
   width="103.92844mm"
   height="60.859287mm"
   viewBox="0 0 103.92844 60.859287"
   version="1.1"
   id="svg1"
   inkscape:version="1.4.2 (f4327f4, 2025-05-13)"
   sodipodi:docname="Eye Symbols (Draft).svg"
   xmlns:inkscape="http://www.inkscape.org/namespaces/inkscape"
   xmlns:sodipodi="http://sodipodi.sourceforge.net/DTD/sodipodi-0.dtd"
   xmlns="http://www.w3.org/2000/svg"
   xmlns:svg="http://www.w3.org/2000/svg">
  <sodipodi:namedview
     id="namedview1"
     pagecolor="#505050"
     bordercolor="#eeeeee"
     borderopacity="1"
     inkscape:showpageshadow="0"
     inkscape:pageopacity="0"
     inkscape:pagecheckerboard="0"
     inkscape:deskcolor="#505050"
     inkscape:document-units="mm"
     showgrid="false"
     inkscape:zoom="1.0267829"
     inkscape:cx="280.00077"
     inkscape:cy="142.67865"
     inkscape:window-width="1920"
     inkscape:window-height="1017"
     inkscape:window-x="1912"
     inkscape:window-y="-8"
     inkscape:window-maximized="1"
     inkscape:current-layer="layer6">
    <inkscape:grid
       id="grid1"
       units="mm"
       originx="-47.354011"
       originy="-81.761651"
       spacingx="0.99999998"
       spacingy="1"
       empcolor="#0099e5"
       empopacity="0.30196078"
       color="#0099e5"
       opacity="0.14901961"
       empspacing="5"
       enabled="true"
       visible="false" />
  </sodipodi:namedview>
  <defs
     id="defs1" />
  <g
     inkscape:groupmode="layer"
     id="layer5"
     inkscape:label="Closed Eyelashes"
     style="display:inline"
     transform="translate(-47.354009,-81.761649)">
    <path
       style="fill:#ffffff;stroke:#ffffff;stroke-width:4.99999;stroke-linecap:round;stroke-linejoin:round;stroke-miterlimit:2;stroke-dasharray:none"
       id="path7"
       d="m 59.302255,125.82886 c -0.08063,0.31559 -0.199639,0.61987 -0.307382,0.92684 -0.182468,0.50669 -0.402839,0.99883 -0.632841,1.48545 -0.2134,0.48001 -0.434171,0.95668 -0.67056,1.42582 -0.164698,0.3356 -0.33256,0.66947 -0.501193,1.00309 -0.0213,0.0445 -0.04258,0.089 -0.06386,0.13351 0,0 1.961997,0.087 1.961997,0.087 v 0 c 0.02045,-0.0434 0.04088,-0.0868 0.06132,-0.13016 0.16279,-0.33372 0.321307,-0.66946 0.481536,-1.00441 0.228616,-0.47228 0.442495,-0.95122 0.65722,-1.42993 0.232111,-0.49319 0.458158,-0.98983 0.647647,-1.50129 0.121423,-0.30931 0.237011,-0.62068 0.353153,-0.932 z"
       inkscape:label="path7" />
    <path
       style="fill:#ffffff;stroke:#ffffff;stroke-width:4.99999;stroke-linecap:round;stroke-linejoin:round;stroke-miterlimit:2;stroke-dasharray:none"
       id="path8"
       d="m 81.348619,135.92295 c -0.110715,0.30451 -0.259488,0.59289 -0.406919,0.88076 -0.201065,0.38873 -0.405074,0.77595 -0.60338,1.16609 -0.159295,0.30831 -0.323109,0.61411 -0.484121,0.92149 -0.129741,0.249 -0.252862,0.50117 -0.369893,0.75638 0,0 1.966873,0.0846 1.966873,0.0846 v 0 c 0.115261,-0.25157 0.234572,-0.50114 0.361381,-0.74713 0.158348,-0.30792 0.320225,-0.61397 0.474258,-0.92409 0.195686,-0.38967 0.392467,-0.77886 0.596257,-1.16436 0.155279,-0.29576 0.307689,-0.59303 0.454332,-0.89315 z" />
    <path
       style="fill:#ffffff;stroke:#ffffff;stroke-width:4.99999;stroke-linecap:round;stroke-linejoin:round;stroke-miterlimit:2;stroke-dasharray:none"
       id="path7-4"
       d="m 139.2591,126.21754 c 0.0806,0.31559 0.19964,0.61987 0.30738,0.92684 0.18247,0.50669 0.40284,0.99883 0.63284,1.48545 0.2134,0.48001 0.43417,0.95668 0.67056,1.42582 0.1647,0.3356 0.33256,0.66947 0.5012,1.00309 0.0213,0.0445 0.0426,0.089 0.0639,0.13351 0,0 -1.962,0.087 -1.962,0.087 v 0 c -0.0204,-0.0434 -0.0409,-0.0868 -0.0613,-0.13016 -0.16279,-0.33372 -0.32131,-0.66946 -0.48154,-1.00441 -0.22861,-0.47228 -0.44249,-0.95122 -0.65722,-1.42993 -0.23211,-0.49319 -0.45816,-0.98983 -0.64764,-1.50129 -0.12143,-0.30931 -0.23702,-0.62068 -0.35316,-0.932 z" />
    <path
       style="fill:#ffffff;stroke:#ffffff;stroke-width:4.99999;stroke-linecap:round;stroke-linejoin:round;stroke-miterlimit:2;stroke-dasharray:none"
       id="path8-2"
       d="m 117.21273,136.31163 c 0.11072,0.30451 0.25949,0.59289 0.40692,0.88076 0.20107,0.38873 0.40507,0.77595 0.60338,1.16609 0.1593,0.30831 0.32311,0.61411 0.48412,0.92149 0.12974,0.249 0.25286,0.50117 0.36989,0.75638 0,0 -1.96687,0.0846 -1.96687,0.0846 v 0 c -0.11526,-0.25157 -0.23457,-0.50114 -0.36138,-0.74713 -0.15835,-0.30792 -0.32022,-0.61397 -0.47426,-0.92409 -0.19568,-0.38967 -0.39246,-0.77886 -0.59625,-1.16436 -0.15528,-0.29576 -0.30769,-0.59303 -0.45434,-0.89315 z" />
  </g>
  <g
     inkscape:label="Bottom Eyelid"
     inkscape:groupmode="layer"
     id="layer1"
     style="display:inline"
     transform="translate(-47.354009,-81.761649)">
    <path
       style="fill:#ffffff;stroke:#ffffff;stroke-width:4.99999;stroke-linecap:round;stroke-linejoin:round;stroke-miterlimit:2;stroke-dasharray:none"
       id="path1"
       d="m 50.248026,116.74102 c 0.560295,0.94232 1.29971,1.7582 2.038066,2.56166 2.135693,2.12062 4.647155,3.80022 7.163324,5.42867 2.777255,1.76217 5.660729,3.34583 8.583255,4.85137 2.794448,1.39086 5.769179,2.34562 8.755396,3.22424 2.713845,0.80087 5.474518,1.41929 8.255045,1.93534 2.569673,0.45811 5.173692,0.68016 7.773027,0.89084 2.578711,0.21748 5.166241,0.19856 7.751291,0.19492 1.30547,-0.005 2.61074,-0.0464 3.91365,-0.12791 0.9457,-0.0676 1.89149,-0.13342 2.83797,-0.18898 0.46113,-0.0269 0.92254,-0.0485 1.384,-0.0687 0,0 -1.93845,-0.29797 -1.93845,-0.29797 v 0 c -0.4579,0.0217 -0.91573,0.0449 -1.37329,0.0732 -0.93943,0.0584 -1.87813,0.12711 -2.81711,0.19211 -1.29277,0.0748 -2.587244,0.11766 -3.882253,0.12219 0.350457,0.002 0.700966,-0.001 1.05137,0.005 0.298543,0.005 -0.597199,0.001 -0.895768,-0.002 -1.401151,-0.0174 -2.801318,-0.082 -4.199239,-0.17702 -2.604812,-0.20382 -5.214398,-0.41859 -7.790355,-0.86925 -2.787263,-0.5082 -5.554514,-1.12088 -8.276084,-1.91369 -2.982553,-0.866 -5.952226,-1.81388 -8.745281,-3.19095 -2.932493,-1.49423 -5.827747,-3.06475 -8.607494,-4.83055 -2.486337,-1.60864 -4.975174,-3.26548 -7.058432,-5.39022 -0.708808,-0.7854 -1.420159,-1.58374 -1.936028,-2.51436 z" />
    <path
       style="fill:#ffffff;stroke:#ffffff;stroke-width:4.99999;stroke-linecap:round;stroke-linejoin:round;stroke-miterlimit:2;stroke-dasharray:none"
       id="path1-8"
       d="m 148.50229,116.71718 c -0.56029,0.94232 -1.29971,1.7582 -2.03806,2.56166 -2.1357,2.12062 -4.64716,3.80022 -7.16333,5.42867 -2.77725,1.76217 -5.66073,3.34583 -8.58325,4.85137 -2.79445,1.39086 -5.76918,2.34562 -8.7554,3.22424 -2.71384,0.80087 -5.47452,1.41929 -8.25504,1.93534 -2.56968,0.45811 -5.17369,0.68016 -7.77303,0.89084 -2.57871,0.21748 -5.16624,0.19856 -7.751292,0.19492 -1.30547,-0.005 -2.61074,-0.0464 -3.91365,-0.12791 -0.9457,-0.0676 -1.89149,-0.13342 -2.83797,-0.18898 -0.46113,-0.0269 -0.92254,-0.0485 -1.384,-0.0687 0,0 1.93845,-0.29797 1.93845,-0.29797 v 0 c 0.4579,0.0217 0.91573,0.0449 1.37329,0.0732 0.93943,0.0584 1.87813,0.12711 2.81711,0.19211 1.29277,0.0748 2.58725,0.11766 3.882262,0.12219 -0.350462,0.002 -0.700972,-0.001 -1.051372,0.005 -0.29855,0.005 0.59719,0.001 0.89576,-0.002 1.401152,-0.0174 2.801322,-0.082 4.199242,-0.17702 2.60481,-0.20382 5.2144,-0.41859 7.79035,-0.86925 2.78727,-0.5082 5.55452,-1.12088 8.27609,-1.91369 2.98255,-0.866 5.95222,-1.81388 8.74528,-3.19095 2.93249,-1.49423 5.82775,-3.06475 8.60749,-4.83055 2.48634,-1.60864 4.97518,-3.26548 7.05843,-5.39022 0.70881,-0.7854 1.42016,-1.58374 1.93603,-2.51436 z" />
  </g>
  <g
     inkscape:groupmode="layer"
     id="layer4"
     inkscape:label="Pupil"
     style="display:inline"
     transform="translate(-47.354009,-81.761649)">
    <ellipse
       style="display:inline;fill:none;stroke:#ffffff;stroke-width:4.99999;stroke-linecap:round;stroke-linejoin:round;stroke-miterlimit:2;stroke-dasharray:none"
       id="path4"
       cx="99.576996"
       cy="111.4661"
       rx="12.116871"
       ry="11.706902" />
  </g>
  <g
     inkscape:groupmode="layer"
     id="layer2"
     inkscape:label="Top Eyelid"
     style="display:inline"
     transform="translate(-47.354009,-81.761649)">
    <path
       style="fill:#ffffff;stroke:#ffffff;stroke-width:4.99999;stroke-linecap:round;stroke-linejoin:round;stroke-miterlimit:2;stroke-dasharray:none"
       id="path2"
       d="m 51.838767,116.13518 c 0.0172,-0.84685 0.140097,-1.68658 0.265983,-2.52268 0.177498,-1.60873 0.75734,-2.86945 1.52264,-4.27694 1.326994,-2.25152 3.122707,-4.1726 4.929349,-6.04239 2.325131,-2.29813 5.208463,-3.878505 8.026794,-5.480089 2.844069,-1.644909 5.846794,-2.966193 8.911957,-4.134461 2.915553,-1.065615 5.91529,-1.875301 8.929524,-2.605805 2.686378,-0.648975 5.400923,-1.164545 8.129153,-1.600358 2.150147,-0.324059 4.320146,-0.478216 6.492933,-0.511398 -0.295722,0.0027 -1.17135,-0.07383 -0.887166,0.008 0.323112,0.09306 0.672317,0.01593 1.008385,0.02689 0.325514,0.01064 0.650992,0.02286 0.976331,0.03796 0.85892,0.03987 1.71674,0.100346 2.57452,0.158933 0.64859,0.03755 1.29537,0.09872 1.94203,0.159911 0,0 1.9065,-0.283591 1.9065,-0.283591 v 0 c -0.65536,-0.06173 -1.3107,-0.125814 -1.96818,-0.161149 -2.46712,-0.164902 -4.9373,-0.303628 -7.411798,-0.237985 -2.162788,0.04614 -4.322355,0.2106 -6.461339,0.542864 -2.717929,0.44437 -5.421905,0.968364 -8.098705,1.619102 -3.012379,0.73764 -6.010293,1.554329 -8.922131,2.629884 -3.060369,1.178653 -6.057879,2.507954 -8.894895,4.163809 -2.835568,1.619276 -5.745059,3.206013 -8.081848,5.527283 -1.809888,1.89444 -3.622053,3.82746 -4.970886,6.08863 -0.781547,1.41022 -1.402831,2.72089 -1.584629,4.34135 -0.132649,0.8418 -0.252791,1.68568 -0.319305,2.53571 z" />
    <path
       style="fill:#ffffff;stroke:#ffffff;stroke-width:4.99999;stroke-linecap:round;stroke-linejoin:round;stroke-miterlimit:2;stroke-dasharray:none"
       id="path2-1"
       d="m 146.7977,116.07134 c -0.0172,-0.84685 -0.1401,-1.68658 -0.26598,-2.52268 -0.1775,-1.60873 -0.75734,-2.86945 -1.52264,-4.27694 -1.327,-2.25152 -3.12271,-4.1726 -4.92935,-6.04239 -2.32513,-2.29813 -5.20846,-3.878508 -8.0268,-5.480092 -2.84406,-1.644909 -5.84679,-2.966193 -8.91195,-4.134461 -2.91556,-1.065615 -5.91529,-1.875301 -8.92953,-2.605805 -2.68637,-0.648975 -5.40092,-1.164545 -8.12915,-1.600358 -2.15015,-0.324059 -4.32015,-0.478216 -6.49293,-0.511398 0.29572,0.0027 1.17135,-0.07383 0.88716,0.008 -0.32311,0.09306 -0.67231,0.01593 -1.00838,0.02689 -0.32552,0.01064 -0.65099,0.02286 -0.97633,0.03796 -0.85892,0.03987 -1.71674,0.100346 -2.57452,0.158933 -0.64859,0.03755 -1.29537,0.09872 -1.94203,0.159911 0,0 -1.9065,-0.283591 -1.9065,-0.283591 v 0 c 0.65536,-0.06173 1.3107,-0.125814 1.96818,-0.161149 2.46712,-0.164902 4.9373,-0.303628 7.4118,-0.237985 2.16278,0.04614 4.32235,0.2106 6.46133,0.542864 2.71793,0.44437 5.42191,0.968364 8.09871,1.619102 3.01238,0.73764 6.01029,1.554329 8.92213,2.629884 3.06037,1.178653 6.05788,2.507954 8.8949,4.163809 2.83556,1.619276 5.74505,3.206016 8.08184,5.527286 1.80989,1.89444 3.62206,3.82746 4.97089,6.08863 0.78155,1.41022 1.40283,2.72089 1.58463,4.34135 0.13265,0.8418 0.25279,1.68568 0.3193,2.53571 z" />
  </g>
  <g
     inkscape:groupmode="layer"
     id="layer3"
     inkscape:label="Low Top Eyelid"
     style="display:inline"
     transform="translate(-47.354009,-81.761649)">
    <path
       style="fill:#ffffff;stroke:#ffffff;stroke-width:4.99999;stroke-linecap:round;stroke-linejoin:round;stroke-miterlimit:2;stroke-dasharray:none"
       id="path3"
       d="m 52.443509,115.03734 c 0.540628,-0.35719 1.125805,-0.63624 1.71655,-0.89895 1.13229,-0.47458 2.293446,-0.87319 3.457062,-1.26253 1.191943,-0.37483 2.393521,-0.71926 3.594595,-1.06378 1.291677,-0.35827 2.598647,-0.65931 3.906644,-0.95136 1.26673,-0.28575 2.544199,-0.52112 3.822518,-0.74832 1.336415,-0.25709 2.683338,-0.45032 4.033027,-0.62157 1.333551,-0.16405 2.663966,-0.35072 3.994682,-0.53597 1.35945,-0.20286 2.719401,-0.40107 4.083839,-0.56746 1.208611,-0.14024 2.421829,-0.23523 3.633882,-0.33984 1.288135,-0.0963 2.572314,-0.23647 3.858647,-0.35323 1.065008,-0.0951 2.13202,-0.16541 3.199336,-0.22855 0.753364,-0.0434 1.507291,-0.0755 2.261497,-0.0997 0.669808,-0.0151 1.338813,-0.0297 2.007507,-0.0716 0.595736,-0.0409 1.191903,-0.0742 1.788425,-0.10106 0.549243,-0.0222 1.098775,-0.0361 1.648335,-0.0474 0.485312,-0.01 0.970685,-0.0153 1.456065,-0.0202 0,0 -1.948147,-0.30638 -1.948147,-0.30638 v 0 c -0.483979,0.006 -0.967947,0.0124 -1.451846,0.023 -0.549291,0.0126 -1.098552,0.0281 -1.64746,0.0525 -0.594272,0.0291 -1.188103,0.0654 -1.781802,0.1045 -0.667686,0.0374 -1.33614,0.0454 -2.004459,0.0669 -0.750649,0.0261 -1.500965,0.0609 -2.250681,0.10678 -1.060201,0.0666 -2.120064,0.14034 -3.177939,0.2378 -1.28719,0.11991 -2.572888,0.25631 -3.862263,0.35164 -1.210236,0.10506 -2.421705,0.20048 -3.62775,0.3479 -1.362006,0.17109 -2.719901,0.37117 -4.077904,0.57129 -1.332587,0.1861 -2.666047,0.36482 -4.001013,0.53308 -1.350391,0.17707 -2.697861,0.37623 -4.03615,0.63063 -1.278287,0.23093 -2.556145,0.46728 -3.822689,0.75689 -1.307965,0.29739 -2.616192,0.5984 -3.90751,0.9624 -1.202462,0.34472 -2.406748,0.68552 -3.596523,1.07213 -1.170287,0.39354 -2.337904,0.79743 -3.475533,1.27912 -0.606851,0.27292 -1.202404,0.56694 -1.771806,0.91231 z" />
    <path
       style="fill:#ffffff;stroke:#ffffff;stroke-width:4.99999;stroke-linecap:round;stroke-linejoin:round;stroke-miterlimit:2;stroke-dasharray:none"
       id="path3-2"
       d="m 145.4774,115.02864 c -0.54063,-0.35719 -1.12581,-0.63624 -1.71655,-0.89895 -1.13229,-0.47458 -2.29345,-0.87319 -3.45707,-1.26253 -1.19194,-0.37483 -2.39352,-0.71926 -3.59459,-1.06378 -1.29168,-0.35827 -2.59865,-0.65931 -3.90665,-0.95136 -1.26673,-0.28575 -2.54419,-0.52112 -3.82251,-0.74832 -1.33642,-0.25709 -2.68334,-0.45032 -4.03303,-0.62157 -1.33355,-0.16405 -2.66397,-0.35072 -3.99468,-0.53597 -1.35945,-0.20286 -2.7194,-0.40107 -4.08384,-0.56746 -1.20861,-0.14024 -2.42183,-0.23523 -3.63388,-0.33984 -1.28814,-0.0963 -2.57232,-0.23647 -3.85865,-0.35323 -1.06501,-0.0951 -2.13202,-0.16541 -3.19934,-0.22855 -0.75336,-0.0434 -1.50729,-0.0755 -2.26149,-0.0997 -0.66981,-0.0151 -1.33882,-0.0297 -2.00751,-0.0716 -0.59574,-0.0409 -1.1919,-0.0742 -1.78842,-0.10106 -0.549246,-0.0222 -1.098778,-0.0361 -1.648338,-0.0474 -0.485309,-0.01 -0.970689,-0.0153 -1.456069,-0.0202 0,0 1.948151,-0.30638 1.948151,-0.30638 v 0 c 0.483979,0.006 0.967947,0.0124 1.451846,0.023 0.54929,0.0126 1.09855,0.0281 1.64746,0.0525 0.59427,0.0291 1.1881,0.0654 1.7818,0.1045 0.66769,0.0374 1.33614,0.0454 2.00446,0.0669 0.75065,0.0261 1.50096,0.0609 2.25068,0.10678 1.0602,0.0666 2.12006,0.14034 3.17794,0.2378 1.28719,0.11991 2.57289,0.25631 3.86226,0.35164 1.21024,0.10506 2.42171,0.20048 3.62775,0.3479 1.36201,0.17109 2.7199,0.37117 4.07791,0.57129 1.33258,0.1861 2.66604,0.36482 4.00101,0.53308 1.35039,0.17707 2.69786,0.37623 4.03615,0.63063 1.27829,0.23093 2.55614,0.46728 3.82269,0.75689 1.30796,0.29739 2.61619,0.5984 3.90751,0.9624 1.20246,0.34472 2.40675,0.68552 3.59652,1.07213 1.17029,0.39354 2.3379,0.79743 3.47553,1.27912 0.60685,0.27292 1.20241,0.56694 1.77181,0.91231 z" />
    <path
       style="fill:#ffffff;stroke:#ffffff;stroke-width:6.50705;stroke-linecap:round;stroke-linejoin:round;stroke-miterlimit:2;stroke-dasharray:none"
       d="m 532.85252,414.1983 c -14.78079,-4.50398 -34.56038,-8.6267 -53.5435,-11.16024 -4.35579,-0.58133 -12.84913,-1.74894 -18.87409,-2.59468 -6.02497,-0.84575 -16.2516,-2.01303 -22.72586,-2.59397 -9.43489,-0.8466 -11.83973,-1.16214 -12.11572,-1.58971 -5.06177,-7.84189 -7.71937,-11.13896 -11.92352,-14.79253 -7.4417,-6.46713 -16.21137,-10.82576 -25.99488,-12.91976 -3.27789,-0.70158 -4.69171,-0.8017 -11.32096,-0.8017 -6.62924,0 -8.04306,0.10012 -11.32096,0.8017 -12.02051,2.57279 -23.14802,8.96451 -30.75196,17.66412 -1.99581,2.28338 -6.99427,9.37495 -6.99427,9.9231 0,0.12086 -3.06025,0.49265 -6.80054,0.8262 -3.7403,0.33355 -10.19913,0.91518 -14.35296,1.29251 -4.15384,0.37734 -12.98593,1.44631 -19.62688,2.3755 -6.64096,0.92919 -15.09597,2.09027 -18.78892,2.58017 -16.82496,2.232 -35.70208,6.11278 -50.09182,10.29793 -2.26798,0.65963 -4.16983,1.1531 -4.22633,1.0966 -0.42233,-0.42232 7.17332,-9.46717 12.99167,-15.47038 6.50022,-6.70675 12.36884,-10.94443 25.85103,-18.6668 24.79809,-14.20392 44.56853,-21.57792 76.54834,-28.55108 14.6735,-3.19954 24.66002,-4.75507 35.51201,-5.53144 8.03685,-0.57498 16.02557,-0.40777 25.99701,0.54413 1.79913,0.17175 4.4027,0.31627 5.78573,0.32115 4.84159,0.0171 23.39093,3.58688 38.80516,7.46795 17.82522,4.48812 30.24738,8.81649 45.24652,15.76563 12.14973,5.62901 30.52477,16.49957 37.74445,22.3294 5.66846,4.57722 17.26931,17.47814 20.26623,22.5374 0.33941,0.57297 0.42266,0.59108 -5.29498,-1.1512 z"
       id="path5"
       transform="scale(0.26458333)" />
    <path
       style="fill:#ffffff;stroke:#ffffff;stroke-width:6.50705;stroke-linecap:round;stroke-linejoin:round;stroke-miterlimit:2;stroke-dasharray:none"
       d="m 386.3396,394.4891 c -9.87667,-0.44455 -13.3427,-0.46111 -22.16642,-0.10592 -5.75254,0.23156 -10.52916,0.35102 -10.61472,0.26547 -0.27982,-0.27982 3.99657,-2.98816 6.88546,-4.36073 11.73708,-5.5765 26.02877,-4.50916 36.70551,2.74128 2.40132,1.6307 2.80026,2.11129 1.6925,2.03885 -0.43729,-0.0286 -6.06334,-0.28912 -12.50233,-0.57895 z"
       id="path6"
       transform="scale(0.26458333)" />
  </g>
  <g
     inkscape:groupmode="layer"
     id="layer6"
     inkscape:label="Open Eyelashes"
     style="display:inline"
     transform="translate(-47.354009,-81.761649)">
    <path
       style="display:inline;fill:#ffffff;stroke:#ffffff;stroke-width:4.99999;stroke-linecap:round;stroke-linejoin:round;stroke-miterlimit:2;stroke-dasharray:none"
       id="path7-8"
       d="m 59.628065,98.553727 c -0.0806,-0.31559 -0.19964,-0.61987 -0.30738,-0.92684 -0.18247,-0.50669 -0.40284,-0.99883 -0.63284,-1.48545 -0.2134,-0.48001 -0.43417,-0.95668 -0.67056,-1.42582 -0.1647,-0.3356 -0.33256,-0.66947 -0.50119,-1.00309 -0.0213,-0.0445 -0.0426,-0.089 -0.0639,-0.13351 0,0 1.96199,-0.087 1.96199,-0.087 v 0 c 0.0204,0.0434 0.0409,0.0868 0.0613,0.13016 0.16279,0.33372 0.32131,0.66946 0.48154,1.00441 0.22862,0.47228 0.44249,0.95122 0.65722,1.42993 0.23211,0.49319 0.45816,0.98983 0.64765,1.50129 0.12142,0.30931 0.23701,0.62068 0.35315,0.932 z"
       inkscape:label="path7" />
    <path
       style="display:inline;fill:#ffffff;stroke:#ffffff;stroke-width:4.99999;stroke-linecap:round;stroke-linejoin:round;stroke-miterlimit:2;stroke-dasharray:none"
       id="path8-24"
       d="m 81.674435,88.459637 c -0.11072,-0.30451 -0.25949,-0.59289 -0.40692,-0.88076 -0.20107,-0.38873 -0.40508,-0.77595 -0.60338,-1.16609 -0.1593,-0.30831 -0.32311,-0.61411 -0.48412,-0.92149 -0.12975,-0.249 -0.25287,-0.50117 -0.3699,-0.75638 0,0 1.96688,-0.0846 1.96688,-0.0846 v 0 c 0.11526,0.25157 0.23457,0.50114 0.36138,0.74713 0.15834,0.30792 0.32022,0.61397 0.47425,0.92409 0.19569,0.38967 0.39247,0.77886 0.59626,1.16436 0.15528,0.29576 0.30769,0.59303 0.45433,0.89315 z" />
    <path
       style="display:inline;fill:#ffffff;stroke:#ffffff;stroke-width:4.99999;stroke-linecap:round;stroke-linejoin:round;stroke-miterlimit:2;stroke-dasharray:none"
       id="path7-4-5"
       d="m 139.58491,98.165047 c 0.0806,-0.31559 0.19964,-0.61987 0.30738,-0.92684 0.18247,-0.50669 0.40284,-0.99883 0.63284,-1.48545 0.2134,-0.48001 0.43417,-0.95668 0.67056,-1.42582 0.1647,-0.3356 0.33256,-0.66947 0.5012,-1.00309 0.0213,-0.0445 0.0426,-0.089 0.0639,-0.13351 0,0 -1.962,-0.087 -1.962,-0.087 v 0 c -0.0204,0.0434 -0.0409,0.0868 -0.0613,0.13016 -0.16279,0.33372 -0.32131,0.66946 -0.48154,1.00441 -0.22861,0.47228 -0.44249,0.95122 -0.65722,1.42993 -0.23211,0.49319 -0.45816,0.98983 -0.64764,1.50129 -0.12143,0.30931 -0.23702,0.62068 -0.35316,0.932 z" />
    <path
       style="display:inline;fill:#ffffff;stroke:#ffffff;stroke-width:4.99999;stroke-linecap:round;stroke-linejoin:round;stroke-miterlimit:2;stroke-dasharray:none"
       id="path8-2-5"
       d="m 117.53854,88.070957 c 0.11072,-0.30451 0.25949,-0.59289 0.40692,-0.88076 0.20107,-0.38873 0.40507,-0.77595 0.60338,-1.16609 0.1593,-0.30831 0.32311,-0.61411 0.48412,-0.92149 0.12974,-0.249 0.25286,-0.50117 0.36989,-0.75638 0,0 -1.96687,-0.0846 -1.96687,-0.0846 v 0 c -0.11526,0.25157 -0.23457,0.50114 -0.36138,0.74713 -0.15835,0.30792 -0.32022,0.61397 -0.47426,0.92409 -0.19568,0.38967 -0.39246,0.77886 -0.59625,1.16436 -0.15528,0.29576 -0.30769,0.59303 -0.45434,0.89315 z" />
  </g>
</svg>
