<?xml version="1.0" encoding="UTF-8" standalone="no"?>
<!-- Created with Inkscape (http://www.inkscape.org/) -->

<svg
   width="47.468781mm"
   height="47.450619mm"
   viewBox="0 0 47.46878 47.450619"
   version="1.1"
   id="svg1"
   inkscape:version="1.4.2 (f4327f4, 2025-05-13)"
   sodipodi:docname="Flip Board Symbol.svg"
   xmlns:inkscape="http://www.inkscape.org/namespaces/inkscape"
   xmlns:sodipodi="http://sodipodi.sourceforge.net/DTD/sodipodi-0.dtd"
   xmlns="http://www.w3.org/2000/svg"
   xmlns:svg="http://www.w3.org/2000/svg">
  <sodipodi:namedview
     id="namedview1"
     pagecolor="#505050"
     bordercolor="#eeeeee"
     borderopacity="1"
     inkscape:showpageshadow="0"
     inkscape:pageopacity="0"
     inkscape:pagecheckerboard="0"
     inkscape:deskcolor="#505050"
     inkscape:document-units="mm"
     inkscape:zoom="4.1071318"
     inkscape:cx="144.74822"
     inkscape:cy="91.426333"
     inkscape:window-width="1920"
     inkscape:window-height="1017"
     inkscape:window-x="1912"
     inkscape:window-y="-8"
     inkscape:window-maximized="1"
     inkscape:current-layer="layer1" />
  <defs
     id="defs1" />
  <g
     inkscape:label="Layer 1"
     inkscape:groupmode="layer"
     id="layer1"
     transform="translate(-88.104924,-183.07678)">
    <rect
       style="fill:#ffffff;fill-opacity:1;stroke:#ffffff;stroke-width:5.28997;stroke-linecap:round;stroke-linejoin:round;stroke-miterlimit:2;stroke-dasharray:none;stroke-opacity:1"
       id="rect18"
       width="16.971809"
       height="16.971809"
       x="103.37881"
       y="198.32242" />
    <path
       style="fill:#ffffff;fill-opacity:1;stroke:#ffffff;stroke-width:2;stroke-linecap:round;stroke-linejoin:round;stroke-miterlimit:2;stroke-opacity:1"
       id="path20"
       d="m 109.95454,228.75045 c -0.75007,0.0579 -1.4673,-0.11996 -2.18253,-0.32221 -1.24229,-0.36781 -2.44016,-0.85837 -3.6065,-1.4188 -1.30351,-0.62365 -2.47097,-1.46413 -3.57933,-2.38201 -1.079219,-0.88309 -1.919075,-1.97468 -2.619009,-3.17047 -0.743244,-1.26498 -1.096986,-2.6747 -1.342969,-4.10617 -0.233982,-1.63113 -0.251823,-3.28558 -0.248225,-4.93068 0.01212,-1.41078 0.05402,-2.82102 0.09642,-4.23114 0.02991,-0.87977 0.04286,-1.75997 0.07829,-2.63955 0.07019,-2.16496 -1.240859,-0.82195 -5.042688,-0.8268 -0.08299,-1e-4 -0.06019,0.1548 -0.09527,0.23001 -0.03109,0.0667 -0.06867,0.13008 -0.10301,0.19513 -0.38858,0.58053 -0.735648,1.18617 -1.11724,1.77114 -0.337669,0.52886 -0.704784,1.03734 -1.087649,1.53405 0,0 4.848883,0.31202 4.848883,0.31202 v 0 c 0.373984,-0.5143 0.740514,-1.03397 1.092573,-1.56361 0.387218,-0.58534 0.755664,-1.18536 1.196825,-1.73267 0.03899,-0.0315 0.06696,-0.0911 0.116967,-0.0945 0.03657,-0.002 0.11022,0.083 0.07359,0.0817 -1.628743,-0.0565 -3.255624,-0.15832 -4.882848,-0.24856 -0.01688,-0.001 0.0364,-0.033 0.04675,-0.0196 0.0429,0.0553 0.0529,0.33846 0.05432,0.35501 0.0114,0.87944 0.0016,1.75887 0.0016,2.63835 -0.0037,1.41325 -0.01487,2.82644 -0.02127,4.23968 0.0082,1.67012 0.01349,3.3494 0.235339,5.00725 0.231663,1.48474 0.578183,2.95578 1.318694,4.27907 0.707202,1.24652 1.536186,2.40816 2.643946,3.33588 1.109864,0.94785 2.269318,1.83615 3.57804,2.49694 1.152171,0.58911 2.338731,1.10207 3.570981,1.5016 0.67131,0.22339 1.35271,0.49347 2.07113,0.4857 z" />
    <path
       style="fill:#ffffff;fill-opacity:1;stroke:#ffffff;stroke-width:2;stroke-linecap:round;stroke-linejoin:round;stroke-miterlimit:2;stroke-opacity:1"
       id="path20-1"
       d="m 113.72405,184.85372 c 0.75007,-0.0579 1.4673,0.11996 2.18253,0.32221 1.24229,0.36781 2.44016,0.85837 3.60651,1.4188 1.3035,0.62365 2.47097,1.46413 3.57933,2.38201 1.07921,0.88309 1.91907,1.97468 2.619,3.17047 0.74325,1.26498 1.09699,2.6747 1.34297,4.10617 0.23398,1.63113 0.25183,3.28558 0.24823,4.93068 -0.0121,1.41078 -0.054,2.82102 -0.0964,4.23114 -0.0299,0.87977 -0.0429,1.75997 -0.0783,2.63955 -0.0702,2.16496 1.24086,0.82195 5.04269,0.8268 0.083,1e-4 0.0602,-0.1548 0.0953,-0.23001 0.0311,-0.0667 0.0687,-0.13008 0.10301,-0.19513 0.38858,-0.58053 0.73564,-1.18617 1.11724,-1.77114 0.33766,-0.52886 0.70478,-1.03734 1.08764,-1.53405 0,0 -4.84888,-0.31202 -4.84888,-0.31202 v 0 c -0.37398,0.5143 -0.74051,1.03397 -1.09257,1.56361 -0.38722,0.58534 -0.75567,1.18536 -1.19683,1.73267 -0.039,0.0315 -0.067,0.0911 -0.11696,0.0945 -0.0366,0.002 -0.11022,-0.083 -0.0736,-0.0817 1.62874,0.0565 3.25562,0.15832 4.88284,0.24856 0.0169,0.001 -0.0364,0.033 -0.0468,0.0196 -0.0429,-0.0553 -0.0529,-0.33846 -0.0543,-0.35501 -0.0114,-0.87944 -0.002,-1.75887 -0.002,-2.63835 0.004,-1.41325 0.0149,-2.82644 0.0213,-4.23968 -0.008,-1.67012 -0.0135,-3.3494 -0.23533,-5.00725 -0.23167,-1.48474 -0.57819,-2.95578 -1.3187,-4.27907 -0.7072,-1.24652 -1.53618,-2.40816 -2.64394,-3.33588 -1.10987,-0.94785 -2.26932,-1.83615 -3.57804,-2.49694 -1.15218,-0.58911 -2.33874,-1.10207 -3.57098,-1.5016 -0.67131,-0.22339 -1.35272,-0.49347 -2.07114,-0.4857 z"
       inkscape:label="path20-1" />
  </g>
</svg>
