<?xml version="1.0" encoding="UTF-8" standalone="no"?>
<!-- Created with Inkscape (http://www.inkscape.org/) -->

<svg
   width="210mm"
   height="297mm"
   viewBox="0 0 210 297"
   version="1.1"
   id="svg1"
   inkscape:version="1.4.2 (f4327f4, 2025-05-13)"
   sodipodi:docname="drawing.svg"
   xmlns:inkscape="http://www.inkscape.org/namespaces/inkscape"
   xmlns:sodipodi="http://sodipodi.sourceforge.net/DTD/sodipodi-0.dtd"
   xmlns="http://www.w3.org/2000/svg"
   xmlns:svg="http://www.w3.org/2000/svg">
  <sodipodi:namedview
     id="namedview1"
     pagecolor="#505050"
     bordercolor="#eeeeee"
     borderopacity="1"
     inkscape:showpageshadow="0"
     inkscape:pageopacity="0"
     inkscape:pagecheckerboard="0"
     inkscape:deskcolor="#505050"
     inkscape:document-units="mm"
     inkscape:zoom="1.0267829"
     inkscape:cx="817.60222"
     inkscape:cy="613.07992"
     inkscape:window-width="1920"
     inkscape:window-height="1017"
     inkscape:window-x="1912"
     inkscape:window-y="-8"
     inkscape:window-maximized="1"
     inkscape:current-layer="layer1" />
  <defs
     id="defs1" />
  <g
     inkscape:label="Layer 1"
     inkscape:groupmode="layer"
     id="layer1">
    <path
       style="fill:#ffffff;stroke:#ffffff;stroke-width:1;stroke-linecap:round;stroke-linejoin:round;stroke-miterlimit:2;stroke-dasharray:none;stroke-dashoffset:0;paint-order:normal"
       id="path21"
       d="m 117.33074,101.50524 c 0.33071,0.68022 0.34117,0.69687 0.71918,1.5037 0.6951,1.48363 0.87376,1.85074 1.53896,3.45658 0.78823,1.90285 1.02925,2.5916 1.76413,4.54169 1.38495,3.81376 2.64501,7.67067 3.9327,11.51782 0.24617,0.8547 0.60642,1.67465 0.85531,2.52834 0.10428,0.3577 0.20344,0.7267 0.13291,1.10496 -0.0384,0.20594 -0.13981,0.39497 -0.20972,0.59246 -0.15349,0.23752 -0.29182,0.48557 -0.46049,0.71258 -0.32847,0.4421 -1.40384,1.66804 -1.69457,2.01194 -1.27594,1.50928 -2.53822,3.03069 -3.80658,4.54637 -1.11607,1.3318 -2.2128,2.67976 -3.30273,4.033 -0.11575,0.14371 -1.28758,1.58395 -1.4273,1.84614 -0.13062,0.24512 -0.16567,0.53023 -0.2485,0.79534 0.25447,0.30763 0.45534,0.66895 0.76341,0.92287 0.70857,0.58403 2.28838,1.30612 3.08342,1.6537 1.65919,0.72538 3.3743,1.32312 5.07939,1.92884 1.13753,0.39017 2.27872,0.7698 3.42673,1.12805 0.64182,0.20029 1.28314,0.38673 1.91477,0.6172 0.28929,0.14333 0.53196,0.23399 0.76656,0.46561 0.34514,0.34074 0.62212,0.8049 0.85166,1.22051 0.39465,0.71454 0.58247,1.18475 0.91737,1.93931 0.4262,1.01595 0.8087,2.05013 1.16373,3.09295 0.11533,0.33875 0.38174,1.15306 0.48113,1.52846 0.0498,0.18823 0.0845,0.38015 0.12672,0.57023 -0.01,0.14687 0.11584,0.41204 -0.0285,0.44062 -0.93893,0.18585 -1.9117,0.1023 -2.86837,0.1328 -1.53745,0.049 -3.07535,0.0877 -4.61347,0.1057 -4.91659,0.0575 -9.83591,-0.0199 -14.75218,-0.0707 -1.41803,-0.0191 -2.83611,-0.0354 -4.25409,-0.0574 -1.18968,-0.0184 -2.37938,-0.0366 -3.56889,-0.064 -2.35104,-0.054 -4.720646,-0.098 -7.052207,-0.44255 -0.463018,-0.0684 -0.919377,-0.17613 -1.379064,-0.26419 -0.336833,-0.11189 -0.686403,-0.19096 -1.010496,-0.33566 -0.665433,-0.2971 -1.220301,-0.81063 -1.278385,-1.57801 -0.05167,-0.68256 0.177075,-1.3802 0.330229,-2.02662 0.463495,-1.58471 1.063982,-3.12323 1.656681,-4.66246 0.776671,-2.01701 1.58079,-4.02041 2.400223,-6.02041 1.56695,-3.79234 3.400799,-7.46448 5.303099,-11.0973 1.09479,-2.07261 2.2658,-4.1039 3.49592,-6.09887 0.7166,-1.15525 1.46377,-2.29093 2.19127,-3.43931 0.4903,-0.76418 0.96318,-1.53934 1.42433,-2.32139 0.40549,-0.72966 0.79124,-1.47008 1.18756,-2.20482 0.38174,-0.71352 0.77948,-1.41817 1.18079,-2.1208 0.42098,-0.73315 0.84676,-1.46286 1.29647,-2.17882 0.46816,-0.75065 0.92117,-1.51089 1.36017,-2.27894 0.45739,-0.82752 0.91249,-1.65624 1.36997,-2.48374 0.41911,-0.77553 0.84097,-1.54938 1.23839,-2.33632 0.36512,-0.68575 0.69799,-1.38761 1.03198,-2.08879 0.12141,-0.28471 0.32846,-0.59929 0.18779,-0.91803 -0.0897,-0.20322 -0.2348,-0.31987 -0.38715,-0.47657 -0.10903,-0.0934 -0.21614,-0.18903 -0.32709,-0.2801 -0.36495,-0.29958 -0.51432,-0.39702 -0.90442,-0.703123 -0.55751,-0.437475 -1.10012,-0.893077 -1.64171,-1.349917 -0.3965,-0.364919 -0.83793,-0.688338 -1.2101,-1.080061 -0.0439,-0.04622 -0.32297,-0.28869 -0.20612,-0.439574 0.0553,-0.07133 0.15854,-0.08616 0.2378,-0.129241 0.15636,-0.05434 0.31024,-0.116422 0.46908,-0.163025 0.93146,-0.273299 1.96123,-0.429451 2.9273,-0.509762 0.27448,-0.02281 0.54996,-0.03128 0.82493,-0.04693 0.28222,-0.0053 1.12674,0.01902 0.84664,-0.01585 -0.3018,-0.03757 -0.61922,-0.07337 -0.91235,0.0077 -0.26344,0.07284 0.54654,0.01064 0.81977,0.01791 0.65488,0.01746 1.30948,0.04463 1.96403,0.07132 0.40609,0.03385 0.81691,0.01471 1.22279,0.05143 0.15567,0.01408 0.26376,0.03207 0.25282,0.07857 -0.0107,0.04559 -0.0519,0.07799 -0.0778,0.116991 -0.64942,0.6775 -1.3974,1.252715 -2.11804,1.851657 -0.59785,0.506161 -1.19709,1.009941 -1.81729,1.48853 -0.30954,0.238845 -0.62774,0.465685 -0.94001,0.700905 0,0 1.89527,0.17619 1.89527,0.17619 v 0 c 0.31411,-0.23489 0.63224,-0.46427 0.94314,-0.70344 0.61632,-0.478225 1.2078,-0.985994 1.79614,-1.498114 0.37775,-0.321202 0.75792,-0.639413 1.13714,-0.958879 0.16164,-0.136176 0.61618,-0.516176 0.77339,-0.670965 0.0977,-0.09622 0.18357,-0.2038 0.27536,-0.305702 0.0501,-0.147071 0.18361,-0.352954 0.0172,-0.503701 -0.0622,-0.05634 -0.16006,-0.054 -0.2433,-0.0647 -0.11501,-0.01479 -0.2318,-0.0075 -0.3477,-0.01125 -0.46227,-0.01513 -0.44409,-0.01469 -0.93307,-0.0313 -2.1081,-0.0716 -4.21852,-0.143359 -6.32773,-0.06712 -0.27946,0.01826 -0.5595,0.02918 -0.83839,0.05473 -0.4691,0.04298 -1.09498,0.134588 -1.55825,0.217553 -0.39637,0.07099 -1.04657,0.200549 -1.43676,0.330338 -0.18027,0.05996 -0.34997,0.14795 -0.52495,0.221925 -0.089,0.101343 -0.21759,0.178517 -0.26691,0.304027 -0.0964,0.245277 0.12563,0.446019 0.26574,0.586774 0.39178,0.393573 0.86048,0.708586 1.26955,1.082427 0.92758,0.773199 1.86106,1.539997 2.77983,2.323277 0.12768,0.12689 0.37806,0.31306 0.39864,0.51917 0.0224,0.22426 -0.14255,0.43958 -0.20086,0.64261 -0.3179,0.70276 -0.64747,1.40048 -1.00763,2.08275 -0.40304,0.78059 -0.80772,1.56042 -1.22945,2.33113 -0.45172,0.82924 -0.91189,1.65396 -1.36974,2.47981 -0.44402,0.76424 -0.90359,1.51945 -1.3673,2.27187 -0.44783,0.72159 -0.8823,1.45116 -1.30896,2.18545 -0.40191,0.7011 -0.78823,1.41109 -1.16477,2.12612 -0.39856,0.73425 -0.79821,1.46794 -1.20441,2.19801 -0.44802,0.77907 -0.90381,1.55381 -1.37667,2.31812 -0.70742,1.14842 -1.43114,2.28691 -2.11955,3.44695 -1.15856,2.00749 -2.27312,4.04186 -3.29955,6.12037 -1.800338,3.66747 -3.560632,7.35545 -5.162314,11.11498 -0.839893,2.00197 -1.660438,4.01153 -2.48598,6.01945 -0.07303,0.17764 -1.268394,3.10194 -1.368549,3.36374 -0.165957,0.43381 -0.310727,0.87543 -0.46609,1.31315 -0.172482,0.61293 -0.469003,1.44916 -0.445244,2.11764 0.03042,0.85583 0.653225,1.42831 1.390798,1.74697 0.352507,0.15229 0.732486,0.23083 1.09873,0.34624 0.495456,0.0869 0.987764,0.19417 1.486369,0.26064 1.39274,0.18565 3.023647,0.27975 4.408101,0.32793 1.625479,0.0566 5.322309,0.0862 6.810919,0.0995 1.46705,0.0131 2.93413,0.0229 4.40119,0.0344 5.44149,0.0393 10.88406,0.0975 16.32576,0.0748 1.44411,-0.006 6.73681,0.0512 8.5649,-0.3591 0.15972,-0.0358 -0.002,-0.32738 -0.004,-0.49107 -0.0538,-0.19403 -0.10045,-0.39019 -0.16144,-0.58207 -0.0991,-0.31172 -0.45412,-1.26682 -0.55323,-1.53226 -0.10095,-0.27037 -0.67404,-1.7858 -0.76313,-2.0165 -0.13999,-0.36251 -0.28404,-0.72345 -0.42605,-1.08518 -0.3113,-0.75092 -0.49961,-1.23876 -0.85088,-1.96162 -0.1597,-0.32863 -0.49626,-0.99553 -0.75912,-1.29987 -0.22943,-0.26563 -0.49374,-0.3653 -0.79571,-0.52209 -0.17779,-0.063 -0.35346,-0.13237 -0.53337,-0.18907 -0.49481,-0.15594 -0.99938,-0.27905 -1.49797,-0.42242 -1.20103,-0.34535 -2.3943,-0.71696 -3.58319,-1.10187 -1.72388,-0.58503 -3.45355,-1.16706 -5.1195,-1.90647 -0.89911,-0.39907 -2.10742,-0.97025 -2.89826,-1.60305 -0.26405,-0.2113 -0.45561,-0.4999 -0.68341,-0.74984 0.0627,-0.246 0.0786,-0.50894 0.18806,-0.73798 0.13915,-0.29118 1.17947,-1.67237 1.30924,-1.84532 1.02691,-1.36863 2.07936,-2.71842 3.16997,-4.03701 1.28776,-1.53381 2.58121,-3.05666 3.9364,-4.5318 0.35472,-0.38612 1.47166,-1.54653 1.85282,-2.02604 0.18965,-0.23859 0.34438,-0.50296 0.51658,-0.75443 0.0782,-0.21859 0.19258,-0.42745 0.23474,-0.65576 0.0756,-0.40936 -0.036,-0.7893 -0.16774,-1.16926 -0.0775,-0.22354 -0.17692,-0.43886 -0.26645,-0.65786 -0.60333,-1.47575 -0.0783,-0.16679 -0.75242,-1.86363 -1.49198,-3.80386 -2.87433,-7.64848 -4.21308,-11.50876 -1.06698,-2.95053 -0.6045,-1.69033 -1.66421,-4.54923 -0.97254,-2.62374 -0.43816,-1.16308 -1.27421,-3.46934 -0.11393,-0.31428 -0.23429,-0.6263 -0.34197,-0.94278 -0.0622,-0.18285 -0.11167,-0.36979 -0.16751,-0.55468 z" />
    <path
       style="fill:#ffffff;stroke:#ffffff;stroke-width:1;stroke-linecap:round;stroke-linejoin:round;stroke-miterlimit:2;stroke-dasharray:none;stroke-dashoffset:0;paint-order:normal"
       id="path22"
       d="m 129.79456,107.70369 c 0.26905,1.20465 0.66032,2.37933 1.02803,3.55658 1.12442,3.28104 2.28995,6.54787 3.41791,9.8278 1.05512,3.09861 2.18798,6.16983 3.32742,9.23818 0.6285,1.67104 1.22708,3.35393 1.92282,4.99877 0.35372,0.83625 0.60003,1.36644 0.97275,2.18906 0.81292,1.84689 1.70385,3.65715 2.57035,5.47894 0.71441,1.51297 1.44195,3.01993 2.18979,4.51668 0.70599,1.4439 1.50902,2.83621 2.37868,4.18694 0.41789,0.54349 0.79279,1.35608 1.3829,1.73996 0.30469,0.19821 0.39477,0.17269 0.73981,0.21997 0.76867,-0.0328 1.54108,-0.016 2.30603,-0.0984 0.222,-0.0239 0.72378,-0.42139 0.85514,-0.52816 0.51519,-0.41876 0.95477,-0.90975 1.39915,-1.39999 0.95601,-1.10525 1.64409,-2.39143 2.27723,-3.69839 0.92911,-2.0214 1.73654,-4.09616 2.5506,-6.16579 1.14258,-2.95815 2.30911,-5.90683 3.43085,-8.87302 1.03006,-2.69823 1.86898,-5.45912 2.66686,-8.23269 0.6631,-2.31964 1.26788,-4.65433 1.7901,-7.00962 0.36197,-1.62454 0.67261,-3.25171 0.78118,-4.91385 -0.006,-0.89987 -0.0949,-1.80861 -0.39839,-2.66176 -0.16351,-0.45971 -0.27249,-0.62398 -0.50134,-1.04888 -0.69747,-1.16155 -1.87127,-1.84451 -3.03672,-2.45921 -1.87115,-0.89739 -3.92062,-1.2828 -5.94117,-1.68139 -2.50212,-0.50431 -5.03784,-0.78617 -7.57709,-1.01829 -2.28065,-0.20061 -4.56953,-0.2783 -6.85741,-0.3395 -2.28509,-0.0598 -4.56795,-0.0164 -6.84569,0.16261 -1.23973,0.1399 -2.48649,0.24851 -3.71054,0.49601 -0.53429,0.12085 -1.07243,0.28127 -1.54056,0.57509 -0.26419,0.16583 -0.31659,0.23551 -0.54162,0.4471 -0.51909,0.56345 -0.84658,1.25597 -1.10359,1.96917 -0.22292,0.67291 -0.37721,1.36516 -0.48431,2.06508 0,0 1.9376,0.0275 1.9376,0.0275 v 0 c 0.0907,-0.68766 0.23933,-1.36751 0.46903,-2.0231 0.26931,-0.68107 0.58873,-1.35233 1.11503,-1.87591 0.0838,-0.0716 0.16314,-0.14868 0.25136,-0.21471 0.52174,-0.39049 1.16488,-0.56853 1.79077,-0.70776 1.21488,-0.23123 2.44737,-0.35512 3.67706,-0.47876 0.73276,-0.0579 1.46406,-0.11211 2.19893,-0.13633 0.29089,-0.01 0.86276,0.27005 0.8729,-0.0208 2.6e-4,-0.008 -2.52547,-0.0234 0.11719,-0.005 2.30073,0.056 4.60227,0.12813 6.89628,0.32196 2.53615,0.22293 5.06804,0.50398 7.56751,1.00083 1.98702,0.38941 4.00066,0.77367 5.84617,1.64061 1.14248,0.58532 2.29586,1.23627 3.00004,2.3508 0.22257,0.39543 0.34628,0.58073 0.50816,1.00916 0.31268,0.82754 0.4151,1.71474 0.41346,2.59415 -0.0979,1.64707 -0.37648,3.2734 -0.71697,4.88689 -0.49683,2.35218 -1.09425,4.68094 -1.72911,6.99946 -0.78736,2.76936 -1.64245,5.51887 -2.64421,8.21927 -1.11205,2.9717 -2.2572,5.93104 -3.45658,8.86871 -0.83501,2.07092 -1.6964,4.13274 -2.66096,6.14731 -0.6384,1.28881 -1.32528,2.5616 -2.28705,3.64397 -0.44491,0.47916 -0.88552,0.96816 -1.41746,1.35499 -0.14978,0.10892 -0.30549,0.21125 -0.47007,0.29616 -0.12799,0.066 -0.5447,0.12621 -0.40349,0.15452 0.49661,0.0996 1.01194,0.0459 1.5179,0.0689 -0.3267,0.007 -0.42922,0.0483 -0.73511,-0.10405 -0.32044,-0.15958 -0.45525,-0.35164 -0.67838,-0.63028 -0.2883,-0.36003 -0.49092,-0.66153 -0.75901,-1.04227 -0.8874,-1.33315 -1.67331,-2.7272 -2.3777,-4.16577 -0.75705,-1.49473 -1.49722,-2.99806 -2.21541,-4.51187 -0.87782,-1.82166 -1.78398,-3.62971 -2.61457,-5.47391 -0.39399,-0.85124 -0.61519,-1.31476 -0.98899,-2.18186 -0.70796,-1.64221 -1.31794,-3.32358 -1.96161,-4.99141 -1.16471,-3.06444 -2.31094,-6.13622 -3.39127,-9.2316 -1.1398,-3.25721 -2.30536,-6.50872 -3.26455,-9.82506 -0.33279,-1.16162 -0.70194,-2.32458 -0.87577,-3.52312 z" />
    <path
       style="fill:#ffffff;stroke:#ffffff;stroke-width:1;stroke-linecap:round;stroke-linejoin:round;stroke-miterlimit:2;stroke-dasharray:none;stroke-dashoffset:0;paint-order:normal"
       id="path23"
       d="m 180.23682,107.4195 c -0.68561,1.54568 -1.38309,3.08601 -2.06784,4.63208 -1.29139,2.90646 -2.44776,5.87048 -3.52821,8.86102 -1.01974,2.86638 -1.86482,5.78966 -2.69501,8.71512 -0.73738,2.64825 -1.57676,5.26602 -2.31526,7.91382 -0.46242,1.82593 -0.84759,3.67264 -0.97634,5.55487 -0.0792,1.15799 -0.0582,1.51137 -0.054,2.65128 0.0729,1.43275 0.0802,2.90165 0.46042,4.29676 0.0461,0.16915 0.10744,0.33376 0.16116,0.50064 0.26969,0.6694 0.69256,1.29832 1.36689,1.6144 0.18432,0.0864 0.38144,0.14235 0.57215,0.21352 1.91907,0.39829 3.87554,0.62695 5.82924,0.77415 2.11776,0.0764 4.24638,0.15912 6.36388,0.0418 0.9088,-0.0779 1.81591,-0.19613 2.70929,-0.38145 0.68895,-0.1417 1.37002,-0.3138 2.04898,-0.49682 0.31182,-0.0893 0.6247,-0.18004 0.94623,-0.22804 0.68298,-0.10195 2.0841,-0.0547 -1.29819,-0.0265 0.28946,0.0236 0.26339,0.25502 0.22753,0.48299 -0.0622,0.36254 -0.21359,0.69639 -0.37545,1.02341 -0.26912,0.55402 -0.56855,1.09337 -0.87901,1.62522 -0.36507,0.61371 -0.78941,1.18581 -1.22861,1.74738 -0.44187,0.56956 -0.93576,1.09494 -1.41275,1.63441 -0.42198,0.48485 -0.90088,0.91148 -1.36996,1.34854 -0.59637,0.5275 -1.23884,0.99904 -1.89495,1.44875 -0.69305,0.46779 -1.38941,0.93045 -2.10087,1.36982 -0.75375,0.4403 -1.51579,0.86731 -2.29934,1.25241 -0.61793,0.3346 -1.28504,0.55231 -1.94784,0.7766 -0.5896,0.21256 -1.18029,0.42131 -1.77993,0.60393 -0.54052,0.15597 -1.08311,0.30415 -1.63001,0.43628 -0.50117,0.10778 -1.00316,0.20603 -1.51131,0.27459 -0.3827,0.0713 -0.76622,0.14764 -1.13945,0.25938 -0.33701,0.11869 -0.63166,0.32735 -0.91312,0.54279 -0.33754,0.24352 -0.48146,0.59426 -0.54877,0.99134 0.004,0.10274 -0.001,0.20634 0.0129,0.30822 0.14606,1.06861 0.66629,2.06545 1.11799,3.02728 0.75043,1.50793 1.57778,2.97575 2.37472,4.45926 0.43568,0.79522 0.83214,1.61777 1.37558,2.34696 0.66477,0.79121 1.60719,1.00825 2.58004,1.19303 1.32067,0.16908 2.65904,0.11906 3.98518,0.0309 0.26501,-0.0176 0.52334,-0.0927 0.78166,-0.15444 0.67709,-0.16175 0.9728,-0.28222 1.63502,-0.51053 1.7569,-0.65258 3.39798,-1.56279 5.03891,-2.45804 1.41047,-0.77674 2.83363,-1.53007 4.24438,-2.30629 1.1783,-0.64828 2.30306,-1.41763 3.32557,-2.29355 0.21347,-0.18286 0.4142,-0.3801 0.62129,-0.57016 1.33167,-1.26009 2.27173,-2.84918 3.17387,-4.42728 1.00586,-1.90728 1.75268,-3.93922 2.50818,-5.95518 0.66837,-1.74359 1.17348,-3.54113 1.62378,-5.35122 0.44208,-1.80109 0.76282,-3.62992 1.06048,-5.45965 0.25384,-1.32359 0.31839,-2.66485 0.21423,-4.00584 -0.13995,-1.4841 -0.52567,-2.92691 -0.93155,-4.35615 -0.69003,-2.26323 -1.51654,-4.48183 -2.34941,-6.69549 -0.92813,-2.37908 -1.90737,-4.73718 -2.93792,-7.07357 -0.97347,-2.17838 -2.04171,-4.311 -3.16587,-6.41489 -0.99713,-1.87507 -1.98574,-3.75491 -2.9984,-5.62167 -0.73489,-1.33622 -1.46838,-2.67322 -2.21373,-4.00364 -0.56006,-1.01036 -1.116,-2.0231 -1.70563,-3.01663 -0.3533,-0.56904 -0.74518,-1.11593 -1.23578,-1.57427 -0.88542,-0.72121 -2.19534,-0.60267 -3.25133,-0.30046 -0.68539,0.22604 -1.28453,0.60769 -1.84878,1.04807 -0.50615,0.39684 -0.84434,0.8264 -1.1841,1.36427 0,0 1.93431,0.1108 1.93431,0.1108 v 0 c 0.32479,-0.49439 0.69962,-0.94082 1.17734,-1.29741 0.5628,-0.41944 1.16507,-0.78205 1.84979,-0.96493 0.81755,-0.14364 0.59601,-0.0849 -1.37446,-0.0843 -0.069,2e-5 0.13744,0.0158 0.20459,0.0317 0.10558,0.025 0.27718,0.0905 0.37233,0.14421 0.0592,0.0334 0.11236,0.0763 0.16854,0.11446 0.51287,0.42236 0.91241,0.95604 1.27014,1.51291 0.61407,0.98363 1.18365,1.99339 1.74473,3.00799 0.75221,1.3316 1.51034,2.65992 2.24688,4.0003 1.04091,1.8611 2.06765,3.73064 3.06552,5.61516 1.10189,2.10991 2.17859,4.23345 3.1599,6.40275 1.0343,2.33126 2.0364,4.67746 2.93888,7.06344 0.82941,2.20307 1.66407,4.40901 2.28732,6.68149 0.38864,1.41888 0.745,2.85225 0.88351,4.32085 0.10626,1.32493 0.0542,2.65034 -0.17555,3.96198 -0.27791,1.8271 -0.57899,3.65298 -1.04736,5.44287 -0.46417,1.79688 -0.9372,3.59357 -1.59338,5.33245 -0.74338,2.01432 -1.49662,4.03583 -2.52848,5.92431 -0.90013,1.56715 -1.8528,3.12818 -3.18934,4.3682 -1.21379,1.08673 -2.51113,2.06155 -3.95893,2.81896 -1.40253,0.77236 -2.81383,1.52873 -4.21183,2.3093 -1.6363,0.89793 -3.28416,1.79117 -5.04517,2.42464 -0.66836,0.21918 -0.96184,0.33522 -1.64526,0.48269 -0.25995,0.0561 -1.01233,-0.005 -0.78623,0.1354 0.31184,0.1931 0.7344,0.0165 1.09881,0.0582 0.45428,0.0519 -1.81122,-0.0566 -1.36969,-0.0748 -0.91105,-0.15056 -1.85987,-0.34709 -2.50849,-1.05907 -0.57321,-0.70798 -0.9851,-1.5269 -1.43873,-2.31282 -0.82051,-1.4706 -1.66761,-2.92837 -2.40189,-4.44496 -0.45776,-1.01652 -0.99679,-2.08081 -1.01836,-3.21838 0.0787,-0.35716 0.23592,-0.63903 0.54856,-0.84446 0.28033,-0.19716 0.56903,-0.38662 0.90583,-0.47143 0.37226,-0.094 0.74655,-0.1809 1.12684,-0.23622 0.50629,-0.0785 1.00806,-0.181 1.50757,-0.29481 0.54633,-0.13958 1.09041,-0.28723 1.63087,-0.44818 0.59203,-0.19196 1.17729,-0.40253 1.76384,-0.61044 0.66558,-0.22689 1.33006,-0.46057 1.94695,-0.80372 0.77694,-0.40013 1.54049,-0.82594 2.29287,-1.27054 0.71185,-0.44516 1.41426,-0.90512 2.1074,-1.37893 0.65806,-0.46199 1.30664,-0.94003 1.90852,-1.47427 0.4779,-0.43474 0.94775,-0.87667 1.36861,-1.36849 0.4796,-0.54096 0.97076,-1.07262 1.41126,-1.6468 0.44154,-0.56995 0.86913,-1.15025 1.2346,-1.77303 0.3127,-0.538 0.6189,-1.08045 0.89694,-1.6373 0.17235,-0.34586 0.33374,-0.69862 0.39332,-1.08409 0.045,-0.30998 0.0637,-0.63625 -0.25169,-0.80482 -0.70372,-0.004 -1.40744,-0.0159 -2.11116,-0.0125 -0.48198,0.002 -0.94895,0.2062 -1.41278,0.30568 -0.67605,0.17957 -1.35401,0.34982 -2.04049,0.48566 -0.88193,0.17202 -1.77415,0.2974 -2.67088,0.35855 -1.0612,0.051 -0.53698,0.0152 0.68776,0.0379 0.23404,0.004 -0.46816,1.5e-4 -0.70223,-0.001 -0.88762,-0.005 -1.77542,-0.0188 -2.66207,-0.0635 -1.92809,-0.13744 -3.85803,-0.35631 -5.75445,-0.73402 -0.18107,-0.0609 -0.36697,-0.10889 -0.5432,-0.1826 -0.65557,-0.27421 -1.0919,-0.8416 -1.37009,-1.47574 -0.0588,-0.16133 -0.1251,-0.32011 -0.17629,-0.48401 -0.42823,-1.3713 -0.47791,-2.83118 -0.57573,-4.25222 -0.0191,-1.11388 -0.0484,-1.50175 0.028,-2.63276 0.12648,-1.87187 0.51578,-3.71164 0.988,-5.52358 0.73791,-2.64567 1.57493,-5.26262 2.29438,-7.91376 0.82299,-2.92145 1.6613,-5.84036 2.67155,-8.7039 1.06833,-2.99758 2.22799,-5.96263 3.58065,-8.84497 0.72076,-1.56056 1.44752,-3.1189 2.26966,-4.62944 z" />
    <path
       style="fill:#ffffff;stroke:#ffffff;stroke-width:1;stroke-linecap:round;stroke-linejoin:round;stroke-miterlimit:2;stroke-dasharray:none;stroke-dashoffset:0;paint-order:normal"
       id="path24"
       d="m 197.86475,108.07564 c 0.61384,1.46803 1.19331,2.94998 1.76889,4.43337 1.38566,3.37705 2.68234,6.78897 3.96964,10.20438 1.49955,3.96253 2.84619,7.97831 4.0299,12.04584 0.8986,3.03325 1.54379,6.1282 2.07758,9.2434 0.40768,2.33684 0.63498,4.69614 0.83415,7.05784 0.12689,1.79996 0.2952,3.59628 0.47452,5.39162 0.0731,0.79207 0.15093,1.59013 0.38903,2.35223 0.13151,0.37855 0.3896,0.61562 0.7486,0.76995 0.37165,0.11025 0.74716,0.20586 1.11802,0.31929 0.44526,0.14275 0.89872,0.25977 1.35405,0.36555 0.4756,0.086 0.95017,0.17194 1.41903,0.29021 1.08867,0.31948 2.10594,0.21212 3.27157,0.20979 0.73105,-0.17036 1.23062,-0.71304 1.66334,-1.29102 0.73203,-1.11327 0.99262,-2.42541 1.2365,-3.7125 0.36979,-2.04915 0.68025,-4.10894 0.96359,-6.17168 0.30448,-2.23135 0.54407,-4.47108 0.78084,-6.71046 0.35394,-3.12665 0.69724,-6.25445 1.04343,-9.38198 0.29376,-2.58145 0.57502,-5.16419 0.91843,-7.73962 0.29789,-2.09304 0.70817,-4.1673 1.17783,-6.22789 0.39181,-1.69368 0.9032,-3.35637 1.38711,-5.02522 0.33388,-1.09358 0.67648,-2.18453 1.00372,-3.28009 0.22769,-0.82414 0.43198,-1.66127 0.38467,-2.52049 -0.0674,-0.24067 -0.0909,-0.41724 -0.24682,-0.62065 -0.46471,-0.60612 -1.52267,-0.68653 -2.2094,-0.80832 -2.72576,-0.34931 -5.48877,-0.24515 -8.22976,-0.20886 -0.66309,0.01 -1.62211,0.0303 -2.28997,0.0175 -0.25733,-0.005 1.02894,0.01 0.77209,-0.007 -0.34314,-0.0219 -0.68765,-0.006 -1.03148,-0.0101 -2.05203,-0.0213 -0.36428,-0.0121 -3.82512,-0.007 -1.64996,-0.007 -3.29415,0.13825 -4.93289,0.31456 -1.10829,0.12484 -2.21197,0.28034 -3.32347,0.37629 -0.92951,0.0727 -1.86158,0.10212 -2.79345,0.12322 -0.64516,0.0132 -1.29045,0.019 -1.93573,0.0226 -0.31655,0.001 -0.16054,7.9e-4 -0.46804,0.002 0,0 1.94787,0.30764 1.94787,0.30764 v 0 c 0.30524,-0.002 0.15042,-8e-4 0.46444,-0.003 0.63865,-0.006 1.27729,-0.0136 1.91578,-0.0292 0.92932,-0.0245 1.85879,-0.0583 2.78535,-0.13723 1.10334,-0.10282 2.19956,-0.26071 3.3007,-0.38314 1.62673,-0.17547 3.2593,-0.30812 4.89698,-0.30051 -0.29621,-0.002 -1.18462,-0.0176 -0.88862,-0.006 0.0432,0.002 2.01803,0.0207 2.04275,0.0208 1.73038,0.007 3.46147,0.0193 5.19173,-0.0147 0.4012,-0.005 0.80266,0.001 1.20359,-0.0144 0.2156,-0.008 -0.86301,-0.007 -0.64725,-0.007 1.32181,-9e-5 2.64877,0.0236 3.95976,0.20905 0.56638,0.0931 1.71473,0.19468 2.13465,0.64573 0.15523,0.16675 0.1804,0.32119 0.24981,0.53026 0.0653,0.83729 -0.15411,1.64894 -0.3716,2.452 -0.31682,1.09539 -0.64306,2.18803 -0.96246,3.28269 -0.47167,1.67432 -0.98364,3.33903 -1.36688,5.0366 -0.45775,2.0673 -0.85678,4.1478 -1.15002,6.24538 -0.33041,2.57709 -0.60351,5.16045 -0.8756,7.74425 -0.32907,3.12966 -0.67166,6.25778 -1.06136,9.38059 -0.27573,2.2351 -0.52719,4.47329 -0.82314,6.70578 -0.28269,2.05961 -0.58181,4.11853 -0.97814,6.15978 -0.26774,1.2573 -0.54317,2.5487 -1.2927,3.62123 -0.43907,0.54126 -0.94042,1.04866 -1.67103,1.1208 3.39667,0.0344 1.42504,0.079 0.63158,-0.17034 -0.46923,-0.12126 -0.93976,-0.23213 -1.42078,-0.29679 -0.4547,-0.0936 -0.90379,-0.21659 -1.34896,-0.34751 -0.36462,-0.12199 -0.734,-0.23128 -1.10935,-0.31366 -0.33824,-0.0961 -0.6056,-0.24892 -0.74564,-0.59101 -0.26482,-0.74169 -0.34904,-1.53172 -0.44107,-2.30963 -0.21273,-1.79196 -0.39708,-3.58685 -0.53125,-5.38663 -0.20515,-2.36751 -0.42885,-4.73422 -0.86002,-7.07388 -0.5623,-3.12222 -1.22576,-6.22528 -2.1569,-9.26161 -1.20464,-4.0668 -2.56073,-8.08565 -4.04946,-12.05761 -1.25649,-3.41373 -2.54723,-6.81431 -3.85177,-10.20992 -0.55179,-1.477 -1.11377,-2.95065 -1.64544,-4.43489 z" />
    <path
       style="fill:#ffffff;stroke:#ffffff;stroke-width:1;stroke-linecap:round;stroke-linejoin:round;stroke-miterlimit:2;stroke-dasharray:none;stroke-dashoffset:0;paint-order:normal"
       id="path25"
       d="m 233.68418,103.33354 c -1.17603,-0.11266 -2.34603,-0.27562 -3.51725,-0.42863 -2.25427,-0.31439 -4.51122,-0.61036 -6.77034,-0.88784 -1.78082,-0.23111 -3.57438,-0.32222 -5.36738,-0.39145 -1.44143,-0.0544 -2.88379,-0.0716 -4.32603,-0.086 -0.87104,-0.0213 -1.74348,0.007 -2.61409,-0.0286 -0.61826,-0.0471 -0.76664,0.005 -0.78598,-0.66226 0.029,-0.59984 0.21523,-1.161478 0.45982,-1.703834 0.46084,-0.924669 1.54784,-0.979816 2.45737,-1.116118 0.34267,-0.02803 0.68472,-0.06509 1.02801,-0.08408 0.85253,-0.04715 1.59745,-0.0388 2.45372,-0.05013 0.16147,-0.0021 -0.64595,5.3e-4 -0.48447,0.0019 1.03899,0.0085 2.07801,0.0104 3.117,0.01738 3.63655,0.02564 7.27017,0.149449 10.89912,0.382108 3.78051,0.252836 7.54896,0.650484 11.32147,0.99703 3.4642,0.322106 6.937,0.532349 10.41271,0.676666 3.54016,0.129928 7.08459,0.139078 10.6262,0.06944 1.90086,-0.0491 3.80127,-0.112856 5.70222,-0.15938 0.20746,-0.0046 0.82992,-0.01535 0.62241,-0.01376 -0.45149,0.0035 -0.9048,-0.02228 -1.35441,0.01937 -0.17166,0.0159 0.34417,0.02823 0.5139,0.05847 0.52475,0.09348 0.96055,0.30713 1.42275,0.56026 0.90786,0.55496 1.62316,1.34418 2.24554,2.19542 0.22334,0.3753 0.66318,0.87265 0.46564,1.35257 -0.0319,0.0775 -0.0893,0.14195 -0.13401,0.21293 -0.70469,0.72937 -1.65571,1.04564 -2.60884,1.30339 -1.82203,0.40339 -3.69639,0.47316 -5.55448,0.55188 -0.50985,0.0168 -1.59532,0.0549 -2.11614,0.0626 -0.32384,0.005 -0.65968,0.09 -0.97163,0.003 -0.30742,-0.0858 0.64198,0.0414 0.9575,-0.007 0.27567,-0.0421 -0.5577,-0.007 -0.83653,-0.0116 -0.25996,-0.004 -0.5199,-0.009 -0.77985,-0.0136 -1.24465,-0.0176 -2.47991,-0.18294 -3.72056,-0.26284 -1.3764,-0.10565 -2.55237,-0.11701 -3.79345,0.36547 -0.37379,0.15707 -0.58662,0.44514 -0.72827,0.81126 -0.15933,0.3455 -0.22572,0.71734 -0.27759,1.09106 -0.0661,0.71305 -0.0647,1.43061 -0.0915,2.14593 -0.042,1.54985 0.036,3.09853 0.15535,4.6432 0.30651,2.92407 0.91833,5.80391 1.54146,8.67352 0.75567,3.46331 1.56291,6.91482 2.38836,10.36205 0.75461,3.12441 1.62273,6.21931 2.44581,9.32589 0.56188,2.24303 1.169,4.4737 1.78513,6.70226 0.49218,1.73918 0.91568,3.49669 1.31459,5.25927 0.27309,1.23687 0.4961,2.48296 0.71533,3.73009 0.15851,0.88726 0.28734,1.77947 0.43699,2.66812 0.0314,0.50065 0.26716,1.03271 0.17234,1.54024 -0.0152,0.0816 -0.0554,0.15651 -0.0831,0.23476 -0.51073,0.8354 -1.47714,1.22191 -2.34806,1.5692 -0.22591,0.0759 -0.44807,0.16414 -0.67775,0.22776 -0.48945,0.13557 -1.32531,0.28987 -1.81071,0.37802 -1.06263,0.19298 -2.1254,0.3373 -3.19771,0.4637 -2.44378,0.26078 -4.90209,0.33248 -7.35727,0.39583 -1.57026,0.0327 -3.14078,0.0565 -4.71136,0.0665 -0.25899,0.002 1.03357,0.0269 0.77693,-0.008 -0.34912,-0.0474 -0.70436,-0.02 -1.05654,-0.0301 -1.74428,-0.0154 -3.4708,-0.24912 -5.18542,-0.5495 -1.32503,-0.19228 -2.56661,-0.66932 -3.79201,-1.18683 -0.95803,-0.43625 -1.90002,-0.89415 -2.68016,-1.61102 -0.2322,-0.3117 -0.38751,-0.47107 -0.51385,-0.85487 -0.3681,-1.11825 -0.13644,-2.45283 0.003,-3.58697 0.45031,-3.03353 1.43986,-5.95001 2.40758,-8.84904 1.14821,-3.21404 2.17793,-6.46757 3.18607,-9.72762 1.06987,-3.4866 1.8824,-7.04203 2.66591,-10.60139 0.65417,-2.95547 1.19313,-5.93304 1.66535,-8.92234 0.32636,-2.1506 0.66116,-4.29971 0.95365,-6.45524 0.22462,-1.62841 0.34003,-3.26783 0.4213,-4.90866 0.0664,-1.18362 0.0531,-2.37638 -0.13222,-3.54876 -0.24292,-1.28665 -1.04418,-1.51201 -2.18906,-1.91267 -1.40403,-0.41067 -2.84629,-0.66361 -4.28521,-0.91462 0,0 -1.85589,0.26183 -1.85589,0.26183 v 0 c 1.43262,0.23987 2.86856,0.48263 4.26631,0.88636 1.04418,0.35271 1.86959,0.5355 2.11848,1.71171 0.209,1.1564 0.23017,2.33527 0.16981,3.50717 -0.0731,1.6351 -0.18396,3.26891 -0.39449,4.89284 -0.27915,2.1537 -0.60523,4.30081 -0.90584,6.45158 -0.4627,2.98397 -0.9711,5.96036 -1.60889,8.91275 -0.76461,3.55975 -1.60084,7.10574 -2.67832,10.58589 -1.00346,3.26023 -2.0421,6.50936 -3.18628,9.72344 -0.97455,2.91348 -1.98225,5.84265 -2.47961,8.8828 -0.15883,1.16727 -0.40718,2.53252 -0.0724,3.69482 0.1161,0.40311 0.28167,0.59315 0.50921,0.92789 0.11418,0.11291 0.21979,0.23521 0.34255,0.33872 0.69515,0.58616 1.56545,0.93547 2.3681,1.33921 1.23111,0.52493 2.47147,1.03532 3.80626,1.22875 1.72864,0.3067 3.46968,0.55398 5.22909,0.57058 2.88625,0.093 5.77435,0.0217 8.66074,-0.0315 2.46133,-0.0665 4.92602,-0.14133 7.37523,-0.41043 1.07856,-0.13034 2.14849,-0.27758 3.21726,-0.4743 0.56225,-0.10348 1.29102,-0.23963 1.8468,-0.39994 0.23244,-0.067 0.45706,-0.15877 0.68559,-0.23815 0.91576,-0.38368 1.92583,-0.80839 2.40891,-1.73442 0.0285,-0.0969 0.0694,-0.19097 0.0855,-0.29069 0.0842,-0.52424 -0.14436,-1.06269 -0.18795,-1.57819 -0.15261,-0.88953 -0.29946,-1.78009 -0.45256,-2.66955 -0.22786,-1.25058 -0.47678,-2.49649 -0.75105,-3.73786 -0.39568,-1.76936 -0.85816,-3.52318 -1.35225,-5.26748 -0.61706,-2.23068 -1.22977,-4.46245 -1.82144,-6.70001 -0.84776,-3.10228 -1.73871,-6.19326 -2.49562,-9.31966 -0.82586,-3.44488 -1.62574,-6.89576 -2.37391,-10.35846 -0.61704,-2.85747 -1.21081,-5.7297 -1.44268,-8.64912 -0.10599,-1.53732 -0.18123,-3.07901 -0.11818,-4.62017 0.0414,-0.70933 0.0724,-1.42004 0.13941,-2.12734 0.0519,-0.35819 0.12538,-0.71136 0.28121,-1.04098 0.14405,-0.32121 0.36847,-0.53264 0.70593,-0.6514 0.24856,-0.0912 0.49268,-0.17171 0.75338,-0.22271 0.64791,-0.12677 2.07346,-0.10157 -0.83593,-0.0873 1.25522,0.0581 2.50244,0.24204 3.7601,0.26415 2.48896,0.0414 4.97972,0.0672 7.46725,-0.0446 1.87902,-0.0825 3.7765,-0.15365 5.61441,-0.58714 0.98861,-0.28522 1.98945,-0.63615 2.67118,-1.45159 0.0468,-0.0931 0.10787,-0.18035 0.14044,-0.27935 0.18185,-0.55254 -0.21553,-1.07498 -0.49406,-1.50865 -0.63413,-0.86861 -1.35678,-1.68121 -2.26272,-2.27563 -0.39086,-0.23372 -0.51405,-0.332189 -0.94085,-0.490397 -1.29503,-0.480028 -2.72619,-0.211672 -4.07721,-0.225396 -1.8753,0.0522 -3.7501,0.120187 -5.62547,0.170051 -2.61987,0.04929 -4.01902,0.04703 -7.02398,-0.06176 -3.49185,-0.138081 -6.98143,-0.337061 -10.46161,-0.659908 -3.76941,-0.351454 -7.5357,-0.742468 -11.31296,-1.003141 -3.61781,-0.240416 -7.24087,-0.362075 -10.86658,-0.397595 -2.07777,-0.01654 -4.15473,-0.03105 -6.23271,-0.02455 -0.71211,0.0021 -1.76578,0.01484 -2.48531,0.0594 -0.35028,0.0217 -0.69907,0.06297 -1.0486,0.09446 -1.03192,0.170143 -2.06278,0.252534 -2.54741,1.300972 -0.24747,0.571696 -0.43123,1.162194 -0.46491,1.789224 0.008,0.72937 0.0489,0.90677 0.81216,0.95477 0.88407,0.0613 1.77354,5.3e-4 2.65893,0.0308 1.4502,0.0114 2.90046,0.0285 4.34999,0.0768 1.799,0.0642 3.59851,0.15107 5.38626,0.37281 2.25344,0.26721 4.50464,0.55639 6.74947,0.88856 1.14318,0.15493 2.28531,0.31838 3.43158,0.44757 z" />
    <path
       style="fill:#ffffff;stroke:#ffffff;stroke-width:1;stroke-linecap:round;stroke-linejoin:round;stroke-miterlimit:2;stroke-dasharray:none;stroke-dashoffset:0;paint-order:normal"
       id="path27"
       d="m 143.98577,113.76227 c 0.63011,0.004 1.55881,-0.0731 -1.32355,0.006 -0.12131,0.003 0.2422,0.0158 0.36311,0.0261 0.17435,0.0149 0.68023,0.0676 0.8472,0.0847 0.93099,0.0935 1.85572,0.23442 2.77651,0.39876 0.89563,0.16337 1.78716,0.34987 2.67158,0.56582 0.77719,0.19114 1.54903,0.40205 2.31103,0.64687 0.60215,0.19568 1.18487,0.44405 1.74062,0.74675 0.43491,0.23802 0.79577,0.56928 1.11233,0.9462 0.31323,0.39333 0.43845,0.87183 0.53289,1.35531 0.10659,0.53032 0.10657,1.06434 0.0322,1.59765 -0.11573,0.69803 -0.33892,1.373 -0.54588,2.04803 -0.28795,0.93078 -0.54859,1.86969 -0.80469,2.80964 -0.29602,1.07109 -0.56224,2.15011 -0.82777,3.22907 -0.2019,0.78459 -0.3816,1.57929 -0.64846,2.34514 -0.20552,0.51813 -0.47895,0.76536 -0.93414,1.06 -0.21225,0.11813 -0.4332,0.24782 -0.67373,0.30096 -0.0913,0.0202 -0.18516,0.0281 -0.27852,0.0328 -0.1003,0.005 -0.40166,-0.001 -0.30126,-0.004 0.52661,-0.0128 1.05338,-0.0183 1.58007,-0.0274 -0.72772,-0.11973 -1.3162,-0.54192 -1.85904,-1.01447 -0.55546,-0.51721 -1.03291,-1.11036 -1.49201,-1.7126 -0.66524,-0.83817 -1.18286,-1.772 -1.66974,-2.72057 -0.41669,-0.85882 -0.80226,-1.73275 -1.14653,-2.62308 -0.26696,-0.69634 -0.51462,-1.39987 -0.74806,-2.10808 -0.21286,-0.6658 -0.44101,-1.32652 -0.663,-1.98932 -0.23193,-0.71794 -0.4111,-1.45047 -0.56707,-2.18813 -0.11345,-0.49198 -0.18244,-0.98625 -0.17053,-1.49087 0.008,-0.31988 0.0549,-0.63609 0.1657,-0.93645 0.0797,-0.27877 0.25624,-0.46971 0.479,-0.64405 0.34079,-0.27987 0.75322,-0.42948 1.15791,-0.58914 0,0 -1.89754,-0.22748 -1.89754,-0.22748 v 0 c -0.42793,0.17071 -0.85732,0.3398 -1.20973,0.64659 -0.23268,0.20978 -0.41018,0.44113 -0.493,0.74898 -0.10422,0.3235 -0.15193,0.65858 -0.14921,0.99897 -0.002,0.52126 0.0659,1.03114 0.20323,1.53534 0.17285,0.74107 0.34385,1.4827 0.57892,2.20729 0.21835,0.66252 0.42685,1.32811 0.64513,1.99063 0.244,0.71044 0.5103,1.41294 0.77422,2.11618 0.35313,0.89814 0.75807,1.77397 1.18263,2.64049 0.48456,0.95177 0.99568,1.89391 1.63258,2.75432 0.45156,0.61863 0.93509,1.2164 1.48443,1.75176 0.54546,0.49702 1.13374,0.94506 1.86193,1.13339 0.74049,0.0143 1.48086,0.037 2.22146,0.0428 0.47088,0.004 0.89728,-0.18005 1.28237,-0.43712 0.45866,-0.33061 0.74294,-0.64077 0.92905,-1.18705 0.23838,-0.7754 0.3906,-1.57572 0.58885,-2.36185 0.25593,-1.07953 0.52674,-2.15556 0.82945,-3.22304 0.26212,-0.93854 0.53498,-1.87421 0.83317,-2.802 0.22156,-0.68407 0.45476,-1.3692 0.57977,-2.07896 0.0786,-0.55425 0.0784,-1.10978 -0.0296,-1.66144 -0.0972,-0.51088 -0.21405,-1.02391 -0.5269,-1.45208 -0.32069,-0.39845 -0.6844,-0.75754 -1.12951,-1.01742 -0.56175,-0.32071 -1.15774,-0.57581 -1.7713,-0.78055 -0.7645,-0.25342 -1.54112,-0.46538 -2.32279,-0.65917 -0.88944,-0.22441 -1.78913,-0.40594 -2.69052,-0.57539 -0.91675,-0.16908 -1.83686,-0.3185 -2.76453,-0.41486 -0.14327,-0.0152 -0.28653,-0.0304 -0.4298,-0.0457 -0.13288,-0.0152 -0.26566,-0.0313 -0.39865,-0.0455 -0.11589,-0.0124 -0.23144,-0.0317 -0.34796,-0.0343 -0.73593,-0.0165 -1.47216,-0.0155 -2.20824,-0.0229 -0.11135,-0.001 -0.2227,-7.9e-4 -0.33404,-0.002 z" />
    <path
       style="fill:#ffffff;stroke:#ffffff;stroke-width:1;stroke-linecap:round;stroke-linejoin:round;stroke-miterlimit:2;stroke-dasharray:none;stroke-dashoffset:0;paint-order:normal"
       id="path28"
       d="m 180.09498,126.58517 c -0.30895,0.83021 -0.64363,1.65076 -0.94612,2.48361 -0.48903,1.30416 -0.91452,2.63118 -1.26925,3.97792 -0.18456,0.73431 -0.35406,1.47431 -0.43296,2.22843 -0.0395,0.37774 -0.0515,0.66581 -0.0729,1.04308 -0.0483,0.73167 -0.0207,1.46543 0.0482,2.19465 0.0629,0.44971 0.11097,0.93112 0.36261,1.32376 0.054,0.0843 0.12292,0.15795 0.18439,0.23693 0.60291,0.54507 1.40939,0.73768 2.1833,0.90416 0.8504,0.14991 1.71089,0.23429 2.57004,0.31603 0.69185,0.0645 1.3858,0.10128 2.08006,0.12629 1.19734,0.0587 2.39246,0.0594 3.5803,-0.0839 0.4003,-0.0495 0.79114,-0.13718 1.16509,-0.28861 0.3252,-0.19447 0.44013,-0.57415 0.53435,-0.9192 0.15,-0.55765 0.0722,-1.11904 -0.0282,-1.67681 -0.20973,-0.94957 -0.62471,-1.83904 -1.0425,-2.71194 -0.57282,-1.10357 -1.15945,-2.19989 -1.74257,-3.29804 -0.49191,-0.93277 -0.99243,-1.86087 -1.48113,-2.79533 -0.33493,-0.6522 -0.70358,-1.28677 -1.11886,-1.89105 -0.21023,-0.29699 -0.45972,-0.56405 -0.78027,-0.74014 -0.81259,-0.3088 -1.80741,-0.34272 -2.59184,0.0439 -0.13153,0.058 -0.24367,0.14922 -0.3592,0.23289 0,0 1.95165,0.19159 1.95165,0.19159 v 0 c 0.11704,-0.0729 0.23355,-0.1461 0.36499,-0.19118 0.085,-0.0268 0.12401,-0.044 0.2127,-0.0531 0.0325,-0.003 0.13061,-10e-4 0.0979,-10e-4 -3.27109,-0.029 -2.30346,-0.0683 -1.63172,0.003 0.34349,0.11913 0.58167,0.35431 0.80673,0.63508 0.44358,0.58487 0.82373,1.21438 1.16829,1.86212 0.50247,0.93107 1.00819,1.86039 1.50428,2.79489 0.59039,1.09082 1.19959,2.17267 1.74155,3.28871 0.40068,0.85748 0.79769,1.72965 0.98494,2.66299 0.0897,0.52905 0.14806,1.06347 -0.004,1.58813 -0.0961,0.30502 -0.21035,0.61969 -0.53634,0.73729 -0.36618,0.12597 -0.74375,0.20358 -1.12895,0.24568 -0.27055,0.0303 -0.53923,0.0575 -0.81151,0.0666 -0.0913,0.003 -0.36556,0.005 -0.27416,0.005 2.20913,0.0155 2.06472,0.0142 1.32083,-0.003 -0.70328,-0.0205 -1.40643,-0.0509 -2.10762,-0.11074 -0.85722,-0.0756 -1.71409,-0.16336 -2.56461,-0.29584 -0.74687,-0.14336 -1.52098,-0.30755 -2.13802,-0.77898 -0.0594,-0.066 -0.12619,-0.12606 -0.17821,-0.19804 -0.25995,-0.35964 -0.29851,-0.82541 -0.36509,-1.24846 -0.0805,-0.71868 -0.13659,-1.44178 -0.10203,-2.16546 0.0167,-0.38689 0.022,-0.64076 0.0626,-1.02855 0.078,-0.74478 0.23939,-1.47817 0.41187,-2.20573 0.33956,-1.34261 0.74234,-2.66989 1.25603,-3.95714 0.3407,-0.83513 0.68769,-1.66948 1.09314,-2.47571 z" />
    <path
       style="fill:#ffffff;stroke:#ffffff;stroke-width:1;stroke-linecap:round;stroke-linejoin:round;stroke-miterlimit:2;stroke-dasharray:none;stroke-dashoffset:0;paint-order:normal"
       id="path29"
       d="m 209.9289,84.229428 c -0.44663,0.685885 -0.93216,1.345425 -1.40805,2.011138 -0.60923,0.828641 -1.23426,1.645941 -1.81452,2.495375 -0.33903,0.492572 -0.6688,0.992688 -0.91148,1.540444 -0.2379,0.448445 -0.30024,0.674095 0.14362,0.997072 0.6115,0.311274 1.29238,0.430374 1.96449,0.529844 0.75879,0.100422 1.52452,0.126198 2.28876,0.148794 0.67988,0.01736 1.35996,0.02442 2.04004,0.02897 0.67774,0.03297 1.35424,0.08587 2.03205,0.120005 0.58851,0.0078 1.17274,0.07124 1.75756,0.130249 1.00991,0.0442 2.55896,0.405889 3.30414,-0.02477 0.037,-0.05382 0.0927,-0.09877 0.11104,-0.16147 0.12681,-0.434073 -0.0996,-1.049319 -0.2529,-1.450922 -0.33282,-0.705945 -0.79203,-1.343705 -1.22241,-1.992347 -0.48414,-0.698042 -1.03943,-1.343112 -1.59149,-1.987648 -0.48803,-0.573354 -0.99909,-1.127725 -1.52365,-1.667854 -0.35353,-0.359079 -0.74507,-0.678368 -1.23785,-0.80935 -1.9161,-0.117054 -1.93987,-0.215873 -3.133,0.500391 -0.32859,0.193133 -0.16357,0.09384 -0.49492,0.298082 0,0 1.95332,0.200777 1.95332,0.200777 v 0 c 0.3337,-0.200324 0.16731,-0.101987 0.4991,-0.295106 0.19776,-0.114985 0.39607,-0.24403 0.61075,-0.326451 0.61793,-0.237236 2.01723,0.0019 -1.39152,-0.101285 0.50061,0.03507 0.88725,0.349269 1.24115,0.684922 0.52994,0.533005 1.044,1.083188 1.53215,1.654701 0.55335,0.634386 1.10297,1.276257 1.58998,1.963441 0.4255,0.634336 0.86902,1.263558 1.20657,1.950337 0.10654,0.270359 0.39004,0.949015 0.23956,1.23222 -0.0193,0.03629 -0.0671,0.04746 -0.10068,0.07119 -0.71773,0.135884 -0.267,0.04055 1.59371,0.03737 0.0769,-1.29e-4 -0.1537,-0.0071 -0.23051,-0.01125 -0.16625,-0.009 -0.32803,-0.01939 -0.49411,-0.03208 -0.0878,-0.0067 -0.17556,-0.01442 -0.26334,-0.02164 -0.58909,-0.05538 -1.1759,-0.137784 -1.76883,-0.138295 -0.67679,-0.03096 -1.35265,-0.07332 -2.02787,-0.129 -0.68316,-0.0035 -1.36633,-0.0084 -2.04935,-0.02326 -0.76188,-0.01921 -1.52496,-0.04073 -2.28273,-0.127855 -0.65849,-0.08538 -1.32235,-0.189269 -1.93584,-0.45603 -0.45899,-0.197525 -0.32687,-0.300919 -0.13799,-0.70871 0.24192,-0.532795 0.56411,-1.021977 0.88892,-1.507398 0.57137,-0.849431 1.18318,-1.67032 1.79524,-2.490666 0.48871,-0.668274 0.97775,-1.336381 1.46029,-2.009015 z" />
    <path
       style="fill:#ffffff;stroke:#ffffff;stroke-width:1;stroke-linecap:round;stroke-linejoin:round;stroke-miterlimit:2;stroke-dasharray:none;stroke-dashoffset:0;paint-order:normal"
       id="path31"
       d="m 90.416501,158.55467 c 0.769815,0.12333 1.552424,0.15696 2.329751,0.20703 1.699226,0.0976 3.399401,0.17912 5.099143,0.26785 1.785519,0.0929 3.572945,0.13623 5.360215,0.1779 1.51868,0.0408 3.03765,0.0678 4.55675,0.0865 1.31907,0.0147 2.63824,0.0182 3.95737,0.0239 1.19953,0.001 2.39906,0.003 3.59858,0.006 1.73587,-0.003 3.47186,0.007 5.20761,-0.0157 1.19979,-0.0186 2.39965,-0.0194 3.59874,-0.0666 1.19893,-0.0453 2.39673,-0.11493 3.59549,-0.16427 0.15678,-0.005 0.31351,-0.0125 0.47034,-0.0163 0.1593,-0.004 0.31866,-0.005 0.47801,-0.007 0.15808,-0.001 0.63236,-0.002 0.47427,-0.002 -0.45074,0.002 -0.90156,-0.004 -1.3522,0.005 -0.15357,0.003 0.30712,0.007 0.46061,0.0129 0.15315,0.006 0.30616,0.0147 0.45924,0.022 0.95952,0.0525 1.91082,0.18777 2.85378,0.36829 0.91164,0.17349 1.76742,0.52747 2.5908,0.94516 0.57875,0.30887 1.1003,0.71002 1.57243,1.16313 0.12725,0.14184 0.41659,0.39736 0.44659,0.59641 0.006,0.0423 -0.003,0.0855 -0.004,0.12826 -0.095,0.41538 -0.41069,0.70201 -0.72887,0.95985 -0.39893,0.29639 -0.85409,0.49032 -1.32277,0.64524 -0.6491,0.19668 -1.32732,0.26112 -2.00023,0.31718 -0.86846,0.0616 -1.7394,0.0741 -2.60966,0.0862 0.43848,-7e-5 0.87697,0.001 1.31545,-2.1e-4 0.18816,-5.3e-4 -0.37632,-0.001 -0.56448,-0.002 -0.20997,-10e-4 -0.41994,-0.002 -0.62992,-0.004 -1.29552,-0.008 -2.59104,-0.007 -3.88656,0.001 -1.87192,0.0225 -3.74324,0.0783 -5.61444,0.13265 -1.81917,0.0509 -3.63797,0.11435 -5.45693,0.17204 -2.59415,0.0741 -2.61301,0.0737 -4.94183,0.0244 -1.99102,-0.0504 -3.97851,-0.18151 -5.96545,-0.31239 -1.74963,-0.095 -3.49776,-0.2141 -5.245568,-0.33761 -1.304459,-0.0858 -2.60509,-0.21497 -3.903366,-0.36622 -1.080069,-0.13057 -2.153806,-0.30637 -3.224303,-0.49908 -0.477271,-0.0924 -0.957953,-0.17687 -1.426514,-0.3088 -0.121893,-0.0343 -0.244393,-0.0683 -0.362056,-0.11506 -0.306623,-0.122 -0.336031,-0.16687 -0.596294,-0.35473 -0.297965,-0.28221 -0.478282,-0.63981 -0.476512,-1.0558 0.0011,-0.26093 0.04572,-0.36741 0.110705,-0.61962 0.177583,-0.53406 0.523581,-0.97217 0.994529,-1.2793 0.101486,-0.0662 0.210367,-0.12026 0.31555,-0.18039 0.803063,-0.39371 1.68765,-0.53627 2.568808,-0.62238 0.153257,-0.006 0.306429,-0.0145 0.459771,-0.0167 0.150911,-0.002 0.603663,0.001 0.452761,0.004 -0.45306,0.008 -0.906529,-0.005 -1.35934,0.0125 -0.158551,0.006 0.317053,0.0133 0.475539,0.0208 0.153209,0.007 0.306358,0.0159 0.459536,0.0238 0,0 1.817253,-0.27819 1.817253,-0.27819 v 0 c -1.372732,-0.0711 -2.750465,-0.11724 -4.123269,-0.0339 -0.898747,0.10685 -1.802513,0.2691 -2.610913,0.6978 -0.107842,0.0675 -0.219964,0.12864 -0.32353,0.20255 -0.486434,0.34716 -0.831908,0.83288 -1.008034,1.40278 -0.06688,0.26709 -0.118533,0.40618 -0.121756,0.68364 -0.0054,0.46435 0.186304,0.87639 0.499214,1.21091 0.23908,0.19176 0.330062,0.2897 0.61718,0.41606 0.122346,0.0538 0.252238,0.0891 0.380772,0.12577 0.485331,0.13855 0.985917,0.21791 1.480572,0.3134 1.063347,0.19105 2.126636,0.38816 3.200093,0.51473 1.334632,0.14295 2.670627,0.27173 4.010377,0.35755 1.760198,0.12408 3.521155,0.23542 5.283045,0.33278 2.0151,0.13179 4.03058,0.2595 6.0499,0.30642 2.72836,0.068 5.45868,0.0604 8.18696,-0.01 1.79907,-0.0548 3.59759,-0.12484 5.3966,-0.18104 1.90489,-0.0548 3.81011,-0.0981 5.71578,-0.11258 0.25376,-5.3e-4 1.01503,-2.2e-4 0.76128,-0.002 -0.33906,-0.002 -0.6782,-0.007 -1.01718,2.1e-4 -0.22186,0.005 0.44379,0.005 0.66568,0.007 1.15456,0.0132 2.30908,0.032 3.46383,0.0139 0.87806,-0.0155 1.75712,-0.0279 2.63302,-0.0961 0.68871,-0.0642 1.38407,-0.1385 2.04373,-0.35783 0.48004,-0.17305 0.94375,-0.38763 1.34092,-0.71451 0.34663,-0.30714 0.67341,-0.64458 0.7643,-1.11656 0.01,-0.16354 0.0321,-0.20386 -0.0299,-0.35301 -0.0836,-0.20102 -0.29877,-0.3845 -0.44497,-0.53743 -0.50199,-0.46044 -1.05022,-0.87113 -1.64195,-1.20984 -0.8332,-0.42641 -1.69779,-0.79948 -2.61811,-0.99271 -0.9402,-0.19494 -1.89208,-0.32806 -2.85023,-0.39575 -1.5374,-0.0852 -3.07928,-0.0673 -4.61763,-0.0152 -1.17524,0.0554 -2.34916,0.13805 -3.52533,0.17317 -1.2098,0.0336 -2.41998,0.0376 -3.63005,0.0581 -0.19727,0.003 -0.78904,0.004 -0.5918,0.008 0.38747,0.008 0.77509,0.002 1.16264,0.004 0.1926,0.001 -0.38522,-7.9e-4 -0.57782,-10e-4 -0.54585,-5.2e-4 -1.09171,2.7e-4 -1.63756,-7.9e-4 -1.20905,0.002 -2.41811,0.002 -3.62717,-10e-4 -1.32915,-0.001 -2.65829,-0.006 -3.98739,-0.0177 -1.53759,-0.015 -3.0751,-0.0376 -4.61231,-0.0756 -1.79613,-0.0439 -3.59286,-0.0749 -5.387338,-0.16895 -1.658302,-0.0852 -3.31653,-0.1741 -4.973367,-0.28451 -0.715341,-0.0485 -1.434907,-0.0862 -2.142792,-0.20478 z" />
  </g>
</svg>
