<?xml version="1.0" encoding="UTF-8" standalone="no"?>
<!-- Created with Inkscape (http://www.inkscape.org/) -->

<svg
   width="151.82635mm"
   height="151.82635mm"
   viewBox="0 0 151.82636 151.82636"
   version="1.1"
   id="svg1"
   sodipodi:docname="Move Grading Icons Template.svg"
   inkscape:version="1.4.2 (f4327f4, 2025-05-13)"
   xmlns:inkscape="http://www.inkscape.org/namespaces/inkscape"
   xmlns:sodipodi="http://sodipodi.sourceforge.net/DTD/sodipodi-0.dtd"
   xmlns="http://www.w3.org/2000/svg"
   xmlns:svg="http://www.w3.org/2000/svg">
  <sodipodi:namedview
     id="namedview1"
     pagecolor="#505050"
     bordercolor="#eeeeee"
     borderopacity="1"
     inkscape:showpageshadow="0"
     inkscape:pageopacity="0"
     inkscape:pagecheckerboard="0"
     inkscape:deskcolor="#505050"
     inkscape:document-units="mm"
     inkscape:zoom="0.25"
     inkscape:cx="350"
     inkscape:cy="502"
     inkscape:window-width="1920"
     inkscape:window-height="1017"
     inkscape:window-x="1912"
     inkscape:window-y="-8"
     inkscape:window-maximized="1"
     inkscape:current-layer="layer1" />
  <defs
     id="defs1" />
  <g
     inkscape:label="Layer 1"
     inkscape:groupmode="layer"
     id="layer1"
     transform="translate(50.433829,2.489501)">
    <circle
       style="fill:#000000;stroke:#000000;stroke-width:17.4633;stroke-linecap:round;stroke-linejoin:round"
       id="path1"
       cx="25.479347"
       cy="73.423676"
       r="67.181526" />
    <path
       style="fill:#ffffff;stroke:#ffffff;stroke-width:19.0852;stroke-linecap:round;stroke-linejoin:round;stroke-dasharray:none"
       id="path5-8-2-2-8-17"
       d="m 40.068733,265.09813 c 0.03298,0.84212 0.02175,1.68501 0.01778,2.52746 -0.01232,0.72543 -0.0043,1.45082 -0.0043,2.17622 -0.0014,0.4799 -7.13e-4,0.2429 -0.0026,0.71106 0,0 5.392252,0 5.392252,0 v 0 c -0.0025,-0.46816 -0.0012,-0.23116 -0.0025,-0.71106 3.39e-4,-0.7254 0.0088,-1.45079 -0.0037,-2.17622 -0.0037,-0.84245 -0.01521,-1.68534 0.01786,-2.52746 z" />
    <path
       style="fill:#ffffff;stroke:#ffffff;stroke-width:18;stroke-linecap:round;stroke-linejoin:round;stroke-dasharray:none"
       id="path3-8-7"
       d="m 31.754799,183.11994 c 0.92485,-1.60379 2.20085,-2.99097 3.70121,-4.0767 0.48038,-0.34763 0.99292,-0.6485 1.48937,-0.97276 0.56332,-0.31459 1.10589,-0.66962 1.68995,-0.94379 2.75388,-1.29273 5.865499,-1.94825 8.889259,-2.13299 0.72879,-0.0445 1.46007,-0.0252 2.1901,-0.0378 -0.51521,0.0364 -1.87098,-0.29191 -1.54563,0.10923 0.39702,0.4895 1.25196,0.15851 1.86858,0.28895 0.58163,0.12304 1.156,0.28344 1.72039,0.47025 0.95574,0.31636 2.21857,0.87391 3.09193,1.38139 0.50426,0.29301 0.97344,0.64261 1.46015,0.96391 2.15881,1.70051 4.1096,3.83409 5.41712,6.26896 0.21797,0.40591 0.39371,0.83311 0.59057,1.24966 0.87838,2.12953 1.22389,4.39089 1.39132,6.67113 0.0315,1.33731 0.0274,2.68382 -0.22991,4.00222 -0.15373,0.78773 -0.34979,1.39024 -0.57523,2.15838 -0.62197,1.91797 -1.47545,3.73998 -2.49661,5.47444 -0.75655,1.09136 -1.47405,2.22371 -2.32487,3.24666 -0.55927,0.67241 -1.03133,1.11742 -1.65689,1.7486 -2.11318,2.09521 -4.56218,3.78413 -7.0066,5.46027 -1.85016,1.28634 -3.82314,2.3878 -5.63289,3.7317 -1.233109,1.09051 -1.635939,2.70416 -1.972759,4.25111 -0.44154,2.46893 -0.51976,4.98333 -0.61876,7.48396 -0.0925,2.0898 -0.10691,4.18095 -0.1165,6.27226 -0.0521,1.35082 -0.16354,2.69823 -0.24268,4.04763 0,0 3.911329,0.0181 3.911329,0.0181 v 0 c 0.0463,-1.35561 0.14076,-2.70913 0.16885,-4.06542 -0.006,-2.08617 -0.004,-4.1729 0.0414,-6.25863 0.0862,-2.48111 0.20906,-4.96961 0.68857,-7.41183 0.35403,-1.47711 0.77182,-2.98142 2.00226,-3.97854 1.76402,-1.34331 3.67599,-2.47515 5.50338,-3.72822 2.45207,-1.69876 4.88886,-3.43262 7.02721,-5.52621 0.75597,-0.74273 1.07151,-1.0095 1.72022,-1.79602 0.85535,-1.03704 1.57712,-2.18361 2.33158,-3.29294 1.02478,-1.76304 1.86716,-3.62016 2.47629,-5.56962 0.23058,-0.8049 0.41309,-1.38303 0.58028,-2.20629 0.27382,-1.34829 0.28914,-2.72017 0.2449,-4.09063 -0.18269,-2.3294 -0.5646,-4.63276 -1.4627,-6.80687 -0.20044,-0.4299 -0.3761,-0.87224 -0.60132,-1.28969 -0.99245,-1.83948 -2.62133,-3.83816 -4.12951,-5.27382 -0.42872,-0.40811 -0.90208,-0.7666 -1.35312,-1.1499 -0.48415,-0.33666 -0.94835,-0.70399 -1.45244,-1.00997 -0.84621,-0.51364 -2.19077,-1.12672 -3.12018,-1.45184 -3.02038,-1.05657 -6.06175,-1.04419 -9.27333,-0.94954 -0.72364,0.0238 -1.44898,0.0165 -2.17091,0.0715 -3.062019,0.23352 -6.189069,0.94332 -8.971019,2.26936 -0.59268,0.28251 -1.14447,0.64381 -1.71671,0.96571 -0.51616,0.33589 -1.04986,0.64626 -1.54848,1.00768 -1.56166,1.13195 -2.84267,2.59814 -3.90859,4.19427 z" />
    <path
       style="fill:#ffffff;fill-opacity:1;stroke:#ffffff;stroke-width:16;stroke-linecap:round;stroke-linejoin:round;stroke-opacity:1"
       id="path2"
       d="m -51.575233,180.39075 c 3.23421,4.48473 6.10146,9.22517 9.06144,13.89283 5.08425,8.06324 10.29289,16.04753 15.45649,24.06012 4.08583,6.47602 8.101596,12.99592 12.098106,19.52733 3.276042,5.24508 6.4845173,10.53075 9.6783663,15.8259 1.297233,2.16517 2.439799,4.41684 3.598277,6.65731 0.08368,0.16641 0.167368,0.33282 0.251053,0.49922 0,0 3.927491,-0.18712 3.927491,-0.18712 v 0 c -0.08899,-0.16847 -0.177983,-0.33694 -0.266973,-0.50541 -1.25027497,-2.2331 -2.44207197,-4.50208 -3.810746,-6.66797 -3.291623,-5.26309 -6.509726,-10.5721 -9.8323583,-15.81608 -3.979262,-6.5617 -8.05049,-13.06788 -12.185236,-19.53269 -5.22071,-7.96482 -10.44137,-15.9309 -15.40957,-24.05712 -2.87933,-4.64375 -5.69906,-9.32388 -8.62031,-13.94139 z" />
    <path
       style="fill:#ffffff;fill-opacity:1;stroke:#ffffff;stroke-width:16;stroke-linecap:round;stroke-linejoin:round;stroke-opacity:1"
       id="path2-8"
       d="m 2.2228143,180.52554 c -3.23421,4.48473 -6.10146,9.22517 -9.06144,13.89283 -5.0842473,8.06323 -10.2928873,16.04752 -15.4564873,24.06011 -4.08583,6.47602 -8.1016,12.99592 -12.09811,19.52733 -3.27604,5.24508 -6.48451,10.53075 -9.67836,15.8259 -1.29723,2.16517 -2.4398,4.41684 -3.59827,6.65731 -0.0837,0.16641 -0.16737,0.33282 -0.25106,0.49922 0,0 -3.92749,-0.18712 -3.92749,-0.18712 v 0 c 0.089,-0.16847 0.17799,-0.33694 0.26698,-0.50541 1.25027,-2.2331 2.44207,-4.50208 3.81074,-6.66797 3.29162,-5.26309 6.50973,-10.5721 9.83235,-15.81608 3.97927,-6.5617 8.05049,-13.06788 12.18524,-19.53269 5.22071,-7.96482 10.44137,-15.9309 15.40957,-24.05711 2.8793273,-4.64375 5.6990573,-9.32388 8.6203073,-13.94139 z" />
    <path
       style="fill:#ffffff;stroke:#ffffff;stroke-width:24;stroke-linecap:round;stroke-linejoin:round;stroke-miterlimit:2;stroke-dasharray:none"
       id="path3"
       d="m -314.24766,218.54677 c 1.01907,2.44599 2.13768,4.85166 3.22456,7.26864 1.88551,4.17026 3.84584,8.30589 5.7772,12.45498 1.74271,3.7454 3.47651,7.49456 5.17629,11.25962 0.58755,1.28611 1.13271,2.59394 1.76137,3.86115 0.2426,0.48902 0.58859,1.18584 0.9687,1.61042 0.14658,0.16373 0.33892,0.27984 0.50838,0.41976 1.17737,0.25419 1.20798,0.32044 3.02058,-0.0911 0.29303,-0.0665 0.51123,-0.31885 0.74462,-0.50813 1.07655,-0.8731 1.88258,-1.98198 2.70721,-3.08065 2.72479,-4.00284 5.11022,-8.225 7.55982,-12.39872 3.57214,-5.96216 7.50079,-11.70306 11.40333,-17.45177 3.55509,-5.24994 7.2481,-10.40565 11.07577,-15.45999 3.14503,-4.09737 6.45453,-8.06422 9.77513,-12.01937 2.88823,-3.43176 5.88465,-6.76974 8.90417,-10.08578 1.1953,-1.32589 2.4261,-2.61889 3.65582,-3.91267 0,0 -1.7448,-0.13244 -1.7448,-0.13244 v 0 c -1.22069,1.29639 -2.4413,2.59304 -3.63106,3.91807 -3.00859,3.32265 -6.00006,6.66181 -8.88389,10.09403 -3.31282,3.9577 -6.61211,7.92905 -9.7477,12.02982 -3.81267,5.05987 -7.48747,10.22271 -11.03671,15.4709 -3.90186,5.76161 -7.83025,11.51369 -11.44722,17.45993 -2.46018,4.17317 -4.85714,8.3968 -7.62887,12.37419 -0.83195,1.0771 -1.64567,2.18875 -2.74659,3.01573 -0.23453,0.17618 -0.90435,0.20726 -0.75162,0.45769 0.20112,0.32975 0.77091,0.0847 1.14381,0.18533 0.18374,0.0496 -0.38009,-0.0203 -0.57013,-0.0305 -0.17179,-0.12226 -0.3677,-0.21629 -0.51536,-0.3668 -0.39193,-0.39949 -0.75104,-1.10383 -0.99205,-1.57658 -0.64376,-1.26273 -1.1942,-2.57196 -1.79059,-3.85686 -1.72028,-3.76146 -3.469,-7.50953 -5.21405,-11.25957 -1.92942,-4.14585 -3.8878,-8.27843 -5.75428,-12.45324 -1.06571,-2.406 -2.16773,-4.80176 -3.11939,-7.25507 z" />
    <path
       sodipodi:type="star"
       style="fill:#ffffff;stroke:#ffffff;stroke-width:16;stroke-linecap:round;stroke-linejoin:round;stroke-miterlimit:2"
       id="path4"
       inkscape:flatsided="false"
       sodipodi:sides="5"
       sodipodi:cx="-306.02133"
       sodipodi:cy="179.01466"
       sodipodi:r1="54.481041"
       sodipodi:r2="27.24052"
       sodipodi:arg1="1.0636978"
       sodipodi:arg2="1.6920164"
       inkscape:rounded="0"
       inkscape:randomized="0"
       d="m -279.563,226.63966 -29.75235,-20.58437 -33.82397,12.83968 10.38292,-34.65709 -22.66344,-28.20083 36.16934,-0.83489 19.8172,-30.26875 11.97096,34.1411 34.91115,9.49372 -28.77089,21.93524 z"
       inkscape:transform-center-x="-1.8166836"
       inkscape:transform-center-y="-2.8806707"
       transform="matrix(0.89236644,0,0,0.89236644,298.64722,-85.838934)" />
    <path
       style="fill:#ffffff;stroke:#ffffff;stroke-width:24;stroke-linecap:round;stroke-linejoin:round;stroke-miterlimit:2;stroke-dasharray:none"
       id="path5"
       d="m -195.13485,217.25121 c 0.95198,-2.15365 2.271,-4.12029 3.60039,-6.05423 1.35477,-1.90675 2.89412,-3.67833 4.75363,-5.10992 1.32612,-1.02095 1.81336,-1.2499 3.26281,-2.1104 2.77807,-1.5162 5.74986,-2.76289 8.92607,-3.08792 0.57297,-0.0586 1.15059,-0.0557 1.72589,-0.0837 2.23347,0.30466 4.42806,0.79012 6.47284,1.77394 0.45219,0.21756 0.88248,0.47797 1.32372,0.71697 2.53992,1.51014 4.6338,3.58922 6.60785,5.75865 2.36696,2.74802 4.53552,5.65791 6.79472,8.49338 2.71832,3.48255 5.90394,6.52425 9.31927,9.30818 2.3793,1.71343 4.74215,3.61355 7.46815,4.76713 0.49132,0.20793 1.00706,0.35259 1.51059,0.52888 2.89547,0.79047 5.90746,0.89549 8.8886,0.65784 0.49065,-0.0391 0.97171,-0.15773 1.45757,-0.23658 3.10641,-0.60502 5.83701,-2.14898 8.45992,-3.84615 2.33061,-1.52605 4.30152,-3.4735 6.12876,-5.55675 1.50936,-1.76502 2.79277,-3.70259 4.04235,-5.65515 0.8659,-1.35382 1.70372,-2.72583 2.5104,-4.11576 0,0 -1.35058,-0.071 -1.35058,-0.071 v 0 c -0.80308,1.38745 -1.63494,2.75846 -2.49604,4.11068 -1.24221,1.94801 -2.52056,3.87972 -4.02872,5.6357 -1.82344,2.07182 -3.79146,4.00636 -6.116,5.52116 -2.62003,1.6876 -5.35171,3.21158 -8.45553,3.79144 -0.48534,0.0749 -0.97415,0.13004 -1.45602,0.22469 -0.0618,0.0121 -0.10126,0.0905 -0.16416,0.0935 -2.05856,0.10011 -4.12595,-0.22644 -6.11719,-0.71594 -0.50262,-0.17067 -1.01752,-0.30873 -1.50785,-0.51201 -2.73439,-1.13356 -5.10181,-3.03482 -7.48811,-4.73626 -3.41751,-2.76974 -6.60547,-5.79821 -9.31332,-9.28064 -2.25527,-2.83575 -4.41839,-5.7466 -6.77117,-8.5035 -1.97542,-2.18293 -4.07463,-4.27151 -6.61389,-5.80233 -0.44195,-0.24314 -0.87267,-0.50792 -1.32584,-0.72942 -2.83788,-1.3872 -5.93006,-1.89827 -9.07309,-1.81849 -0.57526,0.0325 -1.15306,0.0345 -1.72578,0.0975 -3.17668,0.34949 -6.1458,1.61386 -8.92315,3.13806 -1.45422,0.86938 -1.94189,1.09996 -3.27128,2.13103 -1.86246,1.44455 -3.40379,3.22845 -4.76346,5.14416 -1.3417,1.94955 -2.66759,3.93086 -3.6654,6.08385 z" />
    <path
       style="fill:#ffffff;fill-opacity:1;stroke:#ffffff;stroke-width:20.354;stroke-linecap:round;stroke-linejoin:round;stroke-miterlimit:2;stroke-dasharray:none;stroke-opacity:1"
       id="path8"
       d="m 47.661704,175.23556 c -0.125109,1.34695 -0.276193,2.69103 -0.413966,4.03651 -0.464769,4.5035 -0.75908,9.02474 -1.105346,13.53999 -0.48181,6.05856 -1.008013,12.11281 -1.561528,18.16416 -0.417119,4.6435 -0.839015,9.28655 -1.269229,13.92868 -0.280015,3.08391 -0.558642,6.16816 -0.809628,9.25506 -0.138369,1.66196 -0.28516,3.32307 -0.431654,4.98417 0,0 1.461053,0.0148 1.461053,0.0148 v 0 c 0.137895,-1.66196 0.285067,-3.32301 0.419378,-4.98532 0.240571,-3.08582 0.498397,-6.17009 0.759594,-9.25393 0.401444,-4.64308 0.802262,-9.28621 1.203523,-13.92933 0.531513,-6.05359 1.035592,-12.10985 1.544291,-18.16566 0.38347,-4.51461 0.701746,-9.03777 1.25181,-13.53365 0.158778,-1.34714 0.324531,-2.69325 0.495563,-4.03863 z" />
    <path
       style="fill:#ffffff;fill-opacity:1;stroke:#ffffff;stroke-width:20.354;stroke-linecap:round;stroke-linejoin:round;stroke-miterlimit:2;stroke-dasharray:none;stroke-opacity:1"
       id="path8-8"
       d="m 37.856515,175.23348 c 0.125119,1.34693 0.276203,2.69101 0.413966,4.03652 0.464779,4.50349 0.759091,9.02472 1.105357,13.53996 0.481809,6.05854 1.008002,12.11282 1.561518,18.16417 0.417118,4.6435 0.839014,9.28656 1.269229,13.92867 0.280024,3.08392 0.558661,6.16817 0.809638,9.25505 0.138369,1.66196 0.285149,3.32308 0.431653,4.9842 0,0 -1.461052,0.0148 -1.461052,0.0148 v 0 c -0.137896,-1.66198 -0.285067,-3.32302 -0.419378,-4.98532 -0.240571,-3.08581 -0.498398,-6.17006 -0.759595,-9.25393 -0.401454,-4.64308 -0.802262,-9.28622 -1.203532,-13.92935 -0.531514,-6.05357 -1.035593,-12.10982 -1.544283,-18.16568 -0.383479,-4.51457 -0.701754,-9.03775 -1.251819,-13.5336 -0.158778,-1.34715 -0.324531,-2.69327 -0.495563,-4.03865 z" />
    <rect
       style="fill:#ffffff;fill-opacity:1;stroke:#ffffff;stroke-width:14.3301;stroke-linecap:round;stroke-linejoin:round;stroke-miterlimit:2;stroke-dasharray:none;stroke-opacity:1"
       id="rect10"
       width="11.330688"
       height="0.4195469"
       x="37.003334"
       y="172.17055" />
    <path
       style="fill:#ffffff;stroke:#ffffff;stroke-width:19.0852;stroke-linecap:round;stroke-linejoin:round;stroke-dasharray:none"
       id="path5-8-2-2-8-17-7"
       d="m 78.058796,265.09814 c 0.033,0.84212 0.0217,1.68501 0.0178,2.52746 -0.0123,0.72543 -0.004,1.45082 -0.004,2.17622 -0.001,0.4799 -7.1e-4,0.2429 -0.003,0.71106 0,0 5.392264,0 5.392264,0 v 0 c -0.002,-0.46816 -0.001,-0.23116 -0.002,-0.71106 3.3e-4,-0.7254 0.009,-1.45079 -0.004,-2.17622 -0.004,-0.84245 -0.0152,-1.68534 0.0179,-2.52746 z" />
    <path
       style="fill:#ffffff;stroke:#ffffff;stroke-width:18;stroke-linecap:round;stroke-linejoin:round;stroke-dasharray:none"
       id="path3-8-7-6"
       d="m 68.544866,183.11995 c 0.92485,-1.60379 2.20085,-2.99097 3.70121,-4.0767 0.48038,-0.34763 0.99292,-0.6485 1.48937,-0.97276 0.56332,-0.31459 1.10589,-0.66962 1.68995,-0.94379 2.75388,-1.29273 5.865504,-1.94825 8.889264,-2.13299 0.72879,-0.0445 1.46007,-0.0252 2.1901,-0.0378 -0.51521,0.0364 -1.87098,-0.29191 -1.54563,0.10923 0.39702,0.4895 1.25196,0.15851 1.86858,0.28895 0.58163,0.12304 1.156,0.28344 1.72039,0.47025 0.95574,0.31636 2.21857,0.87391 3.09193,1.38139 0.50426,0.29301 0.97344,0.64261 1.46015,0.96391 2.15881,1.70051 4.1096,3.83409 5.41712,6.26896 0.21797,0.40591 0.39371,0.83311 0.59057,1.24966 0.87838,2.12953 1.22389,4.39089 1.39132,6.67113 0.0315,1.33731 0.0274,2.68382 -0.22991,4.00222 -0.15373,0.78773 -0.34979,1.39024 -0.57523,2.15838 -0.62197,1.91797 -1.47545,3.73998 -2.49661,5.47444 -0.75655,1.09136 -1.47405,2.22371 -2.32487,3.24666 -0.55927,0.67241 -1.03133,1.11742 -1.65689,1.7486 -2.11318,2.09521 -4.56218,3.78413 -7.0066,5.46027 -1.85016,1.28634 -3.82314,2.3878 -5.63289,3.7317 -1.233114,1.09051 -1.635944,2.70416 -1.972764,4.25111 -0.44154,2.46893 -0.51976,4.98333 -0.61876,7.48396 -0.0925,2.0898 -0.10691,4.18095 -0.1165,6.27226 -0.0521,1.35082 -0.16354,2.69823 -0.24268,4.04763 0,0 3.911334,0.0181 3.911334,0.0181 v 0 c 0.0463,-1.35561 0.14076,-2.70913 0.16885,-4.06542 -0.006,-2.08617 -0.004,-4.1729 0.0414,-6.25863 0.0862,-2.48111 0.20906,-4.96961 0.68857,-7.41183 0.35403,-1.47711 0.77182,-2.98142 2.00226,-3.97854 1.76402,-1.34331 3.67599,-2.47515 5.50338,-3.72822 2.45207,-1.69876 4.88886,-3.43262 7.02721,-5.52621 0.75597,-0.74273 1.07151,-1.0095 1.72022,-1.79602 0.85535,-1.03704 1.57712,-2.18361 2.33158,-3.29294 1.02478,-1.76304 1.86716,-3.62016 2.47629,-5.56962 0.23058,-0.8049 0.41309,-1.38303 0.58028,-2.20629 0.27382,-1.34829 0.28914,-2.72017 0.2449,-4.09063 -0.18269,-2.3294 -0.5646,-4.63276 -1.4627,-6.80687 -0.20044,-0.4299 -0.3761,-0.87224 -0.60132,-1.28969 -0.99245,-1.83948 -2.62133,-3.83816 -4.12951,-5.27382 -0.42872,-0.40811 -0.90208,-0.7666 -1.35312,-1.1499 -0.48415,-0.33666 -0.94835,-0.70399 -1.45244,-1.00997 -0.84621,-0.51364 -2.19077,-1.12672 -3.12018,-1.45184 -3.02038,-1.05657 -6.06175,-1.04419 -9.27333,-0.94954 -0.72364,0.0238 -1.44898,0.0165 -2.17091,0.0715 -3.062024,0.23352 -6.189074,0.94332 -8.971024,2.26936 -0.59268,0.28251 -1.14447,0.64381 -1.71671,0.96571 -0.51616,0.33589 -1.04986,0.64626 -1.54848,1.00768 -1.56166,1.13195 -2.84267,2.59814 -3.90859,4.19427 z" />
    <path
       style="fill:#ffffff;fill-opacity:1;stroke:#ffffff;stroke-width:20.354;stroke-linecap:round;stroke-linejoin:round;stroke-miterlimit:2;stroke-dasharray:none;stroke-opacity:1"
       id="path8-1"
       d="m 84.45177,175.23557 c -0.1251,1.34695 -0.27619,2.69103 -0.41396,4.03651 -0.46477,4.5035 -0.75908,9.02474 -1.10535,13.53999 -0.48181,6.05856 -1.00801,12.11281 -1.56153,18.16416 -0.41711,4.6435 -0.83901,9.28655 -1.269234,13.92868 -0.28001,3.08391 -0.55864,6.16816 -0.80962,9.25506 -0.13837,1.66196 -0.28516,3.32307 -0.43166,4.98417 0,0 1.46106,0.0148 1.46106,0.0148 v 0 c 0.137894,-1.66196 0.285064,-3.32301 0.419374,-4.98532 0.24057,-3.08582 0.4984,-6.17009 0.7596,-9.25393 0.40144,-4.64308 0.80226,-9.28621 1.20352,-13.92933 0.53151,-6.05359 1.03559,-12.10985 1.54429,-18.16566 0.38347,-4.51461 0.70175,-9.03777 1.25181,-13.53365 0.15878,-1.34714 0.32453,-2.69325 0.49556,-4.03863 z" />
    <path
       style="fill:#ffffff;fill-opacity:1;stroke:#ffffff;stroke-width:20.354;stroke-linecap:round;stroke-linejoin:round;stroke-miterlimit:2;stroke-dasharray:none;stroke-opacity:1"
       id="path8-8-4"
       d="m 74.646586,175.23349 c 0.12511,1.34693 0.2762,2.69101 0.41396,4.03652 0.46478,4.50349 0.75909,9.02472 1.10536,13.53996 0.48181,6.05854 1.008,12.11282 1.56152,18.16417 0.41711,4.6435 0.83901,9.28656 1.26923,13.92867 0.28002,3.08392 0.55866,6.16817 0.80963,9.25505 0.13837,1.66196 0.28515,3.32308 0.43166,4.9842 0,0 -1.46106,0.0148 -1.46106,0.0148 v 0 c -0.13789,-1.66198 -0.28506,-3.32302 -0.41937,-4.98532 -0.24057,-3.08581 -0.4984,-6.17006 -0.7596,-9.25393 -0.40145,-4.64308 -0.80226,-9.28622 -1.20353,-13.92935 -0.53152,-6.05357 -1.03559,-12.10982 -1.54428,-18.16568 -0.38348,-4.51457 -0.70176,-9.03775 -1.25182,-13.5336 -0.15878,-1.34715 -0.32453,-2.69327 -0.49557,-4.03865 z" />
    <rect
       style="fill:#ffffff;fill-opacity:1;stroke:#ffffff;stroke-width:14.3301;stroke-linecap:round;stroke-linejoin:round;stroke-miterlimit:2;stroke-dasharray:none;stroke-opacity:1"
       id="rect10-2"
       width="11.330688"
       height="0.4195469"
       x="73.793587"
       y="172.17055" />
  </g>
</svg>
