<?xml version="1.0" encoding="UTF-8" standalone="no"?>
<!-- Created with Inkscape (http://www.inkscape.org/) -->

<svg
   width="151.82635mm"
   height="151.82635mm"
   viewBox="0 0 151.82636 151.82636"
   version="1.1"
   id="svg1"
   sodipodi:docname="Move Grading Icons Template.svg"
   inkscape:version="1.4.2 (f4327f4, 2025-05-13)"
   xmlns:inkscape="http://www.inkscape.org/namespaces/inkscape"
   xmlns:sodipodi="http://sodipodi.sourceforge.net/DTD/sodipodi-0.dtd"
   xmlns="http://www.w3.org/2000/svg"
   xmlns:svg="http://www.w3.org/2000/svg">
  <sodipodi:namedview
     id="namedview1"
     pagecolor="#505050"
     bordercolor="#eeeeee"
     borderopacity="1"
     inkscape:showpageshadow="0"
     inkscape:pageopacity="0"
     inkscape:pagecheckerboard="0"
     inkscape:deskcolor="#505050"
     inkscape:document-units="mm"
     inkscape:zoom="0.50000001"
     inkscape:cx="72.999999"
     inkscape:cy="608.99999"
     inkscape:window-width="1920"
     inkscape:window-height="1017"
     inkscape:window-x="1912"
     inkscape:window-y="-8"
     inkscape:window-maximized="1"
     inkscape:current-layer="layer1" />
  <defs
     id="defs1" />
  <g
     inkscape:label="Layer 1"
     inkscape:groupmode="layer"
     id="layer1"
     transform="translate(50.433829,2.489501)">
    <circle
       style="fill:#000000;stroke:#000000;stroke-width:17.4633;stroke-linecap:round;stroke-linejoin:round"
       id="path1"
       cx="25.479347"
       cy="73.423676"
       r="67.181526" />
    <path
       style="fill:#ffffff;stroke:#ffffff;stroke-width:16;stroke-linecap:round;stroke-linejoin:round;stroke-dasharray:none"
       id="path5-8-2-2-3"
       d="m 77.392975,263.14123 c 0.0241,0.8097 0.0159,1.62012 0.013,2.43012 -0.009,0.69749 -0.003,1.39496 -0.003,2.09243 -0.001,0.46143 -5.19e-4,0.23355 -0.002,0.68368 0,0 3.941709,0 3.941709,0 v 0 c -0.002,-0.45013 -0.001,-0.22225 -0.002,-0.68368 2.5e-4,-0.69747 0.006,-1.39494 -0.003,-2.09243 -0.003,-0.81 -0.0111,-1.62042 0.013,-2.43012 z" />
    <path
       style="fill:#ffffff;stroke:#ffffff;stroke-width:16;stroke-linecap:round;stroke-linejoin:round;stroke-dasharray:none"
       id="path5-8-2-2"
       d="m 40.828549,263.15575 c 0.0241,0.8097 0.0159,1.62012 0.013,2.43012 -0.009,0.69749 -0.003,1.39496 -0.003,2.09243 -10e-4,0.46143 -5.2e-4,0.23355 -0.002,0.68368 0,0 3.941709,0 3.941709,0 v 0 c -0.002,-0.45013 -10e-4,-0.22225 -0.002,-0.68368 2.5e-4,-0.69747 0.006,-1.39494 -0.003,-2.09243 -0.003,-0.81 -0.0111,-1.62042 0.013,-2.43012 z" />
    <path
       style="fill:#ffffff;stroke:#ffffff;stroke-width:16;stroke-linecap:round;stroke-linejoin:round;stroke-dasharray:none"
       id="path4-1-2-3"
       d="m 78.012795,174.85272 c 0.071,1.97223 0.0581,3.94637 0.0923,5.91946 0.0696,3.27406 10e-4,6.54627 -0.0994,9.81861 -0.0854,2.91689 -0.12818,5.83506 -0.1554,8.75305 -0.007,2.61047 -0.0896,5.21982 -0.155141,7.82936 -0.0588,2.39013 -0.11519,4.78042 -0.13762,7.17121 0.01,1.95949 -0.0855,3.91672 -0.15202,5.87456 -0.0685,1.88567 -0.105159,3.77255 -0.116419,5.65942 0.006,1.36858 -0.127551,2.73269 -0.219171,4.09708 -0.053,0.80675 -0.081,1.61524 -0.0868,2.42368 -0.005,0.71113 -0.0224,1.42076 0.0685,2.12711 0.13692,0.76704 0.147421,1.54698 0.21559,2.32109 0.0918,0.80054 0.166331,1.60213 0.20636,2.40691 0.0261,0.65143 0.0193,1.30346 0.0237,1.95522 0.0217,0.3204 0.0711,0.63787 0.115449,0.95564 0,0 3.94638,-0.0559 3.94638,-0.0559 v 0 c -0.0436,-0.29941 -0.0928,-0.59843 -0.11667,-0.9003 0.002,-0.65789 -0.009,-1.31584 -0.0348,-1.97324 -0.0365,-0.81132 -0.12293,-1.61736 -0.22654,-2.42274 -0.0689,-0.78017 -0.0381,-1.56936 -0.18333,-2.3421 -0.10633,-0.68694 -0.0837,-1.37471 -0.0754,-2.06844 0.007,-0.80176 0.0115,-1.60365 0.0517,-2.40466 0.0644,-1.37187 0.18626,-2.74266 0.16361,-4.11712 0.0105,-1.88292 0.0156,-3.76603 0.0792,-5.64814 0.0724,-1.9617 0.21454,-3.92192 0.16752,-5.88615 0.002,-2.38782 -0.005,-4.77593 0.0576,-7.1632 0.0728,-2.61221 0.22767,-5.22262 0.17565,-7.83697 0.008,-2.91542 0.0274,-5.83077 0.10956,-8.74524 0.0773,-3.27604 0.1366,-6.55159 0.134,-9.82873 0.0342,-1.97309 0.0213,-3.94723 0.0923,-5.91946 z" />
    <path
       style="fill:#ffffff;stroke:#ffffff;stroke-width:16;stroke-linecap:round;stroke-linejoin:round;stroke-dasharray:none"
       id="path4-1-2"
       d="m 41.448369,174.86724 c 0.071,1.97223 0.0581,3.94637 0.0923,5.91946 0.0696,3.27406 10e-4,6.54627 -0.0994,9.81861 -0.0854,2.91689 -0.12818,5.83506 -0.1554,8.75305 -0.007,2.61047 -0.0896,5.21982 -0.15514,7.82936 -0.0588,2.39013 -0.11519,4.78042 -0.13762,7.17121 0.01,1.95949 -0.0855,3.91672 -0.15202,5.87456 -0.0685,1.88567 -0.10516,3.77255 -0.11642,5.65942 0.006,1.36858 -0.12755,2.73269 -0.21917,4.09708 -0.053,0.80675 -0.081,1.61524 -0.0868,2.42368 -0.005,0.71113 -0.0224,1.42076 0.0685,2.12711 0.13692,0.76704 0.14742,1.54698 0.21559,2.32109 0.0918,0.80054 0.16633,1.60213 0.20636,2.40691 0.0261,0.65143 0.0193,1.30346 0.0237,1.95522 0.0217,0.3204 0.0711,0.63787 0.11545,0.95564 0,0 3.946379,-0.0559 3.946379,-0.0559 v 0 c -0.0436,-0.29941 -0.0928,-0.59843 -0.11667,-0.9003 0.002,-0.65789 -0.009,-1.31584 -0.0348,-1.97324 -0.0365,-0.81132 -0.12293,-1.61736 -0.22654,-2.42274 -0.0689,-0.78017 -0.0381,-1.56936 -0.18333,-2.3421 -0.10633,-0.68694 -0.0837,-1.37471 -0.0754,-2.06844 0.007,-0.80176 0.0115,-1.60365 0.0517,-2.40466 0.0644,-1.37187 0.18626,-2.74266 0.16361,-4.11712 0.0105,-1.88292 0.0156,-3.76603 0.0792,-5.64814 0.0724,-1.9617 0.21454,-3.92192 0.16752,-5.88615 0.002,-2.38782 -0.005,-4.77593 0.0576,-7.1632 0.0728,-2.61221 0.22767,-5.22262 0.17565,-7.83697 0.008,-2.91542 0.0274,-5.83077 0.10956,-8.74524 0.0773,-3.27604 0.1366,-6.55159 0.134,-9.82873 0.0342,-1.97309 0.0213,-3.94723 0.0923,-5.91946 z" />
    <path
       style="fill:#ffffff;stroke:#ffffff;stroke-width:16;stroke-linecap:round;stroke-linejoin:round;stroke-dasharray:none"
       id="path3-8-79"
       d="m 68.310405,185.02163 c 0.92485,-1.60379 2.20085,-2.99097 3.70121,-4.0767 0.48038,-0.34763 0.99292,-0.6485 1.48937,-0.97276 0.56332,-0.31459 1.10589,-0.66962 1.68995,-0.94379 2.75388,-1.29273 5.8655,-1.94825 8.88926,-2.13299 0.72879,-0.0445 1.46007,-0.0252 2.1901,-0.0378 -0.51521,0.0364 -1.87098,-0.29191 -1.54563,0.10923 0.39702,0.4895 1.25196,0.15851 1.86858,0.28895 0.58163,0.12304 1.156,0.28344 1.72039,0.47025 0.95574,0.31636 2.21857,0.87391 3.09193,1.38139 0.50426,0.29301 0.97344,0.64261 1.46015,0.96391 2.15881,1.70051 4.1096,3.83409 5.41712,6.26896 0.21797,0.40591 0.39371,0.83311 0.59057,1.24966 0.87838,2.12953 1.223895,4.39089 1.391325,6.67113 0.0315,1.33731 0.0274,2.68382 -0.22991,4.00222 -0.153735,0.78773 -0.349795,1.39024 -0.575235,2.15838 -0.62197,1.91797 -1.47545,3.73998 -2.49661,5.47444 -0.75655,1.09136 -1.47405,2.22371 -2.32487,3.24666 -0.55927,0.67241 -1.03133,1.11742 -1.65689,1.7486 -2.11318,2.09521 -4.56218,3.78413 -7.0066,5.46027 -1.85016,1.28634 -3.82314,2.3878 -5.63289,3.7317 -1.23311,1.09051 -1.63594,2.70416 -1.97276,4.25111 -0.44154,2.46893 -0.51976,4.98333 -0.61876,7.48396 -0.0925,2.0898 -0.10691,4.18095 -0.1165,6.27226 -0.0521,1.35082 -0.16354,2.69823 -0.24268,4.04763 0,0 3.91133,0.0181 3.91133,0.0181 v 0 c 0.0463,-1.35561 0.14076,-2.70913 0.16885,-4.06542 -0.006,-2.08617 -0.004,-4.1729 0.0414,-6.25863 0.0862,-2.48111 0.20906,-4.96961 0.68857,-7.41183 0.35403,-1.47711 0.77182,-2.98142 2.00226,-3.97854 1.76402,-1.34331 3.67599,-2.47515 5.50338,-3.72822 2.45207,-1.69876 4.88886,-3.43262 7.02721,-5.52621 0.75597,-0.74273 1.07151,-1.0095 1.72022,-1.79602 0.85535,-1.03704 1.577125,-2.18361 2.331585,-3.29294 1.02478,-1.76304 1.86716,-3.62016 2.47629,-5.56962 0.23058,-0.8049 0.41309,-1.38303 0.58028,-2.20629 0.27382,-1.34829 0.28914,-2.72017 0.2449,-4.09063 -0.18269,-2.3294 -0.5646,-4.63276 -1.4627,-6.80687 -0.20044,-0.4299 -0.3761,-0.87224 -0.60132,-1.28969 -0.99245,-1.83948 -2.621335,-3.83816 -4.129515,-5.27382 -0.42872,-0.40811 -0.90208,-0.7666 -1.35312,-1.1499 -0.48415,-0.33666 -0.94835,-0.70399 -1.45244,-1.00997 -0.84621,-0.51364 -2.19077,-1.12672 -3.12018,-1.45184 -3.02038,-1.05657 -6.06175,-1.04419 -9.27333,-0.94954 -0.72364,0.0238 -1.44898,0.0165 -2.17091,0.0715 -3.06202,0.23352 -6.18907,0.94332 -8.97102,2.26936 -0.59268,0.28251 -1.14447,0.64381 -1.71671,0.96571 -0.51616,0.33589 -1.04986,0.64626 -1.54848,1.00768 -1.56166,1.13195 -2.84267,2.59814 -3.90859,4.19427 z" />
    <path
       style="fill:#ffffff;stroke:#ffffff;stroke-width:16;stroke-linecap:round;stroke-linejoin:round;stroke-dasharray:none"
       id="path3-8-7"
       d="m 31.754799,185.0198 c 0.92485,-1.60379 2.20085,-2.99097 3.70121,-4.0767 0.48038,-0.34763 0.99292,-0.6485 1.48937,-0.97276 0.56332,-0.31459 1.10589,-0.66962 1.68995,-0.94379 2.75388,-1.29273 5.865499,-1.94825 8.889259,-2.13299 0.72879,-0.0445 1.46007,-0.0252 2.1901,-0.0378 -0.51521,0.0364 -1.87098,-0.29191 -1.54563,0.10923 0.39702,0.4895 1.25196,0.15851 1.86858,0.28895 0.58163,0.12304 1.156,0.28344 1.72039,0.47025 0.95574,0.31636 2.21857,0.87391 3.09193,1.38139 0.50426,0.29301 0.97344,0.64261 1.46015,0.96391 2.15881,1.70051 4.1096,3.83409 5.41712,6.26896 0.21797,0.40591 0.39371,0.83311 0.59057,1.24966 0.87838,2.12953 1.22389,4.39089 1.39132,6.67113 0.0315,1.33731 0.0274,2.68382 -0.22991,4.00222 -0.15373,0.78773 -0.34979,1.39024 -0.57523,2.15838 -0.62197,1.91797 -1.47545,3.73998 -2.49661,5.47444 -0.75655,1.09136 -1.47405,2.22371 -2.32487,3.24666 -0.55927,0.67241 -1.03133,1.11742 -1.65689,1.7486 -2.11318,2.09521 -4.56218,3.78413 -7.0066,5.46027 -1.85016,1.28634 -3.82314,2.3878 -5.63289,3.7317 -1.233109,1.09051 -1.635939,2.70416 -1.972759,4.25111 -0.44154,2.46893 -0.51976,4.98333 -0.61876,7.48396 -0.0925,2.0898 -0.10691,4.18095 -0.1165,6.27226 -0.0521,1.35082 -0.16354,2.69823 -0.24268,4.04763 0,0 3.911329,0.0181 3.911329,0.0181 v 0 c 0.0463,-1.35561 0.14076,-2.70913 0.16885,-4.06542 -0.006,-2.08617 -0.004,-4.1729 0.0414,-6.25863 0.0862,-2.48111 0.20906,-4.96961 0.68857,-7.41183 0.35403,-1.47711 0.77182,-2.98142 2.00226,-3.97854 1.76402,-1.34331 3.67599,-2.47515 5.50338,-3.72822 2.45207,-1.69876 4.88886,-3.43262 7.02721,-5.52621 0.75597,-0.74273 1.07151,-1.0095 1.72022,-1.79602 0.85535,-1.03704 1.57712,-2.18361 2.33158,-3.29294 1.02478,-1.76304 1.86716,-3.62016 2.47629,-5.56962 0.23058,-0.8049 0.41309,-1.38303 0.58028,-2.20629 0.27382,-1.34829 0.28914,-2.72017 0.2449,-4.09063 -0.18269,-2.3294 -0.5646,-4.63276 -1.4627,-6.80687 -0.20044,-0.4299 -0.3761,-0.87224 -0.60132,-1.28969 -0.99245,-1.83948 -2.62133,-3.83816 -4.12951,-5.27382 -0.42872,-0.40811 -0.90208,-0.7666 -1.35312,-1.1499 -0.48415,-0.33666 -0.94835,-0.70399 -1.45244,-1.00997 -0.84621,-0.51364 -2.19077,-1.12672 -3.12018,-1.45184 -3.02038,-1.05657 -6.06175,-1.04419 -9.27333,-0.94954 -0.72364,0.0238 -1.44898,0.0165 -2.17091,0.0715 -3.062019,0.23352 -6.189069,0.94332 -8.971019,2.26936 -0.59268,0.28251 -1.14447,0.64381 -1.71671,0.96571 -0.51616,0.33589 -1.04986,0.64626 -1.54848,1.00768 -1.56166,1.13195 -2.84267,2.59814 -3.90859,4.19427 z" />
    <path
       style="fill:#ffffff;fill-opacity:1;stroke:#ffffff;stroke-width:16;stroke-linecap:round;stroke-linejoin:round;stroke-opacity:1"
       id="path2"
       d="m -51.575233,180.39075 c 3.23421,4.48473 6.10146,9.22517 9.06144,13.89283 5.08425,8.06324 10.29289,16.04753 15.45649,24.06012 4.08583,6.47602 8.101596,12.99592 12.098106,19.52733 3.276042,5.24508 6.4845173,10.53075 9.6783663,15.8259 1.297233,2.16517 2.439799,4.41684 3.598277,6.65731 0.08368,0.16641 0.167368,0.33282 0.251053,0.49922 0,0 3.927491,-0.18712 3.927491,-0.18712 v 0 c -0.08899,-0.16847 -0.177983,-0.33694 -0.266973,-0.50541 -1.25027497,-2.2331 -2.44207197,-4.50208 -3.810746,-6.66797 -3.291623,-5.26309 -6.509726,-10.5721 -9.8323583,-15.81608 -3.979262,-6.5617 -8.05049,-13.06788 -12.185236,-19.53269 -5.22071,-7.96482 -10.44137,-15.9309 -15.40957,-24.05712 -2.87933,-4.64375 -5.69906,-9.32388 -8.62031,-13.94139 z" />
    <path
       style="fill:#ffffff;fill-opacity:1;stroke:#ffffff;stroke-width:16;stroke-linecap:round;stroke-linejoin:round;stroke-opacity:1"
       id="path2-8"
       d="m 2.2228143,180.52554 c -3.23421,4.48473 -6.10146,9.22517 -9.06144,13.89283 -5.0842473,8.06323 -10.2928873,16.04752 -15.4564873,24.06011 -4.08583,6.47602 -8.1016,12.99592 -12.09811,19.52733 -3.27604,5.24508 -6.48451,10.53075 -9.67836,15.8259 -1.29723,2.16517 -2.4398,4.41684 -3.59827,6.65731 -0.0837,0.16641 -0.16737,0.33282 -0.25106,0.49922 0,0 -3.92749,-0.18712 -3.92749,-0.18712 v 0 c 0.089,-0.16847 0.17799,-0.33694 0.26698,-0.50541 1.25027,-2.2331 2.44207,-4.50208 3.81074,-6.66797 3.29162,-5.26309 6.50973,-10.5721 9.83235,-15.81608 3.97927,-6.5617 8.05049,-13.06788 12.18524,-19.53269 5.22071,-7.96482 10.44137,-15.9309 15.40957,-24.05711 2.8793273,-4.64375 5.6990573,-9.32388 8.6203073,-13.94139 z" />
    <path
       style="fill:#ffffff;stroke:#ffffff;stroke-width:16;stroke-linecap:round;stroke-linejoin:round;stroke-miterlimit:2;stroke-dasharray:none"
       id="path3"
       d="m 164.55857,239.51181 c 1.10283,2.64704 2.31338,5.25045 3.4896,7.86609 2.04049,4.51303 4.16195,8.98859 6.25205,13.47871 1.88596,4.05325 3.76226,8.11058 5.60176,12.18511 0.63584,1.39182 1.22581,2.80714 1.90614,4.17851 0.26254,0.52922 0.63697,1.28331 1.04832,1.74279 0.15863,0.17719 0.36678,0.30284 0.55017,0.45426 1.27414,0.27508 1.30727,0.34678 3.26886,-0.0986 0.31711,-0.072 0.55325,-0.34505 0.80582,-0.54989 1.16504,-0.94487 2.03732,-2.14489 2.92973,-3.33387 2.94875,-4.33185 5.53025,-8.90105 8.1812,-13.41783 3.86575,-6.45221 8.11731,-12.66499 12.34062,-18.88621 3.8473,-5.68146 7.84386,-11.26094 11.98614,-16.73072 3.40354,-4.43415 6.98506,-8.72706 10.5786,-13.0073 3.12562,-3.71383 6.36834,-7.32618 9.63604,-10.91478 1.29355,-1.43487 2.62552,-2.83415 3.95631,-4.23427 0,0 -1.88821,-0.14333 -1.88821,-0.14333 v 0 c -1.32102,1.40295 -2.64196,2.80618 -3.92952,4.24012 -3.25588,3.59575 -6.49323,7.20937 -9.61409,10.92371 -3.58512,4.283 -7.1556,8.58077 -10.54891,13.0186 -4.12606,5.47577 -8.1029,11.06297 -11.94387,16.74253 -4.22258,6.23519 -8.47386,12.46006 -12.38813,18.89505 -2.66239,4.51618 -5.25637,9.08697 -8.25592,13.39128 -0.90033,1.16563 -1.78093,2.36865 -2.97234,3.26361 -0.25381,0.19066 -0.97869,0.22429 -0.8134,0.49531 0.21765,0.35685 0.83427,0.0917 1.23782,0.20056 0.19884,0.0537 -0.41133,-0.022 -0.61699,-0.033 -0.18591,-0.13231 -0.39792,-0.23406 -0.55772,-0.39695 -0.42415,-0.43232 -0.81277,-1.19455 -1.07359,-1.70616 -0.69668,-1.36652 -1.29236,-2.78336 -1.93777,-4.17387 -1.86168,-4.07064 -3.75413,-8.12678 -5.64262,-12.18505 -2.08801,-4.48662 -4.20735,-8.95888 -6.22725,-13.47683 -1.1533,-2.60376 -2.34591,-5.19644 -3.37579,-7.8514 z" />
    <path
       style="fill:#ffffff;stroke:#ffffff;stroke-width:16;stroke-linecap:round;stroke-linejoin:round;stroke-miterlimit:2;stroke-dasharray:none"
       id="path7"
       d="m -186.19448,230.50868 c 0.5792,-2.1992 1.30035,-4.35742 2.04493,-6.50511 1.23933,-3.58311 2.77642,-7.03776 4.64558,-10.33373 1.23322,-2.03211 2.58736,-4.02115 4.28621,-5.69872 1.06699,-1.05363 1.44396,-1.27092 2.63998,-2.16347 2.29102,-1.46944 4.83005,-2.68154 7.51102,-3.24466 0.50091,-0.10522 1.01224,-0.15249 1.51835,-0.22873 1.82908,-0.30159 4.43562,0.37943 7.2709,1.49262 3.71656,1.60819 6.74698,4.27745 9.61003,7.07428 2.81611,2.87557 5.46217,5.91186 8.01975,9.01775 2.51385,3.17667 5.14592,6.24917 7.9435,9.17842 1.55025,1.52136 3.06758,3.0993 4.83156,4.38018 1.07239,0.7787 1.3565,0.89183 2.51188,1.53599 2.835,1.24808 5.92961,1.66052 8.99965,1.77331 3.18512,0.23726 6.12313,-0.38814 9.06982,-1.48852 2.02252,-0.76144 3.73914,-2.03708 5.344174,-3.45332 1.79751,-1.6805 3.17313,-3.71837 4.42135,-5.82105 1.56081,-2.7365 2.73614,-5.66368 3.86847,-8.59596 0.73046,-1.94879 1.39999,-3.91984 2.07297,-5.88904 0,0 -1.99979,-0.0654 -1.99979,-0.0654 v 0 c -0.66299,1.96785 -1.32336,3.93745 -2.0548,5.88118 -1.1372,2.92253 -2.31527,5.84022 -3.88902,8.56146 -1.25008,2.0845 -2.631534,4.10165 -4.432304,5.75699 -1.60475,1.39409 -3.32121,2.6399 -5.33538,3.38018 -1.09208,0.40039 -2.17452,0.76954 -3.3134,1.0185 -0.40148,0.0877 -0.80473,0.16985 -1.21136,0.22933 -0.41197,0.0602 -0.8456,0.003 -1.24228,0.1295 -0.21725,0.0692 0.45481,0.0327 0.68223,0.0489 -3.0626,-0.0825 -6.15099,-0.4767 -8.99436,-1.6787 -1.14815,-0.62675 -1.44324,-0.74308 -2.51026,-1.5044 -1.77378,-1.26558 -3.2972,-2.83603 -4.85322,-4.3496 -2.80413,-2.91916 -5.4478,-5.97933 -7.94899,-9.16302 -2.55628,-3.11659 -5.21088,-6.15391 -8.02846,-9.03832 -2.86248,-2.81149 -5.88497,-5.50807 -9.59471,-7.15411 -1.44608,-0.58539 -1.69298,-0.74055 -3.18065,-1.13173 -2.61808,-0.68844 -5.34966,-0.64012 -8.0306,-0.40638 -0.50705,0.0836 -1.01948,0.13959 -1.52119,0.25093 -2.68401,0.59564 -5.22277,1.8229 -7.50936,3.32013 -1.20387,0.91361 -1.56811,1.12542 -2.64145,2.19994 -1.69473,1.6966 -3.04741,3.69883 -4.27981,5.7441 -1.86645,3.31092 -3.40038,6.77948 -4.65657,10.36854 -0.76093,2.1592 -1.49382,4.32903 -2.13759,6.5264 z" />
    <path
       sodipodi:type="star"
       style="fill:#ffffff;stroke:#ffffff;stroke-width:16;stroke-linecap:round;stroke-linejoin:round;stroke-miterlimit:2"
       id="path4"
       inkscape:flatsided="false"
       sodipodi:sides="5"
       sodipodi:cx="-306.02133"
       sodipodi:cy="179.01466"
       sodipodi:r1="54.481041"
       sodipodi:r2="27.24052"
       sodipodi:arg1="1.0636978"
       sodipodi:arg2="1.6920164"
       inkscape:rounded="0"
       inkscape:randomized="0"
       d="m -279.563,226.63966 -29.75235,-20.58437 -33.82397,12.83968 10.38292,-34.65709 -22.66344,-28.20083 36.16934,-0.83489 19.8172,-30.26875 11.97096,34.1411 34.91115,9.49372 -28.77089,21.93524 z"
       inkscape:transform-center-x="-1.871066"
       inkscape:transform-center-y="-2.9668963"
       transform="matrix(0.919077,0,0,0.919077,307.14103,-90.549818)" />
  </g>
</svg>
