<?xml version="1.0" encoding="UTF-8" standalone="no"?>
<!-- Created with Inkscape (http://www.inkscape.org/) -->

<svg
   width="210mm"
   height="297mm"
   viewBox="0 0 210 297"
   version="1.1"
   id="svg1"
   sodipodi:docname="Template.svg"
   inkscape:version="1.4.2 (f4327f4, 2025-05-13)"
   xmlns:inkscape="http://www.inkscape.org/namespaces/inkscape"
   xmlns:sodipodi="http://sodipodi.sourceforge.net/DTD/sodipodi-0.dtd"
   xmlns="http://www.w3.org/2000/svg"
   xmlns:svg="http://www.w3.org/2000/svg">
  <sodipodi:namedview
     id="namedview1"
     pagecolor="#505050"
     bordercolor="#eeeeee"
     borderopacity="1"
     inkscape:showpageshadow="0"
     inkscape:pageopacity="0"
     inkscape:pagecheckerboard="0"
     inkscape:deskcolor="#505050"
     inkscape:document-units="mm"
     inkscape:zoom="0.36302258"
     inkscape:cx="50.961018"
     inkscape:cy="136.35516"
     inkscape:window-width="1920"
     inkscape:window-height="1017"
     inkscape:window-x="1912"
     inkscape:window-y="-8"
     inkscape:window-maximized="1"
     inkscape:current-layer="layer1" />
  <defs
     id="defs1" />
  <circle
     style="fill:#00e0e0;fill-opacity:1;stroke:#00e0e0;stroke-width:15.5;stroke-opacity:1"
     id="path18"
     cx="87.58593"
     cy="87.630142"
     r="69.831779" />
  <g
     inkscape:label="Layer 1"
     inkscape:groupmode="layer"
     id="layer1">
    <circle
       style="fill:none;stroke:#ffffff;stroke-width:16;stroke-dasharray:none"
       id="path17"
       cx="88.006737"
       cy="87.642326"
       r="75.98098" />
    <path
       style="fill:#ffffff;stroke:#ffffff;stroke-width:16;stroke-linecap:round;stroke-linejoin:round;stroke-dasharray:none"
       id="path3"
       d="m 93.388328,199.08218 c 0.924856,-1.60379 2.200849,-2.99097 3.701217,-4.0767 0.48038,-0.34763 0.992912,-0.6485 1.489368,-0.97276 0.563317,-0.31459 1.105885,-0.66962 1.689947,-0.94379 2.75388,-1.29273 5.8655,-1.94825 8.88927,-2.13299 0.72879,-0.0445 1.46007,-0.0252 2.1901,-0.0378 -0.51521,0.0364 -1.87098,-0.29191 -1.54563,0.10923 0.39702,0.4895 1.25196,0.15851 1.86858,0.28895 0.58163,0.12304 1.156,0.28344 1.72039,0.47025 0.95574,0.31636 2.21857,0.87391 3.09193,1.38139 0.50426,0.29301 0.97344,0.64261 1.46015,0.96391 2.15881,1.70051 4.1096,3.83409 5.41712,6.26896 0.21797,0.40591 0.39371,0.83311 0.59057,1.24966 0.87838,2.12953 1.22389,4.39089 1.39132,6.67113 0.0315,1.33731 0.0274,2.68382 -0.22991,4.00222 -0.15373,0.78773 -0.34979,1.39024 -0.57523,2.15838 -0.62197,1.91797 -1.47545,3.73998 -2.49661,5.47444 -0.75655,1.09136 -1.47405,2.22371 -2.32487,3.24666 -0.55927,0.67241 -1.03133,1.11742 -1.65689,1.7486 -2.11318,2.09521 -4.56218,3.78413 -7.0066,5.46027 -1.85016,1.28634 -3.82315,2.3878 -5.6329,3.7317 -1.23311,1.09051 -1.63594,2.70416 -1.97276,4.25111 -0.44154,2.46893 -0.51976,4.98333 -0.61876,7.48396 -0.0925,2.0898 -0.10691,4.18095 -0.1165,6.27226 -0.0521,1.35082 -0.16354,2.69823 -0.24268,4.04763 0,0 3.91133,0.0181 3.91133,0.0181 v 0 c 0.0463,-1.35561 0.14076,-2.70913 0.16885,-4.06542 -0.006,-2.08617 -0.004,-4.1729 0.0414,-6.25863 0.0862,-2.48111 0.20906,-4.96961 0.68857,-7.41183 0.35403,-1.47711 0.77182,-2.98142 2.00227,-3.97854 1.76402,-1.34331 3.67599,-2.47515 5.50338,-3.72822 2.45207,-1.69876 4.88886,-3.43262 7.02721,-5.52621 0.75597,-0.74273 1.07151,-1.0095 1.72022,-1.79602 0.85535,-1.03704 1.57712,-2.18361 2.33158,-3.29294 1.02478,-1.76304 1.86716,-3.62016 2.47629,-5.56962 0.23058,-0.8049 0.41309,-1.38303 0.58028,-2.20629 0.27382,-1.34829 0.28914,-2.72017 0.2449,-4.09063 -0.18269,-2.3294 -0.5646,-4.63276 -1.4627,-6.80687 -0.20044,-0.4299 -0.3761,-0.87224 -0.60132,-1.28969 -0.99245,-1.83948 -2.62133,-3.83816 -4.12951,-5.27382 -0.42872,-0.40811 -0.90208,-0.7666 -1.35312,-1.1499 -0.48415,-0.33666 -0.94835,-0.70399 -1.45244,-1.00997 -0.84621,-0.51364 -2.19077,-1.12672 -3.12018,-1.45184 -3.02038,-1.05657 -6.06175,-1.04419 -9.27334,-0.94954 -0.72364,0.0238 -1.44898,0.0165 -2.17091,0.0715 -3.06202,0.23352 -6.189067,0.94332 -8.97102,2.26936 -0.592675,0.28251 -1.144469,0.64381 -1.716704,0.96571 -0.516163,0.33589 -1.049862,0.64626 -1.548482,1.00768 -1.561666,1.13195 -2.842668,2.59814 -3.908589,4.19427 z" />
    <path
       style="fill:#ffffff;stroke:#ffffff;stroke-width:16;stroke-linecap:round;stroke-linejoin:round;stroke-dasharray:none"
       id="path4"
       d="m 102.47164,40.570898 c 0.071,1.97223 0.0581,3.94637 0.0923,5.91946 0.0696,3.27406 0.001,6.54627 -0.0994,9.81861 -0.0854,2.91689 -0.12818,5.83506 -0.1554,8.75305 -0.007,2.61047 -0.0896,5.21982 -0.15514,7.82936 -0.0588,2.39013 -0.11519,4.78042 -0.13762,7.17121 0.01,1.95949 -0.0855,3.91672 -0.15202,5.87456 -0.0686,1.88567 -0.10516,3.77255 -0.11642,5.65942 0.006,1.36858 -0.12755,2.73269 -0.21917,4.09708 -0.053,0.80675 -0.081,1.61524 -0.0868,2.42368 -0.005,0.71113 -0.0224,1.420765 0.0686,2.127122 0.13692,0.76704 0.14742,1.54698 0.21559,2.32109 0.0918,0.80054 0.16633,1.60213 0.20635,2.40691 0.0261,0.65143 0.0193,1.30346 0.0237,1.95522 0.0217,0.3204 0.0711,0.63787 0.11546,0.95564 0,0 3.94638,-0.0559 3.94638,-0.0559 v 0 c -0.0436,-0.29941 -0.0928,-0.59843 -0.11667,-0.9003 0.002,-0.65789 -0.009,-1.31584 -0.0348,-1.97324 -0.0365,-0.81132 -0.12293,-1.61736 -0.22654,-2.42274 -0.0689,-0.78017 -0.0381,-1.56936 -0.18333,-2.3421 -0.10634,-0.686947 -0.0837,-1.374722 -0.0754,-2.068452 0.007,-0.80176 0.0115,-1.60365 0.0517,-2.40466 0.0644,-1.37187 0.18626,-2.74266 0.16361,-4.11712 0.0105,-1.88292 0.0156,-3.76603 0.0792,-5.64814 0.0724,-1.9617 0.21454,-3.92192 0.16752,-5.88615 0.002,-2.38782 -0.005,-4.77593 0.0576,-7.1632 0.0728,-2.61221 0.22767,-5.22262 0.17565,-7.83697 0.008,-2.91542 0.0274,-5.83077 0.10955,-8.74524 0.0773,-3.27604 0.13661,-6.55159 0.13401,-9.82873 0.0342,-1.97309 0.0213,-3.94723 0.0923,-5.91946 z" />
    <path
       style="fill:#ffffff;stroke:#ffffff;stroke-width:16;stroke-linecap:round;stroke-linejoin:round;stroke-dasharray:none"
       id="path5"
       d="m 102.20587,129.10427 c 0.0241,0.8097 0.0159,1.62012 0.013,2.43012 -0.009,0.69749 -0.003,1.39496 -0.003,2.09243 -10e-4,0.46143 -5.2e-4,0.23355 -0.002,0.68368 0,0 3.94171,0 3.94171,0 v 0 c -0.002,-0.45013 -0.001,-0.22225 -0.002,-0.68368 2.5e-4,-0.69747 0.006,-1.39494 -0.003,-2.09243 -0.003,-0.81 -0.0111,-1.62042 0.013,-2.43012 z" />
    <path
       style="fill:#ffffff;stroke:#ffffff;stroke-width:16;stroke-linecap:round;stroke-linejoin:round;stroke-dasharray:none"
       id="path4-1"
       d="m 68.91746,40.654214 c 0.07102,1.97223 0.0581,3.94637 0.09232,5.91946 0.06956,3.27406 0.0013,6.54627 -0.09938,9.81861 -0.08542,2.91689 -0.128175,5.83506 -0.155401,8.75305 -0.0065,2.61047 -0.08958,5.21982 -0.155138,7.82936 -0.05883,2.39013 -0.115194,4.78042 -0.137618,7.17121 0.0095,1.95949 -0.08548,3.91672 -0.152019,5.87456 -0.06855,1.88567 -0.105159,3.77255 -0.116422,5.65942 0.0064,1.36858 -0.12755,2.73269 -0.219175,4.09708 -0.053,0.80675 -0.08101,1.61524 -0.08683,2.42368 -0.0047,0.711132 -0.02244,1.420762 0.06855,2.127116 0.136927,0.76704 0.147428,1.54698 0.215593,2.32109 0.09181,0.80054 0.166333,1.60213 0.206356,2.40691 0.02609,0.65143 0.01934,1.30346 0.02365,1.95522 0.02167,0.3204 0.07113,0.63787 0.115456,0.95564 0,0 3.946377,-0.0559 3.946377,-0.0559 v 0 c -0.04365,-0.29941 -0.09276,-0.59843 -0.116671,-0.9003 0.0024,-0.65789 -0.0089,-1.31584 -0.03482,-1.97324 -0.03645,-0.81132 -0.122925,-1.61736 -0.226536,-2.42274 -0.06887,-0.78017 -0.03812,-1.56936 -0.183327,-2.3421 -0.106339,-0.686944 -0.0837,-1.374714 -0.07541,-2.068446 0.0074,-0.80176 0.01148,-1.60365 0.05167,-2.40466 0.06439,-1.37187 0.186259,-2.74266 0.163605,-4.11712 0.01048,-1.88292 0.01564,-3.76603 0.07919,-5.64814 0.07241,-1.9617 0.214537,-3.92192 0.167521,-5.88615 0.0016,-2.38782 -0.0049,-4.77593 0.05763,-7.1632 0.0728,-2.61221 0.227672,-5.22262 0.175652,-7.83697 0.0085,-2.91542 0.02736,-5.83077 0.109553,-8.74524 0.07726,-3.27604 0.136602,-6.55159 0.134001,-9.82873 0.03422,-1.97309 0.0213,-3.94723 0.09232,-5.91946 z" />
    <path
       style="fill:#ffffff;stroke:#ffffff;stroke-width:16;stroke-linecap:round;stroke-linejoin:round;stroke-dasharray:none"
       id="path5-7"
       d="m 68.651696,129.18758 c 0.0241,0.8097 0.0159,1.62012 0.01299,2.43012 -0.0092,0.69749 -0.0031,1.39496 -0.0029,2.09243 -0.0013,0.46143 -5.29e-4,0.23355 -0.0024,0.68368 0,0 3.941707,0 3.941707,0 v 0 c -0.0021,-0.45013 -0.0011,-0.22225 -0.0024,-0.68368 2.51e-4,-0.69747 0.0064,-1.39494 -0.0029,-2.09243 -0.0029,-0.81 -0.01114,-1.62042 0.01299,-2.43012 z" />
    <path
       style="fill:#ffffff;stroke:#ffffff;stroke-width:16;stroke-linecap:round;stroke-linejoin:round;stroke-dasharray:none"
       id="path5-8"
       d="m 102.61038,277.27568 c 0.0241,0.8097 0.0159,1.62012 0.013,2.43012 -0.009,0.69749 -0.003,1.39496 -0.003,2.09243 -10e-4,0.46143 -5.2e-4,0.23355 -0.002,0.68368 0,0 3.94171,0 3.94171,0 v 0 c -0.002,-0.45013 -0.001,-0.22225 -0.002,-0.68368 2.5e-4,-0.69747 0.006,-1.39494 -0.003,-2.09243 -0.003,-0.81 -0.0111,-1.62042 0.013,-2.43012 z" />
  </g>
</svg>
