<?xml version="1.0" encoding="UTF-8" standalone="no"?>
<!-- Created with Inkscape (http://www.inkscape.org/) -->

<svg
   width="210mm"
   height="297mm"
   viewBox="0 0 210 297"
   version="1.1"
   id="svg1"
   xml:space="preserve"
   inkscape:version="1.4.2 (f4327f4, 2025-05-13)"
   sodipodi:docname="Rook (Draft).svg"
   xmlns:inkscape="http://www.inkscape.org/namespaces/inkscape"
   xmlns:sodipodi="http://sodipodi.sourceforge.net/DTD/sodipodi-0.dtd"
   xmlns="http://www.w3.org/2000/svg"
   xmlns:svg="http://www.w3.org/2000/svg"><sodipodi:namedview
     id="namedview1"
     pagecolor="#505050"
     bordercolor="#eeeeee"
     borderopacity="1"
     inkscape:showpageshadow="0"
     inkscape:pageopacity="0"
     inkscape:pagecheckerboard="0"
     inkscape:deskcolor="#505050"
     inkscape:document-units="mm"
     inkscape:zoom="0.51339147"
     inkscape:cx="254.19199"
     inkscape:cy="349.63573"
     inkscape:window-width="1920"
     inkscape:window-height="1017"
     inkscape:window-x="1912"
     inkscape:window-y="-8"
     inkscape:window-maximized="1"
     inkscape:current-layer="layer1" /><defs
     id="defs1" /><g
     inkscape:label="Layer 1"
     inkscape:groupmode="layer"
     id="layer1"><path
       style="fill:#ffffff;fill-opacity:1;stroke:#000000;stroke-width:7.36188;stroke-linecap:round;stroke-linejoin:round;stroke-miterlimit:2;stroke-dasharray:none;stroke-opacity:1"
       d="m 209.63825,801.35219 c -5.34927,-0.62118 -6.01591,-2.53387 -4.71822,-13.53718 2.02373,-17.15948 8.43129,-31.5365 22.75101,-51.0478 8.33482,-11.35658 12.50517,-15.78927 18.4442,-19.60445 4.71124,-3.02646 6.6031,-6.1197 4.82834,-7.89446 -0.69355,-0.69356 -0.53409,-1.72906 0.51215,-3.32584 1.42512,-2.175 1.35604,-2.55426 -1.11451,-6.11926 -2.17895,-3.14423 -2.44637,-4.15074 -1.54855,-5.82833 0.96828,-1.80925 1.97365,-2.02778 9.32925,-2.02778 6.94547,0 8.55083,-0.30681 10.19185,-1.94783 1.07131,-1.07131 1.94112,-2.71479 1.93292,-3.65218 -0.17662,-20.18869 1.13687,-83.99424 1.86956,-90.81764 1.57945,-14.7091 3.47657,-73.56631 3.48978,-108.26871 l 0.0121,-31.81633 -2.32319,-2.47386 c -1.44346,-1.53709 -4.29992,-2.91625 -7.54338,-3.6421 -6.03236,-1.34998 -11.07262,-4.12237 -11.07262,-6.09048 0,-1.96078 4.01603,-4.31015 9.43403,-5.51888 5.94445,-1.32619 9.07037,-3.35741 9.07037,-5.89395 0,-4.19702 -1.87683,-5.57227 -12.40668,-9.09099 -5.76419,-1.92619 -12.77541,-4.81829 -15.5805,-6.42688 -12.79348,-7.3365 -17.88781,-21.30076 -16.15808,-44.29147 0.44331,-5.89219 0.47476,-21.45049 0.0699,-34.57401 -0.74031,-23.99682 -0.0242,-37.10136 2.30697,-42.21777 1.45625,-3.19611 4.56177,-4.18592 27.90949,-8.89546 17.36455,-3.50266 35.31677,-5.6926 38.92676,-4.74856 1.13688,0.2973 2.31232,1.17972 2.6121,1.96093 0.29978,0.78121 0.0619,6.98326 -0.52855,13.78233 -1.21158,13.95091 -0.60417,37.69279 1.11164,43.45049 0.62594,2.1004 2.37782,5.05867 3.89307,6.57393 l 2.75502,2.75502 h 21.63155 c 22.58166,0 27.72777,-0.69265 30.85056,-4.15237 1.54984,-1.71706 1.72004,-4.37658 1.72004,-26.8767 0,-23.92303 0.0957,-25.20813 2.27919,-30.61896 3.96777,-9.83218 4.73241,-10.33081 19.17465,-12.50396 11.2302,-1.68983 13.82299,-1.77075 23.34629,-0.72865 5.89219,0.64475 11.52038,1.57798 12.50708,2.07383 2.81356,1.4139 7.59889,12.77035 8.75104,20.76778 0.74921,5.20056 0.72957,11.92947 -0.0702,24.03105 -1.3015,19.69454 -0.70056,22.21686 6.08167,25.52624 3.49588,1.70581 6.11129,1.90571 25.48564,1.94783 25.25236,0.0549 25.77809,-0.11396 28.90503,-9.28489 2.0773,-6.09246 2.66453,-27.35048 1.29581,-46.90921 -0.79823,-11.4066 -0.79385,-11.44349 1.46087,-12.29712 5.1459,-1.94821 46.28608,4.35242 61.57755,9.43061 8.04644,2.67217 7.87414,1.70755 7.94816,44.49882 0.0352,20.35484 0.3936,39.22659 0.79643,41.93723 0.82437,5.54717 -1.52506,20.36192 -4.00639,25.26296 -4.73451,9.35147 -10.8009,13.64075 -27.46832,19.42169 -11.73627,4.0706 -12.72498,4.71576 -12.72498,8.30321 0,3.51089 2.42024,5.53629 8.14997,6.82034 6.09585,1.36612 10.35442,3.59716 10.35442,5.42463 0,2.0587 -4.95428,4.80825 -11.17024,6.19932 -3.84335,0.8601 -6.0024,2.00367 -7.78686,4.12437 l -2.46904,2.93429 -0.0175,25.97752 c -0.0218,32.26254 1.3841,73.17816 4.0273,117.20601 1.46483,24.39984 1.93483,41.37911 1.6942,61.20509 l -0.33301,27.43762 2.292,1.85595 c 1.81005,1.4657 3.86668,1.85596 9.78065,1.85596 4.52595,0 7.95102,0.46236 8.65735,1.1687 1.77044,1.77044 1.40161,5.13604 -0.77913,7.10958 -1.98173,1.79344 -2.53822,4.43257 -1.2174,5.77339 0.40174,0.40782 0.73044,2.30732 0.73044,4.22109 0,3.11957 0.55423,3.86274 5.35653,7.18262 6.30128,4.35612 9.1988,7.55985 19.2575,21.29257 14.51414,19.81556 22.14962,39.38898 21.46022,55.01295 l -0.30021,6.80413 -3.89567,0.76249 c -2.14261,0.41937 -40.9288,0.66041 -86.19154,0.53563 -45.26273,-0.12477 -127.21773,0.0311 -182.12223,0.34638 -54.90449,0.31529 -101.46854,0.38256 -103.47564,0.14948 z"
       id="path22"
       inkscape:label="Body"
       transform="scale(0.26458333)" /></g></svg>
